<svg width="24" height="24" viewBox="0 0 24 24" fill="none" xmlns="http://www.w3.org/2000/svg">
<path fill-rule="evenodd" clip-rule="evenodd" d="M17 2C18.6569 2 20 3.34315 20 5C20 6.65685 18.6569 8 17 8C16.2606 8 15.5836 7.73248 15.0607 7.28896L7.94747 11.4381C7.98195 11.6201 8 11.808 8 12C8 12.1924 7.98189 12.3806 7.94728 12.5629L15.0607 16.711C15.5836 16.2675 16.2606 16 17 16C18.6569 16 20 17.3431 20 19C20 20.6569 18.6569 22 17 22C15.3431 22 14 20.6569 14 19C14 18.808 14.018 18.6201 14.0525 18.4381L6.93934 14.289C6.41638 14.7325 5.73943 15 5 15C3.34315 15 2 13.6569 2 12C2 10.3431 3.34315 9 5 9C5.73943 9 6.41638 9.26752 6.93934 9.71104L14.0525 5.5619C14.018 5.37988 14 5.19205 14 5C14 3.34315 15.3431 2 17 2Z" fill="#252C38"/>
</svg>
