<svg width="24" height="24" viewBox="0 0 24 24" fill="none" xmlns="http://www.w3.org/2000/svg">
<path d="M12 2C6.47714 2 2 6.47714 2 12C2 17.5229 6.47714 22 12 22C17.5229 22 22 17.5229 22 12C22 6.47714 17.5228 2 12 2ZM20.087 11.2809C19.0256 11.2382 17.017 11.2372 14.7346 11.6362C14.5285 11.1419 14.3179 10.6679 14.1063 10.2156C14.2385 10.1539 14.3696 10.0911 14.4982 10.0263C16.0658 9.23629 17.3677 8.21427 18.3823 6.98058C19.3604 8.2193 19.9495 9.70319 20.087 11.2809ZM17.0471 5.63985C16.1001 6.84617 14.8378 7.81467 13.2696 8.53853C13.0932 8.20613 12.9194 7.88996 12.7506 7.59317C11.8875 6.07514 11.0639 4.86699 10.4477 4.02885C10.9539 3.9314 11.473 3.88113 12 3.88113C13.856 3.88113 15.6166 4.50021 17.0471 5.63985ZM6.25907 6.25907C6.93642 5.58172 7.71248 5.03906 8.55471 4.64393C9.14599 5.41181 10.1198 6.76646 11.1401 8.56665C11.2568 8.77245 11.3761 8.98859 11.4969 9.21259C10.7129 9.45497 9.87108 9.65009 8.97124 9.79663C6.9525 10.1254 5.13317 10.1154 4.11138 10.0686C4.45878 8.63847 5.19186 7.32633 6.25907 6.25907ZM3.88113 12C3.88113 11.9808 3.8817 11.9616 3.88184 11.9424C4.22876 11.9609 4.67031 11.976 5.18504 11.976C6.27252 11.976 7.6868 11.9083 9.2251 11.6612C10.3348 11.4829 11.3806 11.2313 12.3541 10.9091C12.5262 11.2737 12.6977 11.6536 12.8668 12.0479C11.6199 12.3833 10.4751 12.8221 9.44839 13.3597C7.78241 14.2321 6.42536 15.3656 5.40367 16.7356C4.415 15.3646 3.88113 13.7234 3.88113 12ZM6.70231 18.1529C8.13089 16.0607 10.4339 14.6032 13.5638 13.8079C14.1916 15.5339 14.7287 17.464 15.0384 19.533C14.0855 19.9172 13.0583 20.1189 12 20.1189C10.0342 20.1189 8.17505 19.4249 6.70231 18.1529ZM17.7409 17.7409C17.4412 18.0405 17.122 18.3135 16.7866 18.5594C16.4654 16.7214 15.9823 14.9977 15.4259 13.4283C17.3978 13.1191 19.1328 13.1268 20.0363 13.163C19.79 14.8903 18.9967 16.4851 17.7409 17.7409Z" fill="#171717"/>
</svg>
