<svg width="24" height="24" viewBox="0 0 24 24" fill="none" xmlns="http://www.w3.org/2000/svg">
<path d="M22 14.717V22H17.7134V15.2123C17.7134 13.4792 17.0933 12.2964 15.5417 12.2964C14.3572 12.2964 13.6524 13.0935 13.3423 13.8646C13.2292 14.1402 13.2001 14.5239 13.2001 14.9097V22H8.91198C8.91198 22 8.96973 10.4267 8.91198 9.21608H13.1996V11.0439C13.191 11.0576 13.1797 11.0723 13.1715 11.0856H13.1996V11.0439C13.7693 10.1665 14.7867 8.91314 17.0638 8.91314C19.885 8.91309 22 10.7562 22 14.717ZM4.42646 3C2.95951 3 2 3.9622 2 5.22753C2 6.46529 2.93175 7.45669 4.36954 7.45669H4.39818C5.89355 7.45669 6.82352 6.46548 6.82352 5.22753C6.79535 3.9622 5.89355 3 4.42646 3ZM2.25467 22H6.54114V9.21608H2.25467V22Z" fill="#171717"/>
</svg>
