<svg width="24" height="24" viewBox="0 0 24 24" fill="none" xmlns="http://www.w3.org/2000/svg">
<path d="M2.84594 5.88686C2.87576 5.59224 2.76341 5.30105 2.54342 5.10276L0.302521 2.40325V2H7.2605L12.6387 13.795L17.3669 2H24V2.40325L22.084 4.24026C21.9189 4.36617 21.8369 4.57311 21.8711 4.77793V18.2755C21.8369 18.4803 21.9189 18.6873 22.084 18.8132L23.9552 20.6502V21.0534H14.5434V20.6502L16.4818 18.7684C16.6723 18.5779 16.6723 18.5219 16.6723 18.2307V7.32062L11.2829 21.0086H10.5546L4.28011 7.32062V16.4945C4.2278 16.8802 4.35589 17.2685 4.62745 17.5474L7.14846 20.6054V21.0086H0V20.6054L2.52101 17.5474C2.79059 17.268 2.91122 16.8772 2.84594 16.4945V5.88686Z" fill="#171717"/>
</svg>
