<?xml version="1.0" encoding="UTF-8"?>
<svg width="266px" height="214px" viewBox="0 0 266 214" version="1.1" xmlns="http://www.w3.org/2000/svg" xmlns:xlink="http://www.w3.org/1999/xlink">
    <!-- Generator: Sketch 48.2 (47327) - http://www.bohemiancoding.com/sketch -->
    <title>ic_iconpack</title>
    <desc>Created with Sketch.</desc>
    <defs></defs>
    <g id="icons" stroke="none" stroke-width="1" fill="none" fill-rule="evenodd">
        <g id="ic_iconpack" transform="translate(23.000000, 23.000000)">
            <g id="ic_price_estimate" transform="translate(196.000000, 0.000000)" stroke="#FAFAFA" stroke-linecap="round" stroke-linejoin="round">
                <g id="Group">
                    <g transform="translate(3.000000, 2.000000)" stroke-width="2">
                        <rect id="Rectangle-2" x="4" y="0" width="10" height="4" rx="2"></rect>
                        <path d="M4,2 C4,3.11227036 4.89525812,4 5.99961498,4 L12.000385,4 C13.1125667,4 14,3.1045695 14,2 L16.0049107,2 C17.1067681,2 18,2.8926228 18,3.99508929 L18,18.0049107 C18,19.1067681 17.1073772,20 16.0049107,20 L1.99508929,20 C0.893231902,20 0,19.1073772 0,18.0049107 L0,3.99508929 C0,2.8932319 0.892622799,2 1.99508929,2 L4,2 Z" id="Combined-Shape"></path>
                        <path d="M5,10 L13,10" id="Line"></path>
                        <path d="M5,14 L13,14" id="Line-Copy"></path>
                    </g>
                </g>
            </g>
            <g id="ic_delivering_to" transform="translate(0.000000, 48.000000)" stroke="#FAFAFA" stroke-linecap="round" stroke-linejoin="round">
                <g id="Group">
                    <g transform="translate(2.000000, 5.000000)" stroke-width="2">
                        <path d="M17,12 C17,10.8954305 16.1045695,10 15,10 C13.8954305,10 13,10.8954305 13,12 L7,12 C7,10.8954305 6.1045695,10 5,10 C3.8954305,10 3,10.8954305 3,12 L2.0048815,12 C0.897616023,12 0,11.1017394 0,10.0020869 L0,7.99791312 C0,6.89449617 0.893899798,6 2.0048815,6 L4,6 L5.3671875,1.8984375 C5.71668019,0.84995942 6.89706013,0 8.00585866,0 L17.9941413,0 C19.1019465,0 20,0.901950359 20,2.0085302 L20,9.9914698 C20,11.1007504 19.1054862,12 18.0059397,12 L17,12 Z" id="Combined-Shape"></path>
                        <circle id="Oval-Copy-3" cx="15" cy="12" r="2"></circle>
                        <circle id="Oval-Copy-2" cx="5" cy="12" r="2"></circle>
                        <path d="M12,4 L16,4" id="Line"></path>
                    </g>
                </g>
            </g>
            <g id="ic_sales_report" transform="translate(48.000000, 48.000000)" stroke="#FAFAFA" stroke-linejoin="round">
                <g id="Group">
                    <g transform="translate(3.000000, 3.000000)" stroke-width="2">
                        <path d="M0,18 L18,18" id="Line" stroke-linecap="round"></path>
                        <circle id="Oval" stroke-linecap="round" cx="2" cy="4" r="2"></circle>
                        <path d="M10,10 L16,3" id="Line"></path>
                        <circle id="Oval-Copy" stroke-linecap="round" cx="9" cy="11" r="2"></circle>
                        <path d="M3,5 L8,10" id="Line"></path>
                        <circle id="Oval-Copy-2" cx="17" cy="2" r="2"></circle>
                    </g>
                </g>
            </g>
            <g id="ic_processing" transform="translate(148.000000, 0.000000)" stroke="#FAFAFA" stroke-linecap="round" stroke-linejoin="round">
                <g id="Line">
                    <path d="M12,2 L12,5 M17,3.33974596 L15.5,5.93782217 M20.660254,7 L18.0621778,8.5 M22,12 L19,12 M20.660254,17 L18.0621778,15.5 M17,20.660254 L15.5,18.0621778 M12,22 L12,19 M7,20.660254 L8.5,18.0621778 M3.33974596,17 L5.93782217,15.5 M2,12 L5,12 M3.33974596,7 L5.93782217,8.5 M7,3.33974596 L8.5,5.93782217" stroke-width="2"></path>
                </g>
            </g>
            <g id="ic_home_inactive" transform="translate(96.000000, 0.000000)" stroke="#FAFAFA" stroke-linecap="round" stroke-linejoin="round">
                <g id="Group">
                    <g transform="translate(2.000000, 3.000000)" stroke-width="2">
                        <polygon id="Rectangle" points="3 5 10 0 17 5 17 18 3 18"></polygon>
                        <polyline id="Path" points="0 7 10 0 20 7"></polyline>
                        <rect id="Rectangle-2" x="7" y="10" width="6" height="8"></rect>
                    </g>
                </g>
            </g>
            <g id="ic_add_product" transform="translate(96.000000, 48.000000)" stroke="#FAFAFA" stroke-linecap="round" stroke-linejoin="round">
                <g id="Group">
                    <g transform="translate(3.000000, 4.000000)" stroke-width="2">
                        <rect id="Rectangle-3" x="0" y="0" width="18" height="4"></rect>
                        <polyline id="Rectangle" points="9 14 2 14 2 4 16 4 16 7"></polyline>
                        <path d="M16,11 L16,17" id="Line"></path>
                        <path d="M13,14 L19,14" id="Line-Copy"></path>
                    </g>
                </g>
            </g>
            <g id="ic_notification_inactive" transform="translate(48.000000, 0.000000)" stroke="#FAFAFA" stroke-linecap="round" stroke-linejoin="round">
                <g id="Group">
                    <g transform="translate(3.000000, 2.000000)" stroke-width="2">
                        <path d="M3,6 C3,2.6862915 5.6862915,0 9,0 C12.3137085,0 15,2.6862915 15,6 L15,13 L3,13 L3,6 Z" id="Combined-Shape"></path>
                        <rect id="Rectangle-2" x="0" y="13" width="18" height="4" rx="2"></rect>
                        <path d="M6,17 C6,18.6568542 7.34314575,20 9,20 C10.6568542,20 12,18.6568542 12,17 L6,17 Z" id="Oval-2"></path>
                    </g>
                </g>
            </g>
            <g id="ic_order_inactive" stroke="#FAFAFA" stroke-linecap="round" stroke-linejoin="round" stroke-width="2">
                <polygon id="Rectangle" points="3 7 12 12 12 22 3 17"></polygon>
                <polygon id="Rectangle-Copy" points="12 12 21 7 21 17 12 22"></polygon>
                <polygon id="Path-2" points="12 12 3 7 12 2 21 7"></polygon>
            </g>
            <g id="ic_wallet" transform="translate(148.000000, 47.000000)" stroke="#FFFFFF" stroke-linecap="round" stroke-linejoin="round">
                <g id="Group">
                    <g transform="translate(2.000000, 3.000000)" stroke-width="2">
                        <path d="M11,11 C11,9.8954305 11.8958578,9 12.9973917,9 L20,9 L20,13 L12.9973917,13 C11.8942627,13 11,12.1122704 11,11 L11,11 Z" id="Rectangle-3"></path>
                        <path d="M0,2 C0,0.8954305 0.892622799,0 1.99508929,0 L16.0049107,0 C17.1067681,0 18,0.887729645 18,2 L18,4 L1.99508929,4 C0.893231902,4 0,3.11227036 0,2 L0,2 Z" id="Rectangle-2"></path>
                        <path d="M8,4 L20,4 L20,15.9941413 C20,17.1019465 19.1017876,18 18.0092049,18 L1.99079514,18 C0.891309342,18 0,17.1054862 0,16.0059397 L0,2 C0,3.11227036 0.892771196,4 1.99406028,4 L8,4 Z" id="Combined-Shape"></path>
                    </g>
                </g>
            </g>
            <g id="ic_settings" transform="translate(196.000000, 47.000000)" stroke="#FFFFFF" stroke-linecap="round" stroke-linejoin="round">
                <g id="Group">
                    <g transform="translate(2.000000, 2.000000)" stroke-width="2">
                        <path d="M6.49577237,2.8062946 C6.78492374,2.66517852 7.08384631,2.54098254 7.39125109,2.43499563 L8,0 L12,0 L12.6087489,2.43499563 C12.9161537,2.54098254 13.2150763,2.66517852 13.5042276,2.8062946 L15.6568542,1.51471863 L18.4852814,4.34314575 L17.1937054,6.49577237 C17.3348215,6.78492374 17.4590175,7.08384631 17.5650044,7.39125109 L20,8 L20,12 L17.5650044,12.6087489 C17.4590175,12.9161537 17.3348215,13.2150763 17.1937054,13.5042276 L18.4852814,15.6568542 L15.6568542,18.4852814 L13.5042276,17.1937054 C13.2150763,17.3348215 12.9161537,17.4590175 12.6087489,17.5650044 L12,20 L8,20 L7.39125109,17.5650044 C7.08384631,17.4590175 6.78492374,17.3348215 6.49577237,17.1937054 L4.34314575,18.4852814 L1.51471863,15.6568542 L2.8062946,13.5042276 C2.66517852,13.2150763 2.54098254,12.9161537 2.43499563,12.6087489 L7.044814e-16,12 L-3.03066797e-17,8 L2.43499563,7.39125109 C2.54098254,7.08384631 2.66517852,6.78492374 2.8062946,6.49577237 L1.51471863,4.34314575 L4.34314575,1.51471863 L6.49577237,2.8062946 Z" id="Combined-Shape"></path>
                        <circle id="Oval-2" cx="10" cy="10" r="3"></circle>
                    </g>
                </g>
            </g>
            <g id="ic_time" transform="translate(0.000000, 95.000000)" stroke="#FFFFFF" stroke-linecap="round" stroke-linejoin="round">
                <g id="ic_hourglass">
                    <g id="Group" transform="translate(2.000000, 1.000000)" stroke-width="2">
                        <path d="M0,1 L20,1" id="Line"></path>
                        <path d="M0,21 L20,21" id="Line-Copy" transform="translate(10.000000, 21.000000) scale(1, -1) translate(-10.000000, -21.000000) "></path>
                        <path d="M2,1 C2,5.418278 5.581722,9 10,9 L10,9 C14.418278,9 18,5.418278 18,1" id="Oval"></path>
                        <path d="M2,13 C2,17.418278 5.581722,21 10,21 L10,21 C14.418278,21 18,17.418278 18,13" id="Oval-Copy" transform="translate(10.000000, 17.000000) scale(1, -1) translate(-10.000000, -17.000000) "></path>
                    </g>
                </g>
            </g>
            <g id="ic_swipe" transform="translate(48.000000, 95.000000)" stroke="#FFFFFF" stroke-linecap="round" stroke-linejoin="round">
                <g id="Group" transform="translate(2.000000, 3.000000)">
                    <path d="M5.28372067,5 L3.51915442,11.5854509 C3.23217625,12.656468 3.86745308,13.7553949 4.93751068,14.042116 L14,16.4704027 L14,16.9941413 C14,18.1019465 13.1029399,19 11.9941413,19 L2.00585866,19 C0.898053512,19 0,18.1029399 0,16.9941413 L0,7.00585866 C0,5.89805351 0.897060126,5 2.00585866,5 L5.28372067,5 Z" id="Combined-Shape" stroke-width="2"></path>
                    <rect id="Rectangle-Copy-3" stroke-width="2" transform="translate(11.573214, 8.573214) rotate(-345.000000) translate(-11.573214, -8.573214) " x="4.5732141" y="1.5732141" width="14" height="14" rx="2"></rect>
                </g>
            </g>
            <g id="ic_payment" transform="translate(96.000000, 95.000000)" stroke="#FFFFFF" stroke-linecap="round" stroke-linejoin="round">
                <g id="Group">
                    <g transform="translate(2.000000, 5.000000)" stroke-width="2">
                        <rect id="Rectangle-2" x="0" y="0" width="20" height="14"></rect>
                        <path d="M0,5 L20.0249844,5" id="Line"></path>
                        <path d="M16,9 L10,9" id="Line"></path>
                    </g>
                </g>
            </g>
            <g id="ic_past_orders" transform="translate(196.000000, 95.000000)" stroke="#FFFFFF" stroke-linecap="round" stroke-linejoin="round">
                <g id="Group">
                    <g transform="translate(2.000000, 5.000000)" stroke-width="2">
                        <path d="M6,7 L6,0 L6,0 L14,0 L14,1 M14,7 L14,14 L6,14 L6,13" id="Rectangle-2"></path>
                        <polyline id="Path-2" points="17 0 20 4 17 8"></polyline>
                        <path d="M20,4 L10,4" id="Line"></path>
                        <polyline id="Path-2-Copy" transform="translate(1.500000, 10.000000) scale(-1, 1) translate(-1.500000, -10.000000) " points="0 6 3 10 0 14"></polyline>
                        <path d="M10,10 L0,10" id="Line-Copy" transform="translate(5.000000, 10.500000) scale(-1, 1) translate(-5.000000, -10.500000) "></path>
                    </g>
                </g>
            </g>
            <g id="ic_listing" transform="translate(148.000000, 95.000000)" stroke="#FFFFFF" stroke-linecap="round" stroke-linejoin="round">
                <g id="Group">
                    <g transform="translate(2.000000, 2.000000)" stroke-width="2">
                        <rect id="Rectangle-2" x="0" y="0" width="20" height="20" rx="4"></rect>
                        <circle id="Oval" cx="6" cy="6" r="2"></circle>
                        <path d="M12,6 L16,6" id="Line"></path>
                        <path d="M12,14 L16,14" id="Line-Copy"></path>
                        <circle id="Oval-Copy" cx="6" cy="14" r="2"></circle>
                    </g>
                </g>
            </g>
            <g id="ic_search" transform="translate(48.000000, 143.000000)" stroke="#FFFFFF">
                <g id="search">
                    <g transform="translate(4.000000, 4.000000)" stroke-width="2">
                        <circle id="Oval-8" cx="7" cy="7" r="7"></circle>
                        <path d="M16,16 L12.4644661,12.4644661" id="Line" stroke-linecap="round"></path>
                    </g>
                </g>
            </g>
            <g id="ic_username" transform="translate(0.000000, 143.000000)" stroke="#FFFFFF" stroke-linecap="round" stroke-linejoin="round">
                <g id="Profile">
                    <g transform="translate(4.000000, 4.000000)" stroke-width="2">
                        <circle id="Oval" cx="8" cy="4" r="4"></circle>
                        <path d="M16,16 C16,11.581722 12.418278,8 8,8 C3.581722,8 0,11.581722 0,16" id="Oval-2"></path>
                    </g>
                </g>
            </g>
            <g id="ic_chat" transform="translate(96.000000, 143.000000)" stroke="#FFFFFF" stroke-linecap="round" stroke-linejoin="round">
                <g id="message">
                    <g transform="translate(3.000000, 6.000000)" stroke-width="2">
                        <polygon id="Rectangle" points="4 6 0 0 19 0 19 12 4 12"></polygon>
                        <path d="M10,6 L13,6" id="Line"></path>
                    </g>
                </g>
            </g>
            <g id="ic_alerts" transform="translate(148.000000, 143.000000)" stroke="#FFFFFF" stroke-linecap="round" stroke-linejoin="round">
                <g id="Group">
                    <g transform="translate(3.000000, 5.000000)" stroke-width="2">
                        <path d="M3.00000017,4 L7,4 L7,10 L3,10 C1.34314575,10 0,8.65685425 0,7 C0,5.34314575 1.34314575,4 3,4 Z" id="Combined-Shape"></path>
                        <path d="M16,10 C17.6568542,10 19,8.65685425 19,7 C19,5.34314575 17.6568542,4 16,4 L16,10 Z" id="Oval-4"></path>
                        <path d="M4,10 L4,14" id="Line"></path>
                        <polygon id="Path-6" points="7 4 16 0 16 14 7 10"></polygon>
                    </g>
                </g>
            </g>
            <g id="ic_notification" transform="translate(196.000000, 143.000000)" stroke="#FFFFFF" stroke-linecap="round" stroke-linejoin="round">
                <g id="Group">
                    <g transform="translate(4.000000, 2.000000)" stroke-width="2">
                        <path d="M14,16 L16,19 L0,19 L2,16 L2,8 C2,4.6862915 4.6862915,2 8,2 C11.3137085,2 14,4.6862915 14,8 L14,16 Z" id="Combined-Shape"></path>
                        <path d="M8,2 L8,0" id="Line"></path>
                        <path d="M6,19 C6,20.1045695 6.8954305,21 8,21 L8,21 C9.1045695,21 10,20.1045695 10,19" id="Oval-2"></path>
                    </g>
                </g>
            </g>
        </g>
    </g>
</svg>