<?xml version="1.0" encoding="UTF-8"?>
<svg width="48px" height="48px" viewBox="0 0 48 48" version="1.1" xmlns="http://www.w3.org/2000/svg" xmlns:xlink="http://www.w3.org/1999/xlink">
    <!-- Generator: Sketch 46.2 (44496) - http://www.bohemiancoding.com/sketch -->
    <title>ic_linkedin</title>
    <desc>Created with Sketch.</desc>
    <defs></defs>
    <g id="Page-1" stroke="none" stroke-width="1" fill="none" fill-rule="evenodd">
        <g id="ic_linkedin">
            <rect id="Rectangle-4" fill="#FAFAFA" x="0" y="0" width="48" height="48" rx="8"></rect>
            <g transform="translate(12.000000, 12.000000)" id="icon" fill="#171717">
                <g>
                    <g transform="translate(2.000000, 2.000000)" fill-rule="nonzero">
                        <path d="M19.9590255,11.7189327 L19.9590255,19.0979118 L15.6811601,19.0979118 L15.6811601,12.2131323 C15.6811601,10.4836195 15.062413,9.30329466 13.5139675,9.30329466 C12.3319258,9.30329466 11.6284919,10.0987471 11.3190255,10.8682135 C11.2061717,11.1432947 11.177123,11.5261717 11.177123,11.9112297 L11.177123,19.0979118 L6.89781903,19.0979118 C6.89781903,19.0979118 6.95545244,7.43735499 6.89781903,6.22923434 L11.1767053,6.22923434 L11.1767053,8.05331787 C11.1680278,8.06696056 11.1567517,8.08167053 11.1485847,8.09489559 L11.1767053,8.09489559 L11.1767053,8.05331787 C11.7451972,7.17772622 12.760464,5.92691415 15.0329466,5.92691415 C17.8483991,5.92686775 19.9590255,7.76617169 19.9590255,11.7189327 Z M2.42148492,0.0258932715 C0.957540603,0.0258932715 0,0.98612529 0,2.24886311 C0,3.48408353 0.929837587,4.47345708 2.36468677,4.47345708 L2.39327146,4.47345708 C3.88556845,4.47345708 4.81364269,3.48426914 4.81364269,2.24886311 C4.78552204,0.98612529 3.88556845,0.0258932715 2.42148492,0.0258932715 Z M0.254153132,19.0979118 L4.53183295,19.0979118 L4.53183295,6.22923434 L0.254153132,6.22923434 L0.254153132,19.0979118 Z" id="LinkedIn"></path>
                    </g>
                </g>
            </g>
        </g>
    </g>
</svg>