<?xml version="1.0" encoding="UTF-8"?>
<svg width="48px" height="48px" viewBox="0 0 48 48" version="1.1" xmlns="http://www.w3.org/2000/svg" xmlns:xlink="http://www.w3.org/1999/xlink">
    <!-- Generator: Sketch 46.2 (44496) - http://www.bohemiancoding.com/sketch -->
    <title>ic_medium</title>
    <desc>Created with Sketch.</desc>
    <defs></defs>
    <g id="Page-1" stroke="none" stroke-width="1" fill="none" fill-rule="evenodd">
        <g id="ic_medium">
            <rect id="Rectangle-4-Copy" fill="#FAFAFA" x="0" y="0" width="48" height="48" rx="8"></rect>
            <path d="M14.8459384,17.886856 C14.8757565,17.5922425 14.7634076,17.30105 14.5434174,17.102764 L12.302521,14.4032473 L12.302521,14 L19.2605042,14 L24.6386555,25.7949836 L29.3669469,14 L36,14 L36,14.4032473 L34.0840336,16.2402628 C33.9188563,16.3661706 33.8369199,16.5731089 33.8711485,16.7779259 L33.8711485,30.2755093 C33.8369199,30.4803262 33.9188563,30.6872645 34.0840336,30.8131723 L35.9551821,32.6501878 L35.9551821,33.0534351 L26.5434174,33.0534351 L26.5434174,32.6501878 L28.4817928,30.7683671 C28.6722689,30.5779447 28.6722689,30.5219382 28.6722689,30.2307041 L28.6722689,19.3206242 L23.2829132,33.0086299 L22.5546219,33.0086299 L16.280112,19.3206242 L16.280112,28.4945003 C16.2277975,28.8801958 16.3558937,29.2685069 16.627451,29.5474239 L19.1484594,32.6053826 L19.1484594,33.0086299 L12,33.0086299 L12,32.6053826 L14.5210084,29.5474239 C14.7905885,29.2680445 14.9112154,28.8771576 14.8459384,28.4945003 L14.8459384,17.886856 Z" id="Shape" fill="#171717" fill-rule="nonzero"></path>
        </g>
    </g>
</svg>