<?xml version="1.0" encoding="UTF-8"?>
<svg width="371px" height="371px" viewBox="0 0 371 371" version="1.1" xmlns="http://www.w3.org/2000/svg" xmlns:xlink="http://www.w3.org/1999/xlink">
    <!-- Generator: Sketch 52.5 (67469) - http://www.bohemiancoding.com/sketch -->
    <title>img_oyo</title>
    <desc>Created with Sketch.</desc>
    <g id="Page-1" stroke="none" stroke-width="1" fill="none" fill-rule="evenodd">
        <g id="img_oyo">
            <g id="Rectangle-7">
                <g id="path-1-link" fill="#FFFFFF">
                    <rect id="path-1" x="0" y="0" width="370" height="370" rx="8"></rect>
                </g>
                <rect id="Rectangle" stroke="#EEEEEE" x="1" y="1" width="369" height="369" rx="8"></rect>
            </g>
            <path d="M227.237159,144.544669 L197.965448,144.544669 L185.472961,169.457854 L172.975608,144.544669 L143.708763,144.544669 L171.045034,199.055198 L171.045034,224.720027 L199.906296,224.720027 L199.906296,199.055198 L227.237159,144.544669 Z M262.290317,199.61076 C254.286819,199.61076 247.781273,193.058386 247.781273,184.997277 C247.781273,176.936168 254.286819,170.383793 262.290317,170.383793 C270.288407,170.383793 276.804768,176.936168 276.804768,184.997277 C276.804768,193.058386 270.288407,199.61076 262.290317,199.61076 Z M262.290317,144 C239.837261,144 221.580634,162.388044 221.580634,184.997277 C221.580634,207.606509 239.837261,226 262.290317,226 C284.733098,226 303,207.606509 303,184.997277 C303,162.388044 284.733098,144 262.290317,144 Z M108.704276,199.61076 C100.706185,199.61076 94.2006399,193.058386 94.2006399,184.997277 C94.2006399,176.936168 100.706185,170.383793 108.704276,170.383793 C116.707773,170.383793 123.218727,176.936168 123.218727,184.997277 C123.218727,193.058386 116.707773,199.61076 108.704276,199.61076 Z M108.704276,144 C86.2625757,144 68,162.388044 68,184.997277 C68,207.606509 86.2625757,226 108.704276,226 C131.151924,226 149.413959,207.606509 149.413959,184.997277 C149.413959,162.388044 131.151924,144 108.704276,144 L108.704276,144 Z" id="Fill-665" fill="#EE2A24"></path>
        </g>
    </g>
</svg>