<?xml version="1.0" encoding="UTF-8"?>
<svg width="370px" height="370px" viewBox="0 0 370 370" version="1.1" xmlns="http://www.w3.org/2000/svg" xmlns:xlink="http://www.w3.org/1999/xlink">
    <!-- Generator: Sketch 48.2 (47327) - http://www.bohemiancoding.com/sketch -->
    <title>Group 7</title>
    <desc>Created with Sketch.</desc>
    <defs>
        <rect id="path-1" x="0" y="0" width="370" height="370" rx="8"></rect>
    </defs>
    <g id="icons" stroke="none" stroke-width="1" fill="none" fill-rule="evenodd">
        <g id="Group-7">
            <g id="Rectangle-7-Copy-2">
                <use fill="#FFFFFF" fill-rule="evenodd" xlink:href="#path-1"></use>
                <rect stroke="#EEEEEE" stroke-width="1" x="0.5" y="0.5" width="369" height="369" rx="8"></rect>
            </g>
            <g id="Group-4" transform="translate(91.000000, 65.000000)">
                <path d="M92.8850558,227.588829 C62.9164428,227.588829 37.5082709,211.6234 26.5957868,185.883217 C20.0808709,170.73235 20.4066167,157.047696 20.7323625,142.711392 C20.7323625,140.593529 20.8952354,138.475666 20.8952354,136.357803 L20.8952354,128.538 L20.8952354,21.6673689 C20.8952354,17.1058175 22.0353457,13.0330038 24.4784391,9.44892778 C28.0616429,4.0728137 34.4136858,0.651650192 41.0914746,0.651650192 C50.8638484,0.651650192 61.2877138,7.98271485 61.2877138,21.6673689 L61.2877138,151.182844 C61.2877138,156.070221 61.2877138,159.81721 62.2649512,163.07546 C65.0337905,174.316426 76.2720204,181.484578 86.0443942,183.439529 C87.5102502,183.765354 88.4874876,183.928267 89.3018521,184.254092 C90.9305811,184.742829 91.5820727,184.905742 94.5137848,184.905742 C102.65743,184.905742 117.31599,183.276616 124.319525,172.361476 C130.997314,161.935073 130.834441,152.323232 130.508695,137.661103 C130.508695,134.89159 130.345822,131.633339 130.345822,128.049263 L130.345822,22.4819316 C130.345822,8.79727759 140.769688,1.46621293 150.542061,1.46621293 C157.21985,1.46621293 163.571893,4.88737644 167.31797,10.4264031 C169.59819,13.8475666 170.738301,18.0832928 170.738301,22.4819316 L170.738301,149.879544 C170.738301,175.945552 160.477308,198.590396 142.398417,212.112137 C129.042839,221.88689 111.12682,227.588829 92.8850558,227.588829 L92.8850558,227.588829 Z" id="Shape" fill="#00AEEF"></path>
                <path d="M92.2335643,238.341058 C55.0985438,238.341058 25.4556765,221.23524 12.7515906,192.399719 C3.79358122,171.709826 3.95645412,150.368282 4.28219992,129.678388 C4.28219992,126.257225 4.44507281,122.673149 4.44507281,119.251985 L4.44507281,23.9481445 C4.44507281,13.0330038 12.4258448,7.33106466 20.4066167,7.33106466 C28.3873887,7.33106466 36.3681606,13.0330038 36.3681606,23.9481445 L36.3681606,148.739156 C36.3681606,155.907308 36.5310335,161.446335 37.8340167,167.148274 C42.5573307,185.39448 55.5871624,198.101658 73.8289269,201.848647 C80.3438428,203.151947 87.3473774,203.96651 94.0251661,203.96651 C107.217871,203.96651 131.160187,201.196997 143.375654,182.624966 C154.288138,166.170799 153.962392,150.531194 153.473774,130.981689 C153.310901,127.071787 153.310901,122.836061 153.310901,118.600335 L153.310901,25.0885324 C153.310901,14.1733917 161.291673,8.47145249 169.272445,8.47145249 C177.253216,8.47145249 185.233988,14.1733917 185.233988,25.0885324 L185.233988,147.435856 C185.233988,178.063415 173.018521,204.61816 151.682172,220.257765 C136.209246,231.661643 114.384278,238.341058 92.2335643,238.341058 L92.2335643,238.341058 Z" id="Shape" fill="#F15A29"></path>
            </g>
        </g>
    </g>
</svg>