<svg width="79" height="16" viewBox="0 0 79 16" fill="none" xmlns="http://www.w3.org/2000/svg">
<path d="M70.9683 8.90527C69.1368 8.90527 67.8631 10.1263 67.8525 12.2105V16H63.3683V0H67.7262V8.24212H67.9157C68.6525 6.33685 70.2946 5.17895 72.7473 5.17895C76.1157 5.17895 78.3473 7.47369 78.3368 11.2632V16H73.8526V12.0632C73.8631 10.0737 72.7894 8.90527 70.9683 8.90527Z" fill="#171717"/>
<path d="M0 16C0.509103 13.2176 3.11546 12.3274 5.98405 12.0632C8.79458 11.7895 9.89984 11.6526 9.89984 10.6105V10.5474C9.89984 9.22106 9.02616 8.45264 7.49984 8.45264C5.88931 8.45264 4.93142 9.24212 4.62615 10.3158L0.478779 9.97896C1.09983 7.03159 3.6472 5.17895 7.52089 5.17895C11.1209 5.17895 14.3841 6.80001 14.3841 10.6526V16H9.92338C9.92872 15.9271 9.93142 15.8534 9.93142 15.779V14.0632C9.39458 14.4211 7.79458 14.6527 6.81563 14.7895C5.66709 14.9503 4.80261 15.3227 4.41665 16H0Z" fill="#171717"/>
<path d="M17.863 16V5.38948H22.2104V8.21054H22.3788C22.9683 6.21053 24.4525 5.1579 26.263 5.1579C26.7157 5.1579 27.2735 5.22106 27.6736 5.3158V9.29475C27.2525 9.15791 26.3999 9.05264 25.7788 9.05264C23.7999 9.05264 22.3472 10.4211 22.3472 12.4105V16H17.863Z" fill="#171717"/>
<path d="M28.8606 16C29.3697 13.2176 31.976 12.3274 34.8446 12.0632C37.6551 11.7895 38.7604 11.6526 38.7604 10.6105V10.5474C38.7604 9.22106 37.8867 8.45264 36.3604 8.45264C34.7499 8.45264 33.792 9.24212 33.4867 10.3158L29.3393 9.97896C29.9604 7.03159 32.5078 5.17895 36.3815 5.17895C39.9815 5.17895 43.2446 6.80001 43.2446 10.6526V16H38.7839C38.7893 15.9271 38.792 15.8534 38.792 15.779V14.0632C38.2551 14.4211 36.6551 14.6527 35.6762 14.7895C34.5277 14.9503 33.6632 15.3227 33.2772 16H28.8606Z" fill="#171717"/>
<path d="M55.4743 16C55.1348 15.7329 54.6206 15.5321 53.9131 15.3895L51.1131 14.8316C47.9552 14.2 46.4288 12.6316 46.4394 10.2105C46.4288 7.09475 49.1552 5.17895 53.292 5.17895C57.3762 5.17895 59.7762 7.02106 60.1762 10L56.071 10.2526C55.8499 9.21054 54.9236 8.35791 53.3657 8.35791C51.9762 8.35791 50.8815 8.98949 50.892 9.95791C50.8815 10.7369 51.4394 11.2526 52.9446 11.579L55.871 12.1684C58.7547 12.7587 60.2773 13.9896 60.5124 16H55.4743Z" fill="#171717"/>
</svg>
