<svg width="120" height="120" viewBox="0 0 120 120" fill="none" xmlns="http://www.w3.org/2000/svg">
<path fill-rule="evenodd" clip-rule="evenodd" d="M60 120C93.1371 120 120 93.1371 120 60C120 26.8629 93.1371 0 60 0C26.8629 0 0 26.8629 0 60C0 93.1371 26.8629 120 60 120ZM24.944 67.664C25.904 68.08 26.952 68.288 28.088 68.288C30.072 68.288 31.576 67.776 32.6 66.752C33.624 65.712 34.136 64.16 34.136 62.096V51.2H24.368V54.32H30.272V62.312C30.272 64.168 29.48 65.096 27.896 65.096C26.728 65.096 25.688 64.48 24.776 63.248L22.616 65.84C23.224 66.624 24 67.232 24.944 67.664ZM42.2243 66.296C43.5683 67.624 45.4403 68.288 47.8403 68.288C50.2403 68.288 52.1043 67.624 53.4323 66.296C54.7763 64.968 55.4483 63.072 55.4483 60.608V51.2H51.6083V60.464C51.6083 62.016 51.2883 63.16 50.6483 63.896C50.0083 64.616 49.0803 64.976 47.8643 64.976C45.3683 64.976 44.1203 63.472 44.1203 60.464V51.2H40.2323V60.608C40.2323 63.072 40.8963 64.968 42.2243 66.296ZM77.0984 51.2V68H73.9064L65.5304 57.8V68H61.6904V51.2H64.9064L73.2584 61.4V51.2H77.0984ZM96.4812 68V64.88H87.3372V60.992H95.1372V57.968H87.3372V54.32H96.1692V51.2H83.4732V68H96.4812ZM65.3041 36.848C65.8174 37.0813 66.2094 37.3987 66.4801 37.8C66.7601 38.192 66.9001 38.654 66.9001 39.186C66.9001 39.7833 66.7321 40.306 66.3961 40.754C66.0694 41.202 65.6028 41.5473 64.9961 41.79C64.3894 42.0233 63.6848 42.14 62.8821 42.14C62.0794 42.14 61.3748 42.0233 60.7681 41.79C60.1708 41.5473 59.7088 41.202 59.3821 40.754C59.0554 40.306 58.8921 39.7833 58.8921 39.186C58.8921 38.654 59.0274 38.192 59.2981 37.8C59.5688 37.3987 59.9561 37.0813 60.4601 36.848C60.0681 36.6333 59.7648 36.3533 59.5501 36.008C59.3448 35.6533 59.2421 35.2473 59.2421 34.79C59.2421 34.2393 59.3914 33.7587 59.6901 33.348C59.9981 32.9373 60.4274 32.62 60.9781 32.396C61.5288 32.172 62.1634 32.06 62.8821 32.06C63.6101 32.06 64.2494 32.172 64.8001 32.396C65.3508 32.62 65.7801 32.9373 66.0881 33.348C66.3961 33.7587 66.5501 34.2393 66.5501 34.79C66.5501 35.2473 66.4428 35.6487 66.2281 35.994C66.0134 36.3393 65.7054 36.624 65.3041 36.848ZM62.8821 33.488C62.3128 33.488 61.8601 33.6093 61.5241 33.852C61.1974 34.0947 61.0341 34.4353 61.0341 34.874C61.0341 35.294 61.1974 35.63 61.5241 35.882C61.8601 36.1247 62.3128 36.246 62.8821 36.246C63.4608 36.246 63.9181 36.1247 64.2541 35.882C64.5901 35.63 64.7581 35.294 64.7581 34.874C64.7581 34.4353 64.5854 34.0947 64.2401 33.852C63.9041 33.6093 63.4514 33.488 62.8821 33.488ZM62.8821 40.712C63.5541 40.712 64.0861 40.572 64.4781 40.292C64.8701 40.012 65.0661 39.6247 65.0661 39.13C65.0661 38.6447 64.8701 38.262 64.4781 37.982C64.0861 37.702 63.5541 37.562 62.8821 37.562C62.2101 37.562 61.6828 37.702 61.3001 37.982C60.9174 38.262 60.7261 38.6447 60.7261 39.13C60.7261 39.6247 60.9174 40.012 61.3001 40.292C61.6828 40.572 62.2101 40.712 62.8821 40.712ZM57.0041 32.2V42H55.1841V33.726H53.1121V32.2H57.0041ZM52.7141 88V86.46H48.0941L50.7121 83.968C51.3467 83.3707 51.7761 82.8387 52.0001 82.372C52.2241 81.9053 52.3361 81.406 52.3361 80.874C52.3361 80.006 52.0187 79.32 51.3841 78.816C50.7494 78.312 49.9001 78.06 48.8361 78.06C48.0334 78.06 47.3054 78.2047 46.6521 78.494C46.0081 78.774 45.4947 79.1707 45.1121 79.684L46.3861 80.664C46.9181 79.9827 47.6834 79.642 48.6821 79.642C49.2794 79.642 49.7321 79.7633 50.0401 80.006C50.3481 80.2487 50.5021 80.5987 50.5021 81.056C50.5021 81.364 50.4227 81.6767 50.2641 81.994C50.1147 82.302 49.8207 82.666 49.3821 83.086L45.4901 86.782V88H52.7141ZM55.7115 87.552C56.3275 87.944 57.0275 88.14 57.8115 88.14C58.5955 88.14 59.2955 87.944 59.9115 87.552C60.5368 87.1507 61.0268 86.572 61.3815 85.816C61.7361 85.0507 61.9135 84.1453 61.9135 83.1C61.9135 82.0547 61.7361 81.154 61.3815 80.398C61.0268 79.6327 60.5368 79.054 59.9115 78.662C59.2955 78.2607 58.5955 78.06 57.8115 78.06C57.0275 78.06 56.3275 78.2607 55.7115 78.662C55.0955 79.054 54.6101 79.6327 54.2555 80.398C53.9008 81.154 53.7235 82.0547 53.7235 83.1C53.7235 84.1453 53.9008 85.0507 54.2555 85.816C54.6101 86.572 55.0955 87.1507 55.7115 87.552ZM59.4635 85.69C59.0621 86.2687 58.5115 86.558 57.8115 86.558C57.1208 86.558 56.5701 86.2687 56.1595 85.69C55.7581 85.1113 55.5575 84.248 55.5575 83.1C55.5575 81.952 55.7581 81.0887 56.1595 80.51C56.5701 79.9313 57.1208 79.642 57.8115 79.642C58.5115 79.642 59.0621 79.9313 59.4635 80.51C59.8741 81.0887 60.0795 81.952 60.0795 83.1C60.0795 84.248 59.8741 85.1113 59.4635 85.69ZM70.173 86.46V88H62.949V86.782L66.841 83.086C67.2797 82.666 67.5737 82.302 67.723 81.994C67.8817 81.6767 67.961 81.364 67.961 81.056C67.961 80.5987 67.807 80.2487 67.499 80.006C67.191 79.7633 66.7384 79.642 66.141 79.642C65.1424 79.642 64.377 79.9827 63.845 80.664L62.571 79.684C62.9537 79.1707 63.467 78.774 64.111 78.494C64.7644 78.2047 65.4924 78.06 66.295 78.06C67.359 78.06 68.2084 78.312 68.843 78.816C69.4777 79.32 69.795 80.006 69.795 80.874C69.795 81.406 69.683 81.9053 69.459 82.372C69.235 82.8387 68.8057 83.3707 68.171 83.968L65.553 86.46H70.173ZM72.7915 88H74.6115V78.2H70.7195V79.726H72.7915V88Z" fill="#171717"/>
</svg>
