<?xml version="1.0" encoding="UTF-8"?>
<svg width="555px" height="417px" viewBox="0 0 555 417" version="1.1" xmlns="http://www.w3.org/2000/svg" xmlns:xlink="http://www.w3.org/1999/xlink">
    <!-- Generator: Sketch 63.1 (92452) - https://sketch.com -->
    <title>moredribbble</title>
    <desc>Created with Sketch.</desc>
    <defs>
        <path d="M38.192,85.08 C38.5333333,85.08 38.8613333,85.0293333 39.176,84.928 C39.4906667,84.8266667 39.7546667,84.68 39.968,84.488 L39.968,84.488 L39.568,83.672 C39.408,83.8106667 39.2186667,83.9173333 39,83.992 C38.7813333,84.0666667 38.5546667,84.104 38.32,84.104 C37.8506667,84.104 37.4906667,83.9733333 37.24,83.712 C36.9893333,83.4506667 36.864,83.0693333 36.864,82.568 L36.864,82.568 L36.864,77.544 L39.424,77.544 L39.424,76.584 L36.864,76.584 L36.864,74.744 L35.728,74.744 L35.728,76.584 L34.224,76.584 L34.224,77.544 L35.728,77.544 L35.728,82.632 C35.728,83.4106667 35.9413333,84.0133333 36.368,84.44 C36.7946667,84.8666667 37.4026667,85.08 38.192,85.08 Z M44.4,85.08 C45.0826667,85.08 45.672,84.9573333 46.168,84.712 C46.664,84.4666667 47.04,84.1253333 47.296,83.688 L47.296,83.688 L47.296,85 L48.384,85 L48.384,79.784 C48.384,78.7066667 48.0906667,77.8933333 47.504,77.344 C46.9173333,76.7946667 46.0746667,76.52 44.976,76.52 C44.3146667,76.52 43.6853333,76.6186667 43.088,76.816 C42.4906667,77.0133333 41.9786667,77.2933333 41.552,77.656 L41.552,77.656 L42.064,78.504 C42.416,78.1946667 42.8373333,77.952 43.328,77.776 C43.8186667,77.6 44.3306667,77.512 44.864,77.512 C45.6426667,77.512 46.2346667,77.7013333 46.64,78.08 C47.0453333,78.4586667 47.248,79.0106667 47.248,79.736 L47.248,79.736 L47.248,80.248 L44.576,80.248 C43.4453333,80.248 42.6213333,80.4666667 42.104,80.904 C41.5866667,81.3413333 41.328,81.9173333 41.328,82.632 C41.328,83.368 41.6053333,83.96 42.16,84.408 C42.7146667,84.856 43.4613333,85.08 44.4,85.08 Z M44.576,84.184 C43.904,84.184 43.3813333,84.0426667 43.008,83.76 C42.6346667,83.4773333 42.448,83.0906667 42.448,82.6 C42.448,81.5973333 43.168,81.096 44.608,81.096 L44.608,81.096 L47.248,81.096 L47.248,82.472 C47.024,83.0266667 46.6826667,83.4506667 46.224,83.744 C45.7653333,84.0373333 45.216,84.184 44.576,84.184 Z M52.608,85 L52.608,82.6 L54.592,80.776 L57.984,85 L59.376,85 L55.44,80.024 L59.04,76.584 L57.632,76.584 L52.608,81.176 L52.608,73.128 L51.472,73.128 L51.472,85 L52.608,85 Z M64.32,85.08 C64.992,85.08 65.608,84.9626667 66.168,84.728 C66.728,84.4933333 67.1946667,84.152 67.568,83.704 L67.568,83.704 L66.928,82.968 C66.608,83.3306667 66.2293333,83.6053333 65.792,83.792 C65.3546667,83.9786667 64.8746667,84.072 64.352,84.072 C63.424,84.072 62.656,83.8026667 62.048,83.264 C61.44,82.7253333 61.104,82.0186667 61.04,81.144 L61.04,81.144 L68.08,81.144 L68.096,80.792 C68.096,79.96 67.92,79.2213333 67.568,78.576 C67.216,77.9306667 66.7306667,77.4266667 66.112,77.064 C65.4933333,76.7013333 64.7946667,76.52 64.016,76.52 C63.2373333,76.52 62.536,76.7013333 61.912,77.064 C61.288,77.4266667 60.7973333,77.9333333 60.44,78.584 C60.0826667,79.2346667 59.904,79.9706667 59.904,80.792 C59.904,81.6133333 60.0906667,82.3493333 60.464,83 C60.8373333,83.6506667 61.3573333,84.16 62.024,84.528 C62.6906667,84.896 63.456,85.08 64.32,85.08 Z M67.008,80.296 L61.04,80.296 C61.1146667,79.464 61.4266667,78.7893333 61.976,78.272 C62.5253333,77.7546667 63.2053333,77.496 64.016,77.496 C64.8373333,77.496 65.5226667,77.7546667 66.072,78.272 C66.6213333,78.7893333 66.9333333,79.464 67.008,80.296 L67.008,80.296 Z M76.976,85.08 C77.6586667,85.08 78.248,84.9573333 78.744,84.712 C79.24,84.4666667 79.616,84.1253333 79.872,83.688 L79.872,83.688 L79.872,85 L80.96,85 L80.96,79.784 C80.96,78.7066667 80.6666667,77.8933333 80.08,77.344 C79.4933333,76.7946667 78.6506667,76.52 77.552,76.52 C76.8906667,76.52 76.2613333,76.6186667 75.664,76.816 C75.0666667,77.0133333 74.5546667,77.2933333 74.128,77.656 L74.128,77.656 L74.64,78.504 C74.992,78.1946667 75.4133333,77.952 75.904,77.776 C76.3946667,77.6 76.9066667,77.512 77.44,77.512 C78.2186667,77.512 78.8106667,77.7013333 79.216,78.08 C79.6213333,78.4586667 79.824,79.0106667 79.824,79.736 L79.824,79.736 L79.824,80.248 L77.152,80.248 C76.0213333,80.248 75.1973333,80.4666667 74.68,80.904 C74.1626667,81.3413333 73.904,81.9173333 73.904,82.632 C73.904,83.368 74.1813333,83.96 74.736,84.408 C75.2906667,84.856 76.0373333,85.08 76.976,85.08 Z M77.152,84.184 C76.48,84.184 75.9573333,84.0426667 75.584,83.76 C75.2106667,83.4773333 75.024,83.0906667 75.024,82.6 C75.024,81.5973333 75.744,81.096 77.184,81.096 L77.184,81.096 L79.824,81.096 L79.824,82.472 C79.6,83.0266667 79.2586667,83.4506667 78.8,83.744 C78.3413333,84.0373333 77.792,84.184 77.152,84.184 Z M89.376,85 L89.376,73.128 L88.24,73.128 L88.24,85 L89.376,85 Z M95.984,85.08 C96.7946667,85.08 97.5253333,84.896 98.176,84.528 C98.8266667,84.16 99.336,83.6506667 99.704,83 C100.072,82.3493333 100.256,81.6133333 100.256,80.792 C100.256,79.9706667 100.072,79.2346667 99.704,78.584 C99.336,77.9333333 98.8266667,77.4266667 98.176,77.064 C97.5253333,76.7013333 96.7946667,76.52 95.984,76.52 C95.1733333,76.52 94.4426667,76.7013333 93.792,77.064 C93.1413333,77.4266667 92.6293333,77.9333333 92.256,78.584 C91.8826667,79.2346667 91.696,79.9706667 91.696,80.792 C91.696,81.6133333 91.8826667,82.3493333 92.256,83 C92.6293333,83.6506667 93.1413333,84.16 93.792,84.528 C94.4426667,84.896 95.1733333,85.08 95.984,85.08 Z M95.984,84.072 C95.3866667,84.072 94.8506667,83.936 94.376,83.664 C93.9013333,83.392 93.528,83.0053333 93.256,82.504 C92.984,82.0026667 92.848,81.432 92.848,80.792 C92.848,80.152 92.984,79.5813333 93.256,79.08 C93.528,78.5786667 93.9013333,78.192 94.376,77.92 C94.8506667,77.648 95.3866667,77.512 95.984,77.512 C96.5813333,77.512 97.1173333,77.648 97.592,77.92 C98.0666667,78.192 98.4373333,78.5786667 98.704,79.08 C98.9706667,79.5813333 99.104,80.152 99.104,80.792 C99.104,81.432 98.9706667,82.0026667 98.704,82.504 C98.4373333,83.0053333 98.0666667,83.392 97.592,83.664 C97.1173333,83.936 96.5813333,84.072 95.984,84.072 Z M106.016,85.08 C106.826667,85.08 107.557333,84.896 108.208,84.528 C108.858667,84.16 109.368,83.6506667 109.736,83 C110.104,82.3493333 110.288,81.6133333 110.288,80.792 C110.288,79.9706667 110.104,79.2346667 109.736,78.584 C109.368,77.9333333 108.858667,77.4266667 108.208,77.064 C107.557333,76.7013333 106.826667,76.52 106.016,76.52 C105.205333,76.52 104.474667,76.7013333 103.824,77.064 C103.173333,77.4266667 102.661333,77.9333333 102.288,78.584 C101.914667,79.2346667 101.728,79.9706667 101.728,80.792 C101.728,81.6133333 101.914667,82.3493333 102.288,83 C102.661333,83.6506667 103.173333,84.16 103.824,84.528 C104.474667,84.896 105.205333,85.08 106.016,85.08 Z M106.016,84.072 C105.418667,84.072 104.882667,83.936 104.408,83.664 C103.933333,83.392 103.56,83.0053333 103.288,82.504 C103.016,82.0026667 102.88,81.432 102.88,80.792 C102.88,80.152 103.016,79.5813333 103.288,79.08 C103.56,78.5786667 103.933333,78.192 104.408,77.92 C104.882667,77.648 105.418667,77.512 106.016,77.512 C106.613333,77.512 107.149333,77.648 107.624,77.92 C108.098667,78.192 108.469333,78.5786667 108.736,79.08 C109.002667,79.5813333 109.136,80.152 109.136,80.792 C109.136,81.432 109.002667,82.0026667 108.736,82.504 C108.469333,83.0053333 108.098667,83.392 107.624,83.664 C107.149333,83.936 106.613333,84.072 106.016,84.072 Z M113.744,85 L113.744,82.6 L115.728,80.776 L119.12,85 L120.512,85 L116.576,80.024 L120.176,76.584 L118.768,76.584 L113.744,81.176 L113.744,73.128 L112.608,73.128 L112.608,85 L113.744,85 Z M128.784,85.08 C129.466667,85.08 130.056,84.9573333 130.552,84.712 C131.048,84.4666667 131.424,84.1253333 131.68,83.688 L131.68,83.688 L131.68,85 L132.768,85 L132.768,79.784 C132.768,78.7066667 132.474667,77.8933333 131.888,77.344 C131.301333,76.7946667 130.458667,76.52 129.36,76.52 C128.698667,76.52 128.069333,76.6186667 127.472,76.816 C126.874667,77.0133333 126.362667,77.2933333 125.936,77.656 L125.936,77.656 L126.448,78.504 C126.8,78.1946667 127.221333,77.952 127.712,77.776 C128.202667,77.6 128.714667,77.512 129.248,77.512 C130.026667,77.512 130.618667,77.7013333 131.024,78.08 C131.429333,78.4586667 131.632,79.0106667 131.632,79.736 L131.632,79.736 L131.632,80.248 L128.96,80.248 C127.829333,80.248 127.005333,80.4666667 126.488,80.904 C125.970667,81.3413333 125.712,81.9173333 125.712,82.632 C125.712,83.368 125.989333,83.96 126.544,84.408 C127.098667,84.856 127.845333,85.08 128.784,85.08 Z M128.96,84.184 C128.288,84.184 127.765333,84.0426667 127.392,83.76 C127.018667,83.4773333 126.832,83.0906667 126.832,82.6 C126.832,81.5973333 127.552,81.096 128.992,81.096 L128.992,81.096 L131.632,81.096 L131.632,82.472 C131.408,83.0266667 131.066667,83.4506667 130.608,83.744 C130.149333,84.0373333 129.6,84.184 128.96,84.184 Z M138.512,85.08 C138.853333,85.08 139.181333,85.0293333 139.496,84.928 C139.810667,84.8266667 140.074667,84.68 140.288,84.488 L140.288,84.488 L139.888,83.672 C139.728,83.8106667 139.538667,83.9173333 139.32,83.992 C139.101333,84.0666667 138.874667,84.104 138.64,84.104 C138.170667,84.104 137.810667,83.9733333 137.56,83.712 C137.309333,83.4506667 137.184,83.0693333 137.184,82.568 L137.184,82.568 L137.184,77.544 L139.744,77.544 L139.744,76.584 L137.184,76.584 L137.184,74.744 L136.048,74.744 L136.048,76.584 L134.544,76.584 L134.544,77.544 L136.048,77.544 L136.048,82.632 C136.048,83.4106667 136.261333,84.0133333 136.688,84.44 C137.114667,84.8666667 137.722667,85.08 138.512,85.08 Z M149.2,85.08 C149.541333,85.08 149.869333,85.0293333 150.184,84.928 C150.498667,84.8266667 150.762667,84.68 150.976,84.488 L150.976,84.488 L150.576,83.672 C150.416,83.8106667 150.226667,83.9173333 150.008,83.992 C149.789333,84.0666667 149.562667,84.104 149.328,84.104 C148.858667,84.104 148.498667,83.9733333 148.248,83.712 C147.997333,83.4506667 147.872,83.0693333 147.872,82.568 L147.872,82.568 L147.872,77.544 L150.432,77.544 L150.432,76.584 L147.872,76.584 L147.872,74.744 L146.736,74.744 L146.736,76.584 L145.232,76.584 L145.232,77.544 L146.736,77.544 L146.736,82.632 C146.736,83.4106667 146.949333,84.0133333 147.376,84.44 C147.802667,84.8666667 148.410667,85.08 149.2,85.08 Z M154.176,85 L154.176,80.584 C154.176,79.6346667 154.44,78.8906667 154.968,78.352 C155.496,77.8133333 156.213333,77.544 157.12,77.544 C157.930667,77.544 158.554667,77.7733333 158.992,78.232 C159.429333,78.6906667 159.648,79.3573333 159.648,80.232 L159.648,80.232 L159.648,85 L160.784,85 L160.784,80.12 C160.784,78.9466667 160.472,78.0533333 159.848,77.44 C159.224,76.8266667 158.384,76.52 157.328,76.52 C156.624,76.52 156,76.6533333 155.456,76.92 C154.912,77.1866667 154.485333,77.5653333 154.176,78.056 L154.176,78.056 L154.176,73.128 L153.04,73.128 L153.04,85 L154.176,85 Z M167.472,85.08 C168.144,85.08 168.76,84.9626667 169.32,84.728 C169.88,84.4933333 170.346667,84.152 170.72,83.704 L170.72,83.704 L170.08,82.968 C169.76,83.3306667 169.381333,83.6053333 168.944,83.792 C168.506667,83.9786667 168.026667,84.072 167.504,84.072 C166.576,84.072 165.808,83.8026667 165.2,83.264 C164.592,82.7253333 164.256,82.0186667 164.192,81.144 L164.192,81.144 L171.232,81.144 L171.248,80.792 C171.248,79.96 171.072,79.2213333 170.72,78.576 C170.368,77.9306667 169.882667,77.4266667 169.264,77.064 C168.645333,76.7013333 167.946667,76.52 167.168,76.52 C166.389333,76.52 165.688,76.7013333 165.064,77.064 C164.44,77.4266667 163.949333,77.9333333 163.592,78.584 C163.234667,79.2346667 163.056,79.9706667 163.056,80.792 C163.056,81.6133333 163.242667,82.3493333 163.616,83 C163.989333,83.6506667 164.509333,84.16 165.176,84.528 C165.842667,84.896 166.608,85.08 167.472,85.08 Z M170.16,80.296 L164.192,80.296 C164.266667,79.464 164.578667,78.7893333 165.128,78.272 C165.677333,77.7546667 166.357333,77.496 167.168,77.496 C167.989333,77.496 168.674667,77.7546667 169.224,78.272 C169.773333,78.7893333 170.085333,79.464 170.16,80.296 L170.16,80.296 Z M178.336,74.744 C178.570667,74.744 178.768,74.664 178.928,74.504 C179.088,74.344 179.168,74.1466667 179.168,73.912 C179.168,73.6986667 179.088,73.5146667 178.928,73.36 C178.768,73.2053333 178.570667,73.128 178.336,73.128 C178.101333,73.128 177.904,73.208 177.744,73.368 C177.584,73.528 177.504,73.7146667 177.504,73.928 C177.504,74.152 177.584,74.344 177.744,74.504 C177.904,74.664 178.101333,74.744 178.336,74.744 Z M178.896,85 L178.896,76.584 L177.76,76.584 L177.76,85 L178.896,85 Z M183.2,85 L183.2,80.584 C183.2,79.6346667 183.464,78.8906667 183.992,78.352 C184.52,77.8133333 185.237333,77.544 186.144,77.544 C186.954667,77.544 187.578667,77.7733333 188.016,78.232 C188.453333,78.6906667 188.672,79.3573333 188.672,80.232 L188.672,80.232 L188.672,85 L189.808,85 L189.808,80.12 C189.808,78.9466667 189.496,78.0533333 188.872,77.44 C188.248,76.8266667 187.408,76.52 186.352,76.52 C185.626667,76.52 184.989333,76.6613333 184.44,76.944 C183.890667,77.2266667 183.461333,77.624 183.152,78.136 L183.152,78.136 L183.152,76.584 L182.064,76.584 L182.064,85 L183.2,85 Z M195.552,85.08 C195.893333,85.08 196.221333,85.0293333 196.536,84.928 C196.850667,84.8266667 197.114667,84.68 197.328,84.488 L197.328,84.488 L196.928,83.672 C196.768,83.8106667 196.578667,83.9173333 196.36,83.992 C196.141333,84.0666667 195.914667,84.104 195.68,84.104 C195.210667,84.104 194.850667,83.9733333 194.6,83.712 C194.349333,83.4506667 194.224,83.0693333 194.224,82.568 L194.224,82.568 L194.224,77.544 L196.784,77.544 L196.784,76.584 L194.224,76.584 L194.224,74.744 L193.088,74.744 L193.088,76.584 L191.584,76.584 L191.584,77.544 L193.088,77.544 L193.088,82.632 C193.088,83.4106667 193.301333,84.0133333 193.728,84.44 C194.154667,84.8666667 194.762667,85.08 195.552,85.08 Z M202.656,85.08 C203.328,85.08 203.944,84.9626667 204.504,84.728 C205.064,84.4933333 205.530667,84.152 205.904,83.704 L205.904,83.704 L205.264,82.968 C204.944,83.3306667 204.565333,83.6053333 204.128,83.792 C203.690667,83.9786667 203.210667,84.072 202.688,84.072 C201.76,84.072 200.992,83.8026667 200.384,83.264 C199.776,82.7253333 199.44,82.0186667 199.376,81.144 L199.376,81.144 L206.416,81.144 L206.432,80.792 C206.432,79.96 206.256,79.2213333 205.904,78.576 C205.552,77.9306667 205.066667,77.4266667 204.448,77.064 C203.829333,76.7013333 203.130667,76.52 202.352,76.52 C201.573333,76.52 200.872,76.7013333 200.248,77.064 C199.624,77.4266667 199.133333,77.9333333 198.776,78.584 C198.418667,79.2346667 198.24,79.9706667 198.24,80.792 C198.24,81.6133333 198.426667,82.3493333 198.8,83 C199.173333,83.6506667 199.693333,84.16 200.36,84.528 C201.026667,84.896 201.792,85.08 202.656,85.08 Z M205.344,80.296 L199.376,80.296 C199.450667,79.464 199.762667,78.7893333 200.312,78.272 C200.861333,77.7546667 201.541333,77.496 202.352,77.496 C203.173333,77.496 203.858667,77.7546667 204.408,78.272 C204.957333,78.7893333 205.269333,79.464 205.344,80.296 L205.344,80.296 Z M209.888,85 L209.888,80.712 C209.888,79.7306667 210.138667,78.968 210.64,78.424 C211.141333,77.88 211.834667,77.608 212.72,77.608 L212.72,77.608 L212.992,77.624 L212.992,76.52 C212.213333,76.52 211.56,76.664 211.032,76.952 C210.504,77.24 210.106667,77.6666667 209.84,78.232 L209.84,78.232 L209.84,76.584 L208.752,76.584 L208.752,85 L209.888,85 Z M216.496,85 L216.496,77.544 L219.056,77.544 L219.056,76.584 L216.464,76.584 L216.464,75.592 C216.464,75.0693333 216.589333,74.6746667 216.84,74.408 C217.090667,74.1413333 217.461333,74.008 217.952,74.008 C218.453333,74.008 218.869333,74.1466667 219.2,74.424 L219.2,74.424 L219.584,73.576 C219.381333,73.4053333 219.130667,73.2746667 218.832,73.184 C218.533333,73.0933333 218.224,73.048 217.904,73.048 C217.093333,73.048 216.466667,73.272 216.024,73.72 C215.581333,74.168 215.36,74.776 215.36,75.544 L215.36,75.544 L215.36,76.584 L213.856,76.584 L213.856,77.544 L215.36,77.544 L215.36,85 L216.496,85 Z M222.8,85.08 C223.482667,85.08 224.072,84.9573333 224.568,84.712 C225.064,84.4666667 225.44,84.1253333 225.696,83.688 L225.696,83.688 L225.696,85 L226.784,85 L226.784,79.784 C226.784,78.7066667 226.490667,77.8933333 225.904,77.344 C225.317333,76.7946667 224.474667,76.52 223.376,76.52 C222.714667,76.52 222.085333,76.6186667 221.488,76.816 C220.890667,77.0133333 220.378667,77.2933333 219.952,77.656 L219.952,77.656 L220.464,78.504 C220.816,78.1946667 221.237333,77.952 221.728,77.776 C222.218667,77.6 222.730667,77.512 223.264,77.512 C224.042667,77.512 224.634667,77.7013333 225.04,78.08 C225.445333,78.4586667 225.648,79.0106667 225.648,79.736 L225.648,79.736 L225.648,80.248 L222.976,80.248 C221.845333,80.248 221.021333,80.4666667 220.504,80.904 C219.986667,81.3413333 219.728,81.9173333 219.728,82.632 C219.728,83.368 220.005333,83.96 220.56,84.408 C221.114667,84.856 221.861333,85.08 222.8,85.08 Z M222.976,84.184 C222.304,84.184 221.781333,84.0426667 221.408,83.76 C221.034667,83.4773333 220.848,83.0906667 220.848,82.6 C220.848,81.5973333 221.568,81.096 223.008,81.096 L223.008,81.096 L225.648,81.096 L225.648,82.472 C225.424,83.0266667 225.082667,83.4506667 224.624,83.744 C224.165333,84.0373333 223.616,84.184 222.976,84.184 Z M233.392,85.08 C234.106667,85.08 234.752,84.9386667 235.328,84.656 C235.904,84.3733333 236.357333,83.96 236.688,83.416 L236.688,83.416 L235.84,82.84 C235.562667,83.256 235.210667,83.5653333 234.784,83.768 C234.357333,83.9706667 233.893333,84.072 233.392,84.072 C232.784,84.072 232.237333,83.936 231.752,83.664 C231.266667,83.392 230.888,83.008 230.616,82.512 C230.344,82.016 230.208,81.4426667 230.208,80.792 C230.208,80.152 230.344,79.5813333 230.616,79.08 C230.888,78.5786667 231.266667,78.192 231.752,77.92 C232.237333,77.648 232.784,77.512 233.392,77.512 C233.893333,77.512 234.357333,77.616 234.784,77.824 C235.210667,78.032 235.562667,78.344 235.84,78.76 L235.84,78.76 L236.688,78.184 C236.357333,77.64 235.906667,77.2266667 235.336,76.944 C234.765333,76.6613333 234.117333,76.52 233.392,76.52 C232.56,76.52 231.816,76.7013333 231.16,77.064 C230.504,77.4266667 229.989333,77.9333333 229.616,78.584 C229.242667,79.2346667 229.056,79.9706667 229.056,80.792 C229.056,81.6133333 229.242667,82.352 229.616,83.008 C229.989333,83.664 230.504,84.1733333 231.16,84.536 C231.816,84.8986667 232.56,85.08 233.392,85.08 Z M242.336,85.08 C243.008,85.08 243.624,84.9626667 244.184,84.728 C244.744,84.4933333 245.210667,84.152 245.584,83.704 L245.584,83.704 L244.944,82.968 C244.624,83.3306667 244.245333,83.6053333 243.808,83.792 C243.370667,83.9786667 242.890667,84.072 242.368,84.072 C241.44,84.072 240.672,83.8026667 240.064,83.264 C239.456,82.7253333 239.12,82.0186667 239.056,81.144 L239.056,81.144 L246.096,81.144 L246.112,80.792 C246.112,79.96 245.936,79.2213333 245.584,78.576 C245.232,77.9306667 244.746667,77.4266667 244.128,77.064 C243.509333,76.7013333 242.810667,76.52 242.032,76.52 C241.253333,76.52 240.552,76.7013333 239.928,77.064 C239.304,77.4266667 238.813333,77.9333333 238.456,78.584 C238.098667,79.2346667 237.92,79.9706667 237.92,80.792 C237.92,81.6133333 238.106667,82.3493333 238.48,83 C238.853333,83.6506667 239.373333,84.16 240.04,84.528 C240.706667,84.896 241.472,85.08 242.336,85.08 Z M245.024,80.296 L239.056,80.296 C239.130667,79.464 239.442667,78.7893333 239.992,78.272 C240.541333,77.7546667 241.221333,77.496 242.032,77.496 C242.853333,77.496 243.538667,77.7546667 244.088,78.272 C244.637333,78.7893333 244.949333,79.464 245.024,80.296 L245.024,80.296 Z M250.688,85.08 C251.776,85.08 252.626667,84.864 253.24,84.432 C253.853333,84 254.16,83.416 254.16,82.68 C254.16,82.136 254.016,81.7093333 253.728,81.4 C253.44,81.0906667 253.093333,80.872 252.688,80.744 C252.282667,80.616 251.744,80.488 251.072,80.36 C250.528,80.264 250.101333,80.1706667 249.792,80.08 C249.482667,79.9893333 249.224,79.848 249.016,79.656 C248.808,79.464 248.704,79.208 248.704,78.888 C248.704,78.472 248.888,78.136 249.256,77.88 C249.624,77.624 250.170667,77.496 250.896,77.496 C251.856,77.496 252.682667,77.736 253.376,78.216 L253.376,78.216 L253.872,77.304 C253.52,77.0693333 253.072,76.88 252.528,76.736 C251.984,76.592 251.44,76.52 250.896,76.52 C249.850667,76.52 249.034667,76.744 248.448,77.192 C247.861333,77.64 247.568,78.216 247.568,78.92 C247.568,79.4853333 247.714667,79.928 248.008,80.248 C248.301333,80.568 248.656,80.7946667 249.072,80.928 C249.488,81.0613333 250.037333,81.192 250.72,81.32 C251.232,81.4053333 251.642667,81.4933333 251.952,81.584 C252.261333,81.6746667 252.517333,81.808 252.72,81.984 C252.922667,82.16 253.024,82.4026667 253.024,82.712 C253.024,83.1493333 252.84,83.488 252.472,83.728 C252.104,83.968 251.536,84.088 250.768,84.088 C250.192,84.088 249.637333,84 249.104,83.824 C248.570667,83.648 248.128,83.4213333 247.776,83.144 L247.776,83.144 L247.264,84.04 C247.616,84.3386667 248.104,84.5866667 248.728,84.784 C249.352,84.9813333 250.005333,85.08 250.688,85.08 Z M264.784,85.08 C265.573333,85.08 266.288,84.8986667 266.928,84.536 C267.568,84.1733333 268.069333,83.6666667 268.432,83.016 C268.794667,82.3653333 268.976,81.624 268.976,80.792 C268.976,79.96 268.794667,79.2186667 268.432,78.568 C268.069333,77.9173333 267.568,77.4133333 266.928,77.056 C266.288,76.6986667 265.573333,76.52 264.784,76.52 C264.101333,76.52 263.485333,76.6613333 262.936,76.944 C262.386667,77.2266667 261.936,77.64 261.584,78.184 L261.584,78.184 L261.584,73.128 L260.448,73.128 L260.448,85 L261.536,85 L261.536,83.336 C261.877333,83.9013333 262.328,84.3333333 262.888,84.632 C263.448,84.9306667 264.08,85.08 264.784,85.08 Z M264.704,84.072 C264.106667,84.072 263.570667,83.936 263.096,83.664 C262.621333,83.392 262.248,83.0053333 261.976,82.504 C261.704,82.0026667 261.568,81.432 261.568,80.792 C261.568,80.152 261.704,79.5813333 261.976,79.08 C262.248,78.5786667 262.621333,78.192 263.096,77.92 C263.570667,77.648 264.106667,77.512 264.704,77.512 C265.290667,77.512 265.824,77.648 266.304,77.92 C266.784,78.192 267.16,78.5786667 267.432,79.08 C267.704,79.5813333 267.84,80.152 267.84,80.792 C267.84,81.432 267.704,82.0026667 267.432,82.504 C267.16,83.0053333 266.784,83.392 266.304,83.664 C265.824,83.936 265.290667,84.072 264.704,84.072 Z M274.768,85.08 C275.44,85.08 276.037333,84.9386667 276.56,84.656 C277.082667,84.3733333 277.493333,83.976 277.792,83.464 L277.792,83.464 L277.792,85 L278.88,85 L278.88,76.584 L277.744,76.584 L277.744,81 C277.744,81.96 277.488,82.7093333 276.976,83.248 C276.464,83.7866667 275.765333,84.056 274.88,84.056 C274.069333,84.056 273.445333,83.8266667 273.008,83.368 C272.570667,82.9093333 272.352,82.2373333 272.352,81.352 L272.352,81.352 L272.352,76.584 L271.216,76.584 L271.216,81.464 C271.216,82.648 271.533333,83.5466667 272.168,84.16 C272.802667,84.7733333 273.669333,85.08 274.768,85.08 Z M282.64,74.744 C282.874667,74.744 283.072,74.664 283.232,74.504 C283.392,74.344 283.472,74.1466667 283.472,73.912 C283.472,73.6986667 283.392,73.5146667 283.232,73.36 C283.072,73.2053333 282.874667,73.128 282.64,73.128 C282.405333,73.128 282.208,73.208 282.048,73.368 C281.888,73.528 281.808,73.7146667 281.808,73.928 C281.808,74.152 281.888,74.344 282.048,74.504 C282.208,74.664 282.405333,74.744 282.64,74.744 Z M283.2,85 L283.2,76.584 L282.064,76.584 L282.064,85 L283.2,85 Z M287.504,85 L287.504,73.128 L286.368,73.128 L286.368,85 L287.504,85 Z M294.016,85.08 C294.72,85.08 295.352,84.9306667 295.912,84.632 C296.472,84.3333333 296.922667,83.9013333 297.264,83.336 L297.264,83.336 L297.264,85 L298.352,85 L298.352,73.128 L297.216,73.128 L297.216,78.184 C296.864,77.64 296.413333,77.2266667 295.864,76.944 C295.314667,76.6613333 294.698667,76.52 294.016,76.52 C293.226667,76.52 292.512,76.6986667 291.872,77.056 C291.232,77.4133333 290.730667,77.9173333 290.368,78.568 C290.005333,79.2186667 289.824,79.96 289.824,80.792 C289.824,81.624 290.005333,82.3653333 290.368,83.016 C290.730667,83.6666667 291.232,84.1733333 291.872,84.536 C292.512,84.8986667 293.226667,85.08 294.016,85.08 Z M294.112,84.072 C293.514667,84.072 292.978667,83.936 292.504,83.664 C292.029333,83.392 291.656,83.0053333 291.384,82.504 C291.112,82.0026667 290.976,81.432 290.976,80.792 C290.976,80.152 291.112,79.5813333 291.384,79.08 C291.656,78.5786667 292.029333,78.192 292.504,77.92 C292.978667,77.648 293.514667,77.512 294.112,77.512 C294.698667,77.512 295.229333,77.648 295.704,77.92 C296.178667,78.192 296.552,78.5786667 296.824,79.08 C297.096,79.5813333 297.232,80.152 297.232,80.792 C297.232,81.432 297.096,82.0026667 296.824,82.504 C296.552,83.0053333 296.178667,83.392 295.704,83.664 C295.229333,83.936 294.698667,84.072 294.112,84.072 Z M309.152,85.08 C309.962667,85.08 310.693333,84.896 311.344,84.528 C311.994667,84.16 312.504,83.6506667 312.872,83 C313.24,82.3493333 313.424,81.6133333 313.424,80.792 C313.424,79.9706667 313.24,79.2346667 312.872,78.584 C312.504,77.9333333 311.994667,77.4266667 311.344,77.064 C310.693333,76.7013333 309.962667,76.52 309.152,76.52 C308.341333,76.52 307.610667,76.7013333 306.96,77.064 C306.309333,77.4266667 305.797333,77.9333333 305.424,78.584 C305.050667,79.2346667 304.864,79.9706667 304.864,80.792 C304.864,81.6133333 305.050667,82.3493333 305.424,83 C305.797333,83.6506667 306.309333,84.16 306.96,84.528 C307.610667,84.896 308.341333,85.08 309.152,85.08 Z M309.152,84.072 C308.554667,84.072 308.018667,83.936 307.544,83.664 C307.069333,83.392 306.696,83.0053333 306.424,82.504 C306.152,82.0026667 306.016,81.432 306.016,80.792 C306.016,80.152 306.152,79.5813333 306.424,79.08 C306.696,78.5786667 307.069333,78.192 307.544,77.92 C308.018667,77.648 308.554667,77.512 309.152,77.512 C309.749333,77.512 310.285333,77.648 310.76,77.92 C311.234667,78.192 311.605333,78.5786667 311.872,79.08 C312.138667,79.5813333 312.272,80.152 312.272,80.792 C312.272,81.432 312.138667,82.0026667 311.872,82.504 C311.605333,83.0053333 311.234667,83.392 310.76,83.664 C310.285333,83.936 309.749333,84.072 309.152,84.072 Z M316.88,85 L316.88,80.584 C316.88,79.6346667 317.144,78.8906667 317.672,78.352 C318.2,77.8133333 318.917333,77.544 319.824,77.544 C320.634667,77.544 321.258667,77.7733333 321.696,78.232 C322.133333,78.6906667 322.352,79.3573333 322.352,80.232 L322.352,80.232 L322.352,85 L323.488,85 L323.488,80.12 C323.488,78.9466667 323.176,78.0533333 322.552,77.44 C321.928,76.8266667 321.088,76.52 320.032,76.52 C319.306667,76.52 318.669333,76.6613333 318.12,76.944 C317.570667,77.2266667 317.141333,77.624 316.832,78.136 L316.832,78.136 L316.832,76.584 L315.744,76.584 L315.744,85 L316.88,85 Z M334.112,85.08 C334.816,85.08 335.448,84.9306667 336.008,84.632 C336.568,84.3333333 337.018667,83.9013333 337.36,83.336 L337.36,83.336 L337.36,85 L338.448,85 L338.448,73.128 L337.312,73.128 L337.312,78.184 C336.96,77.64 336.509333,77.2266667 335.96,76.944 C335.410667,76.6613333 334.794667,76.52 334.112,76.52 C333.322667,76.52 332.608,76.6986667 331.968,77.056 C331.328,77.4133333 330.826667,77.9173333 330.464,78.568 C330.101333,79.2186667 329.92,79.96 329.92,80.792 C329.92,81.624 330.101333,82.3653333 330.464,83.016 C330.826667,83.6666667 331.328,84.1733333 331.968,84.536 C332.608,84.8986667 333.322667,85.08 334.112,85.08 Z M334.208,84.072 C333.610667,84.072 333.074667,83.936 332.6,83.664 C332.125333,83.392 331.752,83.0053333 331.48,82.504 C331.208,82.0026667 331.072,81.432 331.072,80.792 C331.072,80.152 331.208,79.5813333 331.48,79.08 C331.752,78.5786667 332.125333,78.192 332.6,77.92 C333.074667,77.648 333.610667,77.512 334.208,77.512 C334.794667,77.512 335.325333,77.648 335.8,77.92 C336.274667,78.192 336.648,78.5786667 336.92,79.08 C337.192,79.5813333 337.328,80.152 337.328,80.792 C337.328,81.432 337.192,82.0026667 336.92,82.504 C336.648,83.0053333 336.274667,83.392 335.8,83.664 C335.325333,83.936 334.794667,84.072 334.208,84.072 Z M342.752,85 L342.752,80.712 C342.752,79.7306667 343.002667,78.968 343.504,78.424 C344.005333,77.88 344.698667,77.608 345.584,77.608 L345.584,77.608 L345.856,77.624 L345.856,76.52 C345.077333,76.52 344.424,76.664 343.896,76.952 C343.368,77.24 342.970667,77.6666667 342.704,78.232 L342.704,78.232 L342.704,76.584 L341.616,76.584 L341.616,85 L342.752,85 Z M348.48,74.744 C348.714667,74.744 348.912,74.664 349.072,74.504 C349.232,74.344 349.312,74.1466667 349.312,73.912 C349.312,73.6986667 349.232,73.5146667 349.072,73.36 C348.912,73.2053333 348.714667,73.128 348.48,73.128 C348.245333,73.128 348.048,73.208 347.888,73.368 C347.728,73.528 347.648,73.7146667 347.648,73.928 C347.648,74.152 347.728,74.344 347.888,74.504 C348.048,74.664 348.245333,74.744 348.48,74.744 Z M349.04,85 L349.04,76.584 L347.904,76.584 L347.904,85 L349.04,85 Z M356.544,85.08 C357.333333,85.08 358.048,84.8986667 358.688,84.536 C359.328,84.1733333 359.829333,83.6666667 360.192,83.016 C360.554667,82.3653333 360.736,81.624 360.736,80.792 C360.736,79.96 360.554667,79.2186667 360.192,78.568 C359.829333,77.9173333 359.328,77.4133333 358.688,77.056 C358.048,76.6986667 357.333333,76.52 356.544,76.52 C355.861333,76.52 355.245333,76.6613333 354.696,76.944 C354.146667,77.2266667 353.696,77.64 353.344,78.184 L353.344,78.184 L353.344,73.128 L352.208,73.128 L352.208,85 L353.296,85 L353.296,83.336 C353.637333,83.9013333 354.088,84.3333333 354.648,84.632 C355.208,84.9306667 355.84,85.08 356.544,85.08 Z M356.464,84.072 C355.866667,84.072 355.330667,83.936 354.856,83.664 C354.381333,83.392 354.008,83.0053333 353.736,82.504 C353.464,82.0026667 353.328,81.432 353.328,80.792 C353.328,80.152 353.464,79.5813333 353.736,79.08 C354.008,78.5786667 354.381333,78.192 354.856,77.92 C355.330667,77.648 355.866667,77.512 356.464,77.512 C357.050667,77.512 357.584,77.648 358.064,77.92 C358.544,78.192 358.92,78.5786667 359.192,79.08 C359.464,79.5813333 359.6,80.152 359.6,80.792 C359.6,81.432 359.464,82.0026667 359.192,82.504 C358.92,83.0053333 358.544,83.392 358.064,83.664 C357.584,83.936 357.050667,84.072 356.464,84.072 Z M367.392,85.08 C368.181333,85.08 368.896,84.8986667 369.536,84.536 C370.176,84.1733333 370.677333,83.6666667 371.04,83.016 C371.402667,82.3653333 371.584,81.624 371.584,80.792 C371.584,79.96 371.402667,79.2186667 371.04,78.568 C370.677333,77.9173333 370.176,77.4133333 369.536,77.056 C368.896,76.6986667 368.181333,76.52 367.392,76.52 C366.709333,76.52 366.093333,76.6613333 365.544,76.944 C364.994667,77.2266667 364.544,77.64 364.192,78.184 L364.192,78.184 L364.192,73.128 L363.056,73.128 L363.056,85 L364.144,85 L364.144,83.336 C364.485333,83.9013333 364.936,84.3333333 365.496,84.632 C366.056,84.9306667 366.688,85.08 367.392,85.08 Z M367.312,84.072 C366.714667,84.072 366.178667,83.936 365.704,83.664 C365.229333,83.392 364.856,83.0053333 364.584,82.504 C364.312,82.0026667 364.176,81.432 364.176,80.792 C364.176,80.152 364.312,79.5813333 364.584,79.08 C364.856,78.5786667 365.229333,78.192 365.704,77.92 C366.178667,77.648 366.714667,77.512 367.312,77.512 C367.898667,77.512 368.432,77.648 368.912,77.92 C369.392,78.192 369.768,78.5786667 370.04,79.08 C370.312,79.5813333 370.448,80.152 370.448,80.792 C370.448,81.432 370.312,82.0026667 370.04,82.504 C369.768,83.0053333 369.392,83.392 368.912,83.664 C368.432,83.936 367.898667,84.072 367.312,84.072 Z M378.24,85.08 C379.029333,85.08 379.744,84.8986667 380.384,84.536 C381.024,84.1733333 381.525333,83.6666667 381.888,83.016 C382.250667,82.3653333 382.432,81.624 382.432,80.792 C382.432,79.96 382.250667,79.2186667 381.888,78.568 C381.525333,77.9173333 381.024,77.4133333 380.384,77.056 C379.744,76.6986667 379.029333,76.52 378.24,76.52 C377.557333,76.52 376.941333,76.6613333 376.392,76.944 C375.842667,77.2266667 375.392,77.64 375.04,78.184 L375.04,78.184 L375.04,73.128 L373.904,73.128 L373.904,85 L374.992,85 L374.992,83.336 C375.333333,83.9013333 375.784,84.3333333 376.344,84.632 C376.904,84.9306667 377.536,85.08 378.24,85.08 Z M378.16,84.072 C377.562667,84.072 377.026667,83.936 376.552,83.664 C376.077333,83.392 375.704,83.0053333 375.432,82.504 C375.16,82.0026667 375.024,81.432 375.024,80.792 C375.024,80.152 375.16,79.5813333 375.432,79.08 C375.704,78.5786667 376.077333,78.192 376.552,77.92 C377.026667,77.648 377.562667,77.512 378.16,77.512 C378.746667,77.512 379.28,77.648 379.76,77.92 C380.24,78.192 380.616,78.5786667 380.888,79.08 C381.16,79.5813333 381.296,80.152 381.296,80.792 C381.296,81.432 381.16,82.0026667 380.888,82.504 C380.616,83.0053333 380.24,83.392 379.76,83.664 C379.28,83.936 378.746667,84.072 378.16,84.072 Z M385.888,85 L385.888,73.128 L384.752,73.128 L384.752,85 L385.888,85 Z M392.624,85.08 C393.296,85.08 393.912,84.9626667 394.472,84.728 C395.032,84.4933333 395.498667,84.152 395.872,83.704 L395.872,83.704 L395.232,82.968 C394.912,83.3306667 394.533333,83.6053333 394.096,83.792 C393.658667,83.9786667 393.178667,84.072 392.656,84.072 C391.728,84.072 390.96,83.8026667 390.352,83.264 C389.744,82.7253333 389.408,82.0186667 389.344,81.144 L389.344,81.144 L396.384,81.144 L396.4,80.792 C396.4,79.96 396.224,79.2213333 395.872,78.576 C395.52,77.9306667 395.034667,77.4266667 394.416,77.064 C393.797333,76.7013333 393.098667,76.52 392.32,76.52 C391.541333,76.52 390.84,76.7013333 390.216,77.064 C389.592,77.4266667 389.101333,77.9333333 388.744,78.584 C388.386667,79.2346667 388.208,79.9706667 388.208,80.792 C388.208,81.6133333 388.394667,82.3493333 388.768,83 C389.141333,83.6506667 389.661333,84.16 390.328,84.528 C390.994667,84.896 391.76,85.08 392.624,85.08 Z M395.312,80.296 L389.344,80.296 C389.418667,79.464 389.730667,78.7893333 390.28,78.272 C390.829333,77.7546667 391.509333,77.496 392.32,77.496 C393.141333,77.496 393.826667,77.7546667 394.376,78.272 C394.925333,78.7893333 395.237333,79.464 395.312,80.296 L395.312,80.296 Z" id="path-1"></path>
        <path d="M10.944,46 L10.944,33.04 C10.944,30.8 11.456,29.112 12.48,27.976 C13.504,26.84 14.88,26.272 16.608,26.272 C19.872,26.272 21.504,28.304 21.504,32.368 L21.504,32.368 L21.504,46 L28.992,46 L28.992,33.04 C28.992,30.8 29.504,29.112 30.528,27.976 C31.552,26.84 32.944,26.272 34.704,26.272 C36.272,26.272 37.48,26.776 38.328,27.784 C39.176,28.792 39.6,30.32 39.6,32.368 L39.6,32.368 L39.6,46 L47.088,46 L47.088,31.216 C47.088,27.408 46.136,24.552 44.232,22.648 C42.328,20.744 39.76,19.792 36.528,19.792 C34.608,19.792 32.84,20.16 31.224,20.896 C29.608,21.632 28.272,22.672 27.216,24.016 C26.32,22.64 25.136,21.592 23.664,20.872 C22.192,20.152 20.544,19.792 18.72,19.792 C17.056,19.792 15.528,20.08 14.136,20.656 C12.744,21.232 11.568,22.064 10.608,23.152 L10.608,23.152 L10.608,20.176 L3.456,20.176 L3.456,46 L10.944,46 Z M66.384,46.384 C69.104,46.384 71.536,45.816 73.68,44.68 C75.824,43.544 77.504,41.968 78.72,39.952 C79.936,37.936 80.544,35.648 80.544,33.088 C80.544,30.528 79.936,28.24 78.72,26.224 C77.504,24.208 75.824,22.632 73.68,21.496 C71.536,20.36 69.104,19.792 66.384,19.792 C63.664,19.792 61.224,20.36 59.064,21.496 C56.904,22.632 55.216,24.208 54,26.224 C52.784,28.24 52.176,30.528 52.176,33.088 C52.176,35.648 52.784,37.936 54,39.952 C55.216,41.968 56.904,43.544 59.064,44.68 C61.224,45.816 63.664,46.384 66.384,46.384 Z M66.384,40.24 C64.464,40.24 62.88,39.592 61.632,38.296 C60.384,37 59.76,35.264 59.76,33.088 C59.76,30.912 60.384,29.176 61.632,27.88 C62.88,26.584 64.464,25.936 66.384,25.936 C68.304,25.936 69.88,26.584 71.112,27.88 C72.344,29.176 72.96,30.912 72.96,33.088 C72.96,35.264 72.344,37 71.112,38.296 C69.88,39.592 68.304,40.24 66.384,40.24 Z M93.024,46 L93.024,33.808 C93.024,31.408 93.632,29.608 94.848,28.408 C96.064,27.208 97.744,26.608 99.888,26.608 C100.176,26.608 100.736,26.64 101.568,26.704 L101.568,26.704 L101.568,19.792 C99.584,19.792 97.832,20.112 96.312,20.752 C94.792,21.392 93.584,22.336 92.688,23.584 L92.688,23.584 L92.688,20.176 L85.536,20.176 L85.536,46 L93.024,46 Z M118.608,46.384 C123.28,46.384 126.832,44.992 129.264,42.208 L129.264,42.208 L125.28,37.888 C124.384,38.752 123.416,39.384 122.376,39.784 C121.336,40.184 120.144,40.384 118.8,40.384 C116.848,40.384 115.216,39.92 113.904,38.992 C112.592,38.064 111.76,36.8 111.408,35.2 L111.408,35.2 L130.944,35.2 C131.04,33.952 131.088,33.28 131.088,33.184 C131.088,30.496 130.504,28.136 129.336,26.104 C128.168,24.072 126.56,22.512 124.512,21.424 C122.464,20.336 120.176,19.792 117.648,19.792 C115.056,19.792 112.712,20.36 110.616,21.496 C108.52,22.632 106.872,24.216 105.672,26.248 C104.472,28.28 103.872,30.56 103.872,33.088 C103.872,35.648 104.48,37.936 105.696,39.952 C106.912,41.968 108.64,43.544 110.88,44.68 C113.12,45.816 115.696,46.384 118.608,46.384 Z M124.032,30.832 L111.312,30.832 C111.568,29.168 112.272,27.856 113.424,26.896 C114.576,25.936 116,25.456 117.696,25.456 C119.36,25.456 120.768,25.944 121.92,26.92 C123.072,27.896 123.776,29.2 124.032,30.832 L124.032,30.832 Z M161.952,46.384 C164.672,46.384 167.104,45.816 169.248,44.68 C171.392,43.544 173.072,41.968 174.288,39.952 C175.504,37.936 176.112,35.648 176.112,33.088 C176.112,30.528 175.504,28.24 174.288,26.224 C173.072,24.208 171.392,22.632 169.248,21.496 C167.104,20.36 164.672,19.792 161.952,19.792 C159.232,19.792 156.792,20.36 154.632,21.496 C152.472,22.632 150.784,24.208 149.568,26.224 C148.352,28.24 147.744,30.528 147.744,33.088 C147.744,35.648 148.352,37.936 149.568,39.952 C150.784,41.968 152.472,43.544 154.632,44.68 C156.792,45.816 159.232,46.384 161.952,46.384 Z M161.952,40.24 C160.032,40.24 158.448,39.592 157.2,38.296 C155.952,37 155.328,35.264 155.328,33.088 C155.328,30.912 155.952,29.176 157.2,27.88 C158.448,26.584 160.032,25.936 161.952,25.936 C163.872,25.936 165.448,26.584 166.68,27.88 C167.912,29.176 168.528,30.912 168.528,33.088 C168.528,35.264 167.912,37 166.68,38.296 C165.448,39.592 163.872,40.24 161.952,40.24 Z M188.592,46 L188.592,33.232 C188.592,30.928 189.152,29.192 190.272,28.024 C191.392,26.856 192.896,26.272 194.784,26.272 C196.48,26.272 197.776,26.776 198.672,27.784 C199.568,28.792 200.016,30.32 200.016,32.368 L200.016,32.368 L200.016,46 L207.504,46 L207.504,31.216 C207.504,27.44 206.52,24.592 204.552,22.672 C202.584,20.752 200,19.792 196.8,19.792 C195.04,19.792 193.424,20.088 191.952,20.68 C190.48,21.272 189.248,22.112 188.256,23.2 L188.256,23.2 L188.256,20.176 L181.104,20.176 L181.104,46 L188.592,46 Z M238.944,46.384 C242.464,46.384 245.152,45.264 247.008,43.024 L247.008,43.024 L247.008,46 L254.16,46 L254.16,10.384 L246.672,10.384 L246.672,22.912 C244.816,20.832 242.24,19.792 238.944,19.792 C236.512,19.792 234.312,20.336 232.344,21.424 C230.376,22.512 228.832,24.064 227.712,26.08 C226.592,28.096 226.032,30.432 226.032,33.088 C226.032,35.744 226.592,38.08 227.712,40.096 C228.832,42.112 230.376,43.664 232.344,44.752 C234.312,45.84 236.512,46.384 238.944,46.384 Z M240.24,40.24 C238.32,40.24 236.736,39.592 235.488,38.296 C234.24,37 233.616,35.264 233.616,33.088 C233.616,30.912 234.24,29.176 235.488,27.88 C236.736,26.584 238.32,25.936 240.24,25.936 C242.128,25.936 243.696,26.584 244.944,27.88 C246.192,29.176 246.816,30.912 246.816,33.088 C246.816,35.264 246.192,37 244.944,38.296 C243.696,39.592 242.128,40.24 240.24,40.24 Z M268.56,46 L268.56,33.808 C268.56,31.408 269.168,29.608 270.384,28.408 C271.6,27.208 273.28,26.608 275.424,26.608 C275.712,26.608 276.272,26.64 277.104,26.704 L277.104,26.704 L277.104,19.792 C275.12,19.792 273.368,20.112 271.848,20.752 C270.328,21.392 269.12,22.336 268.224,23.584 L268.224,23.584 L268.224,20.176 L261.072,20.176 L261.072,46 L268.56,46 Z M285.312,16.576 C286.688,16.576 287.808,16.168 288.672,15.352 C289.536,14.536 289.968,13.504 289.968,12.256 C289.968,11.104 289.536,10.144 288.672,9.376 C287.808,8.608 286.688,8.224 285.312,8.224 C283.936,8.224 282.816,8.624 281.952,9.424 C281.088,10.224 280.656,11.216 280.656,12.4 C280.656,13.584 281.088,14.576 281.952,15.376 C282.816,16.176 283.936,16.576 285.312,16.576 Z M289.056,46 L289.056,20.176 L281.568,20.176 L281.568,46 L289.056,46 Z M311.28,46.384 C313.68,46.384 315.864,45.832 317.832,44.728 C319.8,43.624 321.344,42.072 322.464,40.072 C323.584,38.072 324.144,35.744 324.144,33.088 C324.144,30.432 323.584,28.104 322.464,26.104 C321.344,24.104 319.8,22.552 317.832,21.448 C315.864,20.344 313.68,19.792 311.28,19.792 C307.984,19.792 305.392,20.832 303.504,22.912 L303.504,22.912 L303.504,10.384 L296.016,10.384 L296.016,46 L303.168,46 L303.168,43.024 C305.024,45.264 307.728,46.384 311.28,46.384 Z M309.984,40.24 C308.064,40.24 306.488,39.592 305.256,38.296 C304.024,37 303.408,35.264 303.408,33.088 C303.408,30.912 304.024,29.176 305.256,27.88 C306.488,26.584 308.064,25.936 309.984,25.936 C311.904,25.936 313.48,26.584 314.712,27.88 C315.944,29.176 316.56,30.912 316.56,33.088 C316.56,35.264 315.944,37 314.712,38.296 C313.48,39.592 311.904,40.24 309.984,40.24 Z M344.4,46.384 C346.8,46.384 348.984,45.832 350.952,44.728 C352.92,43.624 354.464,42.072 355.584,40.072 C356.704,38.072 357.264,35.744 357.264,33.088 C357.264,30.432 356.704,28.104 355.584,26.104 C354.464,24.104 352.92,22.552 350.952,21.448 C348.984,20.344 346.8,19.792 344.4,19.792 C341.104,19.792 338.512,20.832 336.624,22.912 L336.624,22.912 L336.624,10.384 L329.136,10.384 L329.136,46 L336.288,46 L336.288,43.024 C338.144,45.264 340.848,46.384 344.4,46.384 Z M343.104,40.24 C341.184,40.24 339.608,39.592 338.376,38.296 C337.144,37 336.528,35.264 336.528,33.088 C336.528,30.912 337.144,29.176 338.376,27.88 C339.608,26.584 341.184,25.936 343.104,25.936 C345.024,25.936 346.6,26.584 347.832,27.88 C349.064,29.176 349.68,30.912 349.68,33.088 C349.68,35.264 349.064,37 347.832,38.296 C346.6,39.592 345.024,40.24 343.104,40.24 Z M377.52,46.384 C379.92,46.384 382.104,45.832 384.072,44.728 C386.04,43.624 387.584,42.072 388.704,40.072 C389.824,38.072 390.384,35.744 390.384,33.088 C390.384,30.432 389.824,28.104 388.704,26.104 C387.584,24.104 386.04,22.552 384.072,21.448 C382.104,20.344 379.92,19.792 377.52,19.792 C374.224,19.792 371.632,20.832 369.744,22.912 L369.744,22.912 L369.744,10.384 L362.256,10.384 L362.256,46 L369.408,46 L369.408,43.024 C371.264,45.264 373.968,46.384 377.52,46.384 Z M376.224,40.24 C374.304,40.24 372.728,39.592 371.496,38.296 C370.264,37 369.648,35.264 369.648,33.088 C369.648,30.912 370.264,29.176 371.496,27.88 C372.728,26.584 374.304,25.936 376.224,25.936 C378.144,25.936 379.72,26.584 380.952,27.88 C382.184,29.176 382.8,30.912 382.8,33.088 C382.8,35.264 382.184,37 380.952,38.296 C379.72,39.592 378.144,40.24 376.224,40.24 Z M402.864,46 L402.864,10.384 L395.376,10.384 L395.376,46 L402.864,46 Z M422.64,46.384 C427.312,46.384 430.864,44.992 433.296,42.208 L433.296,42.208 L429.312,37.888 C428.416,38.752 427.448,39.384 426.408,39.784 C425.368,40.184 424.176,40.384 422.832,40.384 C420.88,40.384 419.248,39.92 417.936,38.992 C416.624,38.064 415.792,36.8 415.44,35.2 L415.44,35.2 L434.976,35.2 C435.072,33.952 435.12,33.28 435.12,33.184 C435.12,30.496 434.536,28.136 433.368,26.104 C432.2,24.072 430.592,22.512 428.544,21.424 C426.496,20.336 424.208,19.792 421.68,19.792 C419.088,19.792 416.744,20.36 414.648,21.496 C412.552,22.632 410.904,24.216 409.704,26.248 C408.504,28.28 407.904,30.56 407.904,33.088 C407.904,35.648 408.512,37.936 409.728,39.952 C410.944,41.968 412.672,43.544 414.912,44.68 C417.152,45.816 419.728,46.384 422.64,46.384 Z M428.064,30.832 L415.344,30.832 C415.6,29.168 416.304,27.856 417.456,26.896 C418.608,25.936 420.032,25.456 421.728,25.456 C423.392,25.456 424.8,25.944 425.952,26.92 C427.104,27.896 427.808,29.2 428.064,30.832 L428.064,30.832 Z" id="path-2"></path>
    </defs>
    <g id="Page-1" stroke="none" stroke-width="1" fill="none" fill-rule="evenodd">
        <g id="moredribbble" fill-rule="nonzero">
            <rect id="Rectangle" fill="#171717" x="0" y="0" width="555" height="416.25" rx="8"></rect>
            <g id="Group-2" transform="translate(59.000000, 125.000000)">
                <g id="takealookattheinterfacesbuildondribbble">
                    <use fill="#000000" xlink:href="#path-1"></use>
                    <use fill="#FFFFFF" xlink:href="#path-1"></use>
                </g>
                <g id="ic_dribbble" transform="translate(194.000000, 126.000000)">
                    <rect id="Rectangle-4-Copy" fill="#FAFAFA" x="0" y="0" width="48" height="48" rx="8"></rect>
                    <g id="dribbble" transform="translate(14.000000, 14.000000)" fill="#171717">
                        <path d="M9.98300469,0 C4.46953052,0 0,4.46953052 0,9.98300469 C0,15.4964789 4.46953052,19.9660094 9.98300469,19.9660094 C15.4964789,19.9660094 19.9660094,15.4964789 19.9660094,9.98300469 C19.9660094,4.46953052 15.4964319,0 9.98300469,0 Z M18.0562911,9.26511737 C16.9966197,9.22253521 14.9915023,9.2214554 12.7130047,9.61985915 C12.5071831,9.12638498 12.2969484,8.65314554 12.0856808,8.20159624 C12.2176526,8.14 12.3485446,8.07737089 12.4769484,8.01267606 C14.0419249,7.22399061 15.3415493,6.20370892 16.3544131,4.97211268 C17.330939,6.20873239 17.9189671,7.6900939 18.0562911,9.26511737 Z M15.0215023,3.63366197 C14.0761033,4.83793427 12.8159624,5.80478873 11.2504695,6.52741784 C11.0743662,6.19558685 10.9007981,5.87995305 10.7323474,5.58366197 C9.87065728,4.06821596 9.0484507,2.86211268 8.43338028,2.02539906 C8.93868545,1.92812207 9.45694836,1.87793427 9.98300469,1.87793427 C11.8358685,1.87793427 13.5934742,2.49596244 15.0215023,3.63366197 Z M4.25183099,4.25183099 C4.92802817,3.5756338 5.70276995,3.03389671 6.54356808,2.63943662 C7.13384977,3.40600939 8.10600939,4.75835681 9.12460094,6.55549296 C9.24103286,6.76093897 9.36018779,6.97671362 9.48079812,7.20032864 C8.69812207,7.44230047 7.85769953,7.6370892 6.95938967,7.78338028 C4.94408451,8.1115493 3.12784038,8.10159624 2.10779343,8.05492958 C2.45460094,6.6271831 3.18643192,5.317277 4.25183099,4.25183099 Z M1.87793427,9.98300469 C1.87793427,9.96380282 1.87849765,9.94464789 1.8786385,9.92549296 C2.22497653,9.94394366 2.66577465,9.95906103 3.17962441,9.95906103 C4.26525822,9.95906103 5.67713615,9.8914554 7.2128169,9.64478873 C8.32061033,9.46680751 9.36469484,9.2156338 10.3364789,8.89399061 C10.5082629,9.25793427 10.6795305,9.63723005 10.8483099,10.0307981 C9.60352113,10.3656338 8.46070423,10.803662 7.4357277,11.3403756 C5.77258216,12.2112676 4.41784038,13.3428638 3.39788732,14.7105164 C2.41089202,13.3418779 1.87793427,11.7035211 1.87793427,9.98300469 Z M4.69431925,16.125493 C6.12046948,14.0368075 8.41953052,12.5817371 11.5441784,11.7878404 C12.1708451,13.510939 12.7070423,15.4377465 13.0161972,17.5032394 C12.0649765,17.8867606 11.0395305,18.0880751 9.98300469,18.0880751 C8.02056338,18.0880751 6.16455399,17.3953052 4.69431925,16.125493 Z M15.7141315,15.7141315 C15.4149765,16.0132864 15.096338,16.2857277 14.7614554,16.5312207 C14.4407981,14.696385 13.9584977,12.9756338 13.4030516,11.4089202 C15.3716432,11.1001878 17.103662,11.1078873 18.0056338,11.1439906 C17.7598122,12.8684038 16.9677934,14.4605164 15.7141315,15.7141315 Z" id="Shape"></path>
                    </g>
                </g>
                <g id="moreondribbble">
                    <use fill="#000000" xlink:href="#path-2"></use>
                    <use fill="#FAFAFA" xlink:href="#path-2"></use>
                </g>
            </g>
        </g>
    </g>
</svg>