<?xml version="1.0" encoding="UTF-8"?>
<svg width="370px" height="370px" viewBox="0 0 370 370" version="1.1" xmlns="http://www.w3.org/2000/svg" xmlns:xlink="http://www.w3.org/1999/xlink">
    <!-- Generator: Sketch 48.2 (47327) - http://www.bohemiancoding.com/sketch -->
    <title>Group 8</title>
    <desc>Created with Sketch.</desc>
    <defs>
        <rect id="path-1" x="0" y="0" width="370" height="370" rx="8"></rect>
    </defs>
    <g id="icons" stroke="none" stroke-width="1" fill="none" fill-rule="evenodd">
        <g id="Group-8">
            <g id="Rectangle-7">
                <use fill="#FFFFFF" fill-rule="evenodd" xlink:href="#path-1"></use>
                <rect stroke="#EEEEEE" stroke-width="1" x="0.5" y="0.5" width="369" height="369" rx="8"></rect>
            </g>
            <g id="img_logo" transform="translate(65.000000, 76.000000)" fill-rule="nonzero">
                <g id="Group">
                    <path d="M239.886001,161.788776 C239.88557,161.773236 239.884274,161.757697 239.883843,161.74259 C239.873481,161.482741 239.861393,161.223324 239.851031,160.963475 C239.839806,160.688519 239.828581,160.413994 239.822537,160.138175 L239.769865,159.322371 L239.731009,158.650735 L239.642936,157.326456 L239.280713,152.058692 C239.041965,148.553324 238.797172,145.05443 238.548926,141.562875 C238.30068,138.07693 238.04898,134.597029 237.794258,131.123602 C237.540832,127.655355 237.285678,124.19272 237.030092,120.735264 C236.903163,119.009558 236.776234,117.288599 236.648873,115.565483 C236.521943,113.842366 236.394151,112.11666 236.268085,110.395701 L235.497011,100.107935 L235.154215,95.8890623 L234.665494,89.8780098 C234.529931,88.1803601 234.393071,86.4840054 234.254917,84.7880823 C234.244124,84.6590212 234.23333,84.5295284 234.222969,84.3996041 C234.094744,82.8357635 233.965656,81.2732179 233.83441,79.711104 C233.710934,78.2430881 233.585732,76.7759354 233.459234,75.3087828 C233.440238,75.0882135 233.422105,74.8672126 233.403109,74.6466433 C233.257184,72.9610796 233.109531,71.2768109 232.95972,69.5947003 L232.714496,66.7989523 L232.076828,59.5404532 L231.96285,58.3366024 L231.957238,58.2770358 C231.955079,58.2312817 231.950762,58.1803479 231.946013,58.1255293 C231.943854,58.0996307 231.9404,58.0711423 231.937378,58.0443805 C231.934356,58.0133022 231.930902,57.9839505 231.927448,57.9511457 C231.922268,57.9071182 231.917087,57.8609325 231.911474,57.8143151 C231.909316,57.7961861 231.907589,57.7789204 231.905862,57.7612231 C231.90284,57.7396409 231.900681,57.7171955 231.897659,57.6947501 C231.89291,57.6507226 231.887729,57.6071267 231.883412,57.5626675 L231.781091,56.776215 L231.349359,53.6852236 C231.307481,53.4745821 231.263012,53.2652355 231.217249,53.0558889 C231.208182,53.0105665 231.199116,52.9656756 231.189186,52.9203532 C231.133493,52.6665474 231.076072,52.4140366 231.017357,52.1615258 C230.990589,52.045414 230.962958,51.9293022 230.936191,51.8131903 C230.904243,51.6776546 230.872726,51.5421189 230.840778,51.4061515 C230.782063,51.1549356 230.722915,50.9041514 230.665063,50.6533671 L230.476828,49.8768424 L230.303703,49.1577261 L229.82448,47.6987747 C229.209694,45.7477509 228.467977,43.8541356 227.60883,42.0334678 C227.037217,40.8227108 226.396094,39.6581395 225.724319,38.5151503 C225.386704,37.9419292 225.055565,37.3639599 224.694206,36.8088678 C224.377746,36.3237017 224.033655,35.8627076 223.699494,35.3930806 C223.177962,34.6588568 222.633547,33.9462152 222.069273,33.2512709 C221.761016,32.8714255 221.464416,32.4790626 221.143208,32.1117348 C220.522376,31.4003881 219.876505,30.7149399 219.211206,30.0519372 C219.189619,30.0307867 219.170623,30.007478 219.149468,29.9867592 C219.095501,29.9328038 219.036354,29.8853232 218.981956,29.8322312 C218.344719,29.2076446 217.692371,28.5994604 217.017574,28.0219228 C216.977423,27.9878231 216.93684,27.9537233 216.896257,27.9200552 C216.793936,27.8324318 216.691616,27.7456716 216.588,27.6593432 C216.476613,27.56654 216.363931,27.4750318 216.251249,27.3843869 C216.218437,27.3576251 216.186057,27.33 216.153246,27.3036698 C216.122161,27.2790662 216.091508,27.2548942 216.060423,27.2298589 C215.944719,27.1379191 215.829447,27.0455476 215.713311,26.9540394 C215.63085,26.8901563 215.547957,26.8271366 215.465496,26.7636851 C215.399873,26.713183 215.334681,26.6626808 215.268626,26.6121786 C209.121622,21.9452607 202.974618,17.2783427 196.827182,12.6105614 C196.82934,12.6127196 196.832362,12.6144462 196.835385,12.6170361 C196.849632,12.6278271 196.863879,12.6394815 196.878126,12.6502725 C197.015417,12.7551616 197.152276,12.8591875 197.286976,12.9658031 C197.408293,13.0607645 197.528747,13.1570207 197.649632,13.2528454 C197.680716,13.2778806 197.711369,13.3020526 197.742454,13.3270879 C197.89356,13.448811 198.043803,13.5718291 198.193183,13.6952789 C198.267441,13.7574354 198.341267,13.8213184 198.415093,13.883475 C198.485897,13.9434733 198.557565,14.0034716 198.627937,14.0643331 C197.872837,13.4168695 197.094856,12.8004841 196.295719,12.213882 C195.493561,11.6251218 194.671111,11.0670081 193.831823,10.5369512 C192.992967,10.0077576 192.137706,9.50618906 191.269492,9.03224567 C190.836464,8.7965689 190.391348,8.58679068 189.952708,8.36363154 C189.511478,8.14004076 189.076724,7.90306907 188.630744,7.69199592 C188.320329,7.55775512 188.008186,7.42567254 187.695612,7.29747474 C187.382606,7.16927694 187.068737,7.04366899 186.753572,6.92108254 C186.48892,6.81878328 186.223405,6.71993716 185.956594,6.62152269 C185.90565,6.60253042 185.854706,6.58267487 185.803761,6.5636826 C185.762747,6.54900676 185.720869,6.5351942 185.679422,6.52008672 C185.402682,6.42080896 185.125078,6.32239449 184.846611,6.22743315 C184.622542,6.08973921 184.39545,5.95765663 184.168791,5.82298419 C184.01164,5.72974943 183.856217,5.63349316 183.697771,5.54198497 C183.462477,5.40644925 183.224592,5.27652487 182.988003,5.14573722 C182.836033,5.0611353 182.684927,4.97394353 182.532094,4.89106818 C182.140944,4.67956339 181.746773,4.47366995 181.350874,4.27295622 C180.954976,4.07224249 180.556919,3.87714011 180.156271,3.6867858 C179.259131,3.30003418 178.350767,2.93831782 177.43204,2.6033633 C177.12551,2.49113626 176.810778,2.40264956 176.501657,2.29689717 C175.886007,2.08711895 175.272947,1.8700028 174.648231,1.68698641 C173.710508,1.41203018 172.763287,1.1690155 171.806569,0.960532201 C170.84985,0.753343834 169.884496,0.581118504 168.909645,0.448172635 C168.687735,0.410188101 168.464097,0.381268058 168.239596,0.355369512 C168.218873,0.3532113 168.198582,0.348894875 168.177859,0.347168306 C167.933067,0.320406475 167.686979,0.299255996 167.440892,0.281558656 C167.194804,0.263429674 166.94958,0.247890546 166.703493,0.231919776 C166.457406,0.215517364 166.212613,0.198251667 165.968253,0.177101188 C165.938895,0.174942975 165.909537,0.172784763 165.880611,0.170194909 C165.700579,0.156382351 165.520978,0.141706508 165.335333,0.12789395 C165.120331,0.11192318 164.89842,0.0963840529 164.662694,0.0838664224 C164.428264,0.0717804343 164.180018,0.0627159433 163.909753,0.0579678765 C163.908026,0.0579678765 163.906299,0.0579678765 163.904573,0.0579678765 L163.904141,0.0579678765 C163.632581,0.0540830947 163.339867,0.0545147371 163.018658,0.0622843009 L160.059565,0.122282599 C159.839381,0.13307366 159.626537,0.14559129 159.418442,0.159403848 C159.210347,0.173648048 159.006138,0.188755533 158.803656,0.204726303 C158.601605,0.220265431 158.400418,0.235804558 158.197072,0.250480401 C158.194913,0.250480401 158.192323,0.250912043 158.190164,0.250912043 C157.98984,0.265587886 157.787358,0.279400444 157.58099,0.291918074 L147.907164,1.01189765 C145.080613,1.21951766 142.264855,1.43102245 139.452983,1.64382217 C139.075217,1.67231057 138.694861,1.69993569 138.317527,1.72842409 C138.124542,1.74309993 137.933717,1.75777577 137.741596,1.77201997 C134.757894,1.99776896 131.780668,2.2239496 128.813804,2.44797202 C125.664749,2.685807 122.525191,2.92234705 119.394269,3.15198083 C118.978511,3.1821958 118.565343,3.21025255 118.149585,3.24046752 C115.446941,3.43772812 112.748182,3.63283049 110.059353,3.81886838 C108.512888,3.92203092 106.967718,4.02692003 105.425139,4.13310407 C104.667881,4.18490116 103.911917,4.23669826 103.155091,4.28806371 C102.373223,4.34201901 101.590493,4.39597431 100.810353,4.44863469 C100.173116,4.49136729 99.5393327,4.53107839 98.9029594,4.57208443 C98.0071149,4.6307878 97.1108386,4.69164938 96.2171528,4.74733125 C95.5630784,4.78790564 94.9124578,4.82243704 94.2596786,4.86042157 C93.389738,4.91178702 92.5176388,4.96574232 91.6498569,5.01192806 L82.5834789,5.52946734 L78.0723082,5.79147429 L76.9441917,5.85276752 L75.6502901,5.96887933 C75.6312939,5.9706059 75.6131611,5.97233247 75.5945966,5.97449069 C75.3968632,5.99520952 75.1991298,6.01463343 75.0026916,6.03276241 C74.787689,6.05348125 74.5726863,6.07290516 74.3581153,6.09319235 C74.2510457,6.10355177 74.1439761,6.11563776 74.0364748,6.12686046 C73.9294052,6.13765152 73.8219038,6.14801094 73.7148342,6.16009693 C73.5594106,6.17779427 73.4031235,6.19937639 73.2468364,6.22095851 C73.1881208,6.22959136 73.1294053,6.23520271 73.0706897,6.24426721 C72.8729563,6.27707203 72.6760864,6.32368941 72.4779212,6.35865245 C71.8160756,6.47692248 71.15423,6.59648743 70.4941114,6.7436775 C70.1599506,6.81792 69.8283802,6.91417626 69.4950829,6.99661996 C68.973982,7.12481777 68.4515859,7.24438272 67.9326437,7.39200443 C67.4732806,7.5219288 67.0186665,7.67861501 66.561462,7.82364686 C66.1729029,7.9470966 65.7821852,8.05716542 65.3957848,8.19140621 C64.555202,8.48362814 63.7202318,8.80304354 62.8913058,9.14835748 C62.8451104,9.16648647 62.7997785,9.18893187 62.7535832,9.20792414 C62.5929788,9.27526036 62.4319426,9.34345986 62.2726334,9.41683908 C62.0679923,9.51050548 61.8637829,9.60891996 61.6600053,9.70776608 C61.4562277,9.80747548 61.2533135,9.90804816 61.0495358,10.0073259 C60.8466217,10.1070353 60.6424123,10.2050182 60.4373395,10.2991162 L59.9939504,10.5170956 L59.2129467,10.9008258 C59.11408,10.9521912 59.0152133,11.0061465 58.9167783,11.06226 C58.8179117,11.1183735 58.7194767,11.1749187 58.6210417,11.2336221 C58.522175,11.2914622 58.4237401,11.3501655 58.3248734,11.4080056 C58.2260067,11.4658457 58.12714,11.5236858 58.0274098,11.578936 C57.8318351,11.697206 57.6362604,11.8141811 57.4398222,11.9307246 C57.2442475,12.0472681 57.0478093,12.1633799 56.8522345,12.2807866 C56.7278957,12.3550291 56.6035568,12.4305665 56.4792179,12.504809 C56.4084138,12.5484049 56.3367462,12.5907059 56.2659421,12.6334385 C56.0707991,12.7525718 55.8765196,12.873 55.68224,12.9947232 L53.4061474,14.5818724 C52.7589807,15.0679018 52.1200169,15.5724918 51.4866657,16.0857146 C51.3968654,16.1582306 51.3036112,16.2251351 51.2142426,16.2985144 C50.4941132,16.8881379 49.784777,17.4954588 49.0914149,18.1252251 C48.3980529,18.7545598 47.7202332,19.4041817 47.0618415,20.0779755 C46.4034497,20.7513377 45.7649177,21.4488719 45.1501309,22.1723046 C45.0996182,22.2284181 45.0512642,22.2819417 45.0011833,22.337192 C44.9696668,22.372155 44.9377186,22.4079813 44.9066339,22.4425127 C44.8258999,22.5318627 44.7464612,22.6190545 44.6674542,22.7062463 C44.5884472,22.7938697 44.5094402,22.8806298 44.4317284,22.9682532 C44.3531531,23.0558766 44.2754413,23.1430684 44.1981612,23.2337133 L43.3161321,24.3637532 C43.1736605,24.5519493 43.027735,24.7388505 42.8813777,24.9248884 C42.8377728,24.9797069 42.7937361,25.0353888 42.7505628,25.0906391 C42.6469471,25.2214267 42.5428996,25.352646 42.4392839,25.4842969 C42.2920632,25.6720614 42.1457059,25.8593942 42.0028025,26.0501802 C41.8590357,26.2413978 41.7191544,26.4339103 41.582727,26.6307392 L39.997406,29.0267864 C39.8583882,29.2236153 39.7275734,29.4243291 39.6015075,29.6280643 C39.4763052,29.8326628 39.3562836,30.0394195 39.2384207,30.2470395 C39.1261703,30.4443001 39.0160786,30.6432873 38.9046916,30.8418428 C38.8982156,30.8526339 38.8926031,30.8629933 38.8865589,30.8737843 C38.8813781,30.8828488 38.8761973,30.8919133 38.8710165,30.9005462 C38.7587661,31.1012599 38.6456523,31.3011104 38.5273576,31.4992342 C38.3900667,31.7245516 38.2566615,31.9515955 38.12671,32.1816609 C37.9967586,32.412158 37.8711245,32.64395 37.7472174,32.8770369 C37.6733911,33.0177523 37.6017236,33.1597627 37.5296243,33.3013414 C37.4821337,33.3950078 37.4329163,33.4882426 37.3858574,33.5823406 C37.2679945,33.8193123 37.1522903,34.0567156 37.0387447,34.2945506 L31.3821882,34.2984354 L25.7230414,34.3023202 L24.0215845,47.4475588 L22.8040994,56.8552056 L22.8040994,56.8556372 L29.0534243,59.6923913 L25.9773317,70.8775416 L25.8616275,71.298393 L25.7644877,71.6450019 L23.1348064,80.9917871 L17.5404194,80.8614311 L13.8547208,80.7755342 L10.8787902,103.599923 L14.2614127,104.836578 L16.2137061,105.550515 L15.6856975,107.428591 L14.9517526,110.040891 L12.1973006,119.760184 L10.8507276,124.640765 L10.1854281,127.078249 L9.95790521,128.05592 L3.03248759,127.723987 L0.00172692915,150.838439 L9.09616757,153.387719 L9.44802938,153.486565 C9.48256796,153.630734 9.51840174,153.774471 9.55423552,153.917776 C9.57193655,153.988134 9.58791064,154.059786 9.60647513,154.130144 C9.6315156,154.242371 9.65698781,154.35503 9.68332348,154.466393 C9.70922741,154.577757 9.73556308,154.689553 9.76233049,154.801348 C9.78909789,154.912712 9.81672875,155.023644 9.84479135,155.134576 C9.87285395,155.24594 9.90091655,155.357303 9.92984261,155.467372 C10.1500261,156.314255 10.3978404,157.149051 10.6694,157.972625 C10.9405279,158.796199 11.2349693,159.608981 11.5492704,160.410973 C11.8631398,161.213828 12.1968689,162.006323 12.5452768,162.788459 C12.893253,163.572754 13.2563399,164.345825 13.6306518,165.110696 C13.7467878,165.320042 13.8646507,165.528957 13.9829453,165.737009 C14.0433878,165.84492 14.1055573,165.951967 14.1664316,166.059446 C14.2242837,166.160019 14.2812723,166.260591 14.3391245,166.361596 C14.4587143,166.569216 14.5783042,166.777267 14.697894,166.984887 C14.8174838,167.192076 14.936642,167.399696 15.0558001,167.607316 L15.7884498,168.83059 L16.6273056,169.981349 L16.7291944,170.120769 L18.3011317,172.276392 C18.4526697,172.455523 18.6059347,172.631634 18.7609266,172.807312 C18.9159184,172.982559 19.0722055,173.156079 19.2293561,173.329599 C19.3860749,173.502688 19.5440889,173.675777 19.7012395,173.848865 C19.7992427,173.956344 19.8959507,174.063823 19.9930905,174.172165 C20.0526696,174.238638 20.1126803,174.304248 20.1722594,174.370721 C20.4749037,174.733732 20.792227,175.077751 21.11948,175.408389 C21.11948,175.408389 21.11948,175.408389 21.1199118,175.408821 C21.1950332,175.484358 21.2749037,175.554716 21.3508885,175.62939 C21.6064741,175.880606 21.8633548,176.129664 22.1275749,176.37052 C22.4712338,176.682166 22.8205053,176.988632 23.1710719,177.294667 C23.5216385,177.600701 23.873932,177.906736 24.2232035,178.218813 C24.3920108,178.377226 24.5694528,178.523553 24.751212,178.665131 C24.9338348,178.805847 25.1207749,178.939656 25.3094419,179.071739 C25.404423,179.138212 25.5006993,179.204253 25.5965439,179.270726 C25.6902298,179.335472 25.7847791,179.40065 25.8780333,179.465828 C25.9743096,179.532733 26.0679955,179.603522 26.1629766,179.672153 C26.2557991,179.739058 26.349485,179.803804 26.439717,179.872867 C26.6335648,180.000201 26.8239588,180.132716 27.013921,180.26523 C27.0596846,180.297171 27.1054482,180.328681 27.1512118,180.360623 C27.2949787,180.461196 27.4383138,180.562632 27.5825124,180.661909 C27.7729063,180.79356 27.9641637,180.92219 28.1580115,181.046071 C28.3527228,181.169521 28.5500244,181.288654 28.7516434,181.398291 L31.1779789,182.723434 C31.2341041,182.751922 31.2893658,182.780842 31.3450593,182.809762 C31.4007527,182.83825 31.4564462,182.867602 31.5125714,182.897385 C31.5190474,182.900839 31.5255234,182.904292 31.5319994,182.907745 C31.5812168,182.933643 31.6304343,182.95911 31.6796518,182.985009 C31.7318914,183.013066 31.7836993,183.040691 31.8359389,183.067884 C31.8398245,183.069611 31.8432783,183.071337 31.8467322,183.073064 L31.8480274,183.074359 C32.0069049,183.211189 32.1713949,183.339819 32.338907,183.464995 C32.4075524,183.516361 32.4783565,183.565136 32.5487289,183.615638 C32.6488908,183.688154 32.7481892,183.761534 32.850078,183.831891 C32.924336,183.884552 32.9998891,183.935917 33.0754423,183.988146 C33.172582,184.05505 33.2701535,184.122387 33.3672933,184.190155 C33.5253073,184.300655 33.6811627,184.41245 33.8357228,184.527699 C33.8495383,184.538058 33.8637854,184.547554 33.8780326,184.558777 C34.0736073,184.687407 34.2657282,184.820784 34.4574173,184.955888 C34.6491065,185.090992 34.8395004,185.226528 35.0311895,185.360337 C35.2233104,185.493715 35.4154313,185.625366 35.6118695,185.750974 C35.652884,185.777304 35.6960573,185.800181 35.7370718,185.826079 C35.8933589,185.923199 36.0492143,186.021182 36.2111139,186.108805 L38.6607629,187.437401 C38.7635152,187.490493 38.8666992,187.544448 38.9698832,187.597972 C39.0722038,187.652358 39.1745243,187.706745 39.2777083,187.760269 C39.3804606,187.814656 39.4836446,187.86818 39.5868286,187.921703 C39.6554741,187.956666 39.7241195,187.990766 39.7927649,188.025298 C39.8277353,188.042563 39.8618421,188.060261 39.8963807,188.076663 L40.7995646,188.434495 L41.1898506,188.589023 L42.071448,188.935631 L43.7832665,189.607699 C43.8173733,189.619353 43.8532071,189.628849 43.887314,189.63964 C44.0725271,189.700502 44.2586037,189.758774 44.446839,189.813592 C44.5379345,189.839491 44.6298935,189.862799 44.720989,189.887835 C44.8535308,189.923661 44.9865044,189.961645 45.1199096,189.995745 C45.3448422,190.054449 45.5702064,190.111857 45.7951389,190.168834 C46.0205032,190.226674 46.2454357,190.284514 46.469073,190.344081 L47.1011291,190.50422 L47.8178047,190.68551 L48.3246584,190.80896 L48.5021004,190.851692 C48.528436,190.85903 48.5513179,190.86421 48.5759266,190.871116 C48.6044209,190.878454 48.6346422,190.887087 48.6618413,190.893561 C48.6674538,190.894856 48.6722029,190.89572 48.6778154,190.897015 C48.6760885,190.897015 48.6747933,190.897015 48.6730664,190.896583 C50.8084143,191.392972 52.9441939,191.888929 55.07911,192.386181 C61.0823475,193.781681 67.085585,195.177181 73.0892542,196.573544 C73.103933,196.576997 73.1177485,196.579156 73.1328591,196.582609 C73.1518553,196.586494 73.1712833,196.591242 73.1902795,196.595126 C73.2230912,196.601601 73.2550393,196.607644 73.2865558,196.613255 C73.300803,196.616277 73.3159136,196.618435 73.3301608,196.621457 C73.3474301,196.624478 73.3642676,196.627068 73.3824004,196.630521 C73.3944889,196.632248 73.4070091,196.634406 73.4190976,196.636996 C73.4398208,196.640449 73.4596805,196.643902 73.4812671,196.647787 L75.6386333,197.074249 L79.1183955,197.755813 L79.9529341,197.919405 L88.6696089,199.579071 L96.3052262,201.022051 L106.33998,202.918688 L137.496804,208.722984 L180.443805,216.723908 C180.68428,216.770094 180.925618,216.811531 181.166956,216.853832 C181.302952,216.878004 181.438084,216.904766 181.574943,216.927643 C181.712234,216.950089 181.849957,216.968649 181.988111,216.9898 C182.22945,217.027784 182.470788,217.067064 182.713421,217.100732 C183.093778,217.153824 183.475861,217.201736 183.858807,217.245332 C184.241322,217.287633 184.625995,217.326049 185.011101,217.359717 C186.649956,217.500864 188.30565,217.552661 189.96566,217.513382 C190.945693,217.490505 191.927452,217.425758 192.908779,217.340293 C193.592212,217.280727 194.276507,217.215549 194.959076,217.125767 C196.624267,216.905629 198.285142,216.593984 199.930905,216.192124 C200.75465,215.990116 201.57451,215.766093 202.38962,215.519626 C203.204731,215.272726 204.015092,215.002518 204.818546,214.710296 C205.865065,214.333904 206.898201,213.915211 207.920543,213.464576 C208.844018,213.057969 209.757995,212.625895 210.658589,212.161879 C211.361449,211.798868 212.049199,211.400462 212.736948,211.002919 C213.906943,210.326967 215.061827,209.619937 216.181308,208.849455 C216.860855,208.381123 217.521837,207.879986 218.180661,207.378418 C219.246608,206.567361 220.29399,205.729112 221.300358,204.833885 C222.115469,204.109158 222.910288,203.3581 223.681793,202.581575 C224.454162,201.805482 225.204081,201.003491 225.929392,200.17819 C226.144394,199.935607 226.342991,199.676622 226.554108,199.430154 C227.059667,198.839235 227.568247,198.25177 228.050061,197.638406 C228.733061,196.769078 229.391453,195.877305 230.023077,194.964381 C230.218652,194.681655 230.394799,194.383822 230.585624,194.09678 C231.010017,193.457949 231.439591,192.82214 231.83808,192.164317 C232.414874,191.21125 232.962742,190.238328 233.481253,189.248141 C233.539537,189.135914 233.588754,189.01937 233.647038,188.907143 C234.102516,188.024434 234.543314,187.134819 234.95087,186.227938 C235.156374,185.770829 235.332521,185.301202 235.525937,184.838481 C235.764685,184.266555 236.016817,183.701104 236.236568,183.121408 C236.634194,182.072517 236.999871,181.011971 237.334032,179.940635 C237.668193,178.869298 237.969973,177.788466 238.238943,176.699432 C238.513093,175.611693 238.752704,174.514458 238.957345,173.412906 C239.122267,172.531492 239.248333,171.645762 239.369649,170.759169 C239.399871,170.537736 239.444771,170.317598 239.472834,170.096166 C239.488808,169.967105 239.493988,169.837612 239.509531,169.708983 C239.624372,168.728723 239.72367,167.747599 239.787135,166.766045 C239.853621,165.736577 239.885138,164.708837 239.895068,163.681959 C239.895499,163.601674 239.903271,163.521388 239.903702,163.440671 C239.912769,163.163125 239.914496,162.887737 239.911042,162.611486 C239.904566,162.339551 239.895931,162.063732 239.886001,161.788776 Z M125.844349,99.302059 C125.821036,99.6965802 125.820172,100.085058 125.775704,100.484328 C125.641435,101.683862 125.395779,102.848433 125.087523,103.986243 C125.028807,104.202927 124.986497,104.426518 124.920874,104.641044 C124.905332,104.691978 124.883745,104.740754 124.868203,104.792119 C124.470145,106.075392 123.972358,107.314637 123.375704,108.490431 C123.066152,109.100342 122.731991,109.692556 122.374517,110.267935 C121.336632,111.93796 120.098424,113.450866 118.714291,114.776872 C118.670254,114.819173 118.630103,114.867085 118.586066,114.908954 C118.581317,114.912839 118.577,114.917587 118.573114,114.922767 C118.571819,114.924062 118.570092,114.925788 118.568365,114.927515 L118.567502,114.927947 C118.566638,114.929242 118.565775,114.929673 118.564911,114.930968 C116.999882,116.401574 115.2423,117.610173 113.366423,118.530866 C112.69033,116.578979 112.304793,114.490693 112.304793,112.307877 C112.304793,103.814017 117.872413,96.6250127 125.556384,94.1754419 C125.646184,94.6757154 125.745483,95.1725359 125.799449,95.6870537 C125.922493,96.8568046 125.917744,98.0710148 125.843918,99.3016274 L125.843918,99.302059 L125.844349,99.302059 Z" id="Shape" fill="#511313"></path>
                    <path d="M36.2486746,135.579879 C36.3073902,136.122022 36.3751722,136.663301 36.4567696,137.198106 C36.538367,137.733343 36.6346433,138.264263 36.751211,138.788277 C36.8677787,139.312291 37.0050696,139.828535 37.1695596,140.336578 C37.3021014,140.854118 37.4596837,141.359571 37.6358304,141.856391 C37.8124089,142.35278 38.0075519,142.839673 38.2169421,143.318364 C38.4259005,143.798351 38.6486744,144.270136 38.8792194,144.735878 C39.1101962,145.202052 39.3493759,145.663046 39.5907142,146.120155 C39.6615183,146.224613 39.7318907,146.330797 39.8022631,146.436981 C39.8445728,146.500864 39.8864508,146.56561 39.9283289,146.629925 C39.9563915,146.671794 39.9840223,146.713232 40.0112215,146.756396 C40.0798669,146.86258 40.1480806,146.970491 40.2158626,147.077107 C40.2586041,147.144443 40.3004821,147.211347 40.3427919,147.279115 C40.3678323,147.319258 40.3933046,147.358969 40.418345,147.399112 L40.8271955,148.047007 L41.3003741,148.636199 L42.2225543,149.822352 C42.3071738,149.917314 42.3935202,150.009254 42.4807302,150.099899 C42.4820254,150.101194 42.4837523,150.10292 42.4854792,150.104647 C42.5705305,150.193133 42.6573087,150.280325 42.7427917,150.367085 C42.8304333,150.454709 42.9176432,150.542332 43.0052849,150.629524 L43.0057166,150.629955 C43.0078753,150.632977 43.0108974,150.635567 43.0130561,150.638588 C43.0976756,150.724054 43.1822951,150.809519 43.2651877,150.897574 C43.4283825,151.089223 43.6019389,151.266628 43.7819713,151.434537 C43.8782476,151.52475 43.9792729,151.607626 44.0790031,151.693522 C44.1653495,151.767765 44.2495373,151.845461 44.3376107,151.918408 C44.5262777,152.073368 44.7188303,152.225738 44.909656,152.378107 C45.1004817,152.530477 45.2913074,152.685868 45.4769522,152.847303 C45.5671843,152.93061 45.6634606,153.006147 45.7623273,153.0778 C45.8607622,153.148157 45.9626511,153.213335 46.0654033,153.277219 C46.0895804,153.292758 46.1141891,153.307002 46.1379344,153.321678 C46.2169414,153.370453 46.2959484,153.418797 46.3749554,153.467573 C46.4522355,153.515053 46.5277886,153.566419 46.6024783,153.617784 C46.6270871,153.634187 46.652991,153.650589 46.6775997,153.666992 C46.7833741,153.72699 46.8869899,153.792168 46.9888787,153.859936 C47.0221221,153.881086 47.054502,153.903963 47.0877454,153.926409 C47.1563908,153.972594 47.2250363,154.019212 47.2936817,154.065398 C47.359305,154.109857 47.4257918,154.151726 47.4927103,154.194459 C47.5285441,154.217336 47.5635144,154.242371 47.6002116,154.264816 C47.6481339,154.292873 47.6986466,154.317045 47.7474323,154.343375 C47.8048527,154.375317 47.8605462,154.409848 47.9196935,154.43661 L49.1531527,155.035298 L49.2287058,155.071124 C49.2818089,155.097455 49.3357754,155.12508 49.3888785,155.151842 C49.4156459,155.165654 49.4432768,155.179467 49.4704759,155.192848 C49.4968116,155.206229 49.5231472,155.220473 49.5494829,155.233422 C49.6034494,155.260184 49.6565525,155.286514 49.7100873,155.312844 C49.7631904,155.338743 49.8175887,155.363778 49.8715552,155.388382 L50.5666442,155.615857 L50.9552032,155.751825 L51.1205567,155.809665 L51.3934115,155.906353 L51.9395528,156.098433 C52.0552571,156.133396 52.17312,156.163611 52.2914147,156.191237 C52.4097093,156.218862 52.5292992,156.243034 52.648889,156.266774 C52.7689106,156.290946 52.8893639,156.31296 53.0093855,156.335837 C53.0637837,156.346628 53.1173185,156.358282 53.1725803,156.369073 C53.2377718,156.382454 53.3033951,156.394109 53.3685867,156.408353 L62.2083053,157.873779 L83.6999386,161.435692 L148.166635,172.237976 C148.281476,172.256105 148.397181,172.273802 148.51159,172.291068 C148.627294,172.308333 148.742566,172.324304 148.857839,172.33898 C148.973543,172.354519 149.088816,172.368763 149.20452,172.382576 C149.320224,172.395957 149.435497,172.408474 149.551201,172.419697 C149.609053,172.425308 149.666905,172.43092 149.724326,172.436963 C149.729506,172.436963 149.735119,172.437394 149.7403,172.438689 C149.799879,172.443437 149.863343,172.449049 149.935874,172.45466 C150.013154,172.461566 150.099501,172.468473 150.200958,172.475379 C150.220818,172.477106 150.250176,172.478832 150.271762,172.480559 C150.356813,172.487033 150.444023,172.493076 150.551525,172.499983 C151.35541,172.547463 152.160591,172.553938 152.964908,172.519838 C153.769657,172.485738 154.573543,172.410201 155.373111,172.294952 C156.173974,172.179272 156.970952,172.023881 157.761022,171.828347 C158.551524,171.633245 159.335981,171.398431 160.110941,171.123043 C160.18304,171.098008 160.25514,171.072109 160.326807,171.045779 C160.398906,171.019881 160.471006,170.993119 160.542673,170.966357 C160.614773,170.939595 160.68644,170.912402 160.757676,170.884777 C160.797827,170.870101 160.837546,170.853698 160.878561,170.837728 C160.910077,170.825642 160.94073,170.813556 160.972247,170.801038 C162.007109,170.394431 163.022112,169.914013 164.008188,169.365827 C164.99556,168.818504 165.955301,168.203414 166.87964,167.527462 C167.804842,166.850646 168.693779,166.113401 169.540406,165.320906 C170.387465,164.527547 171.19135,163.679801 171.946018,162.78328 C172.325511,162.338256 172.690756,161.881147 173.042618,161.414542 C173.394912,160.946641 173.733822,160.469245 174.058052,159.981057 C174.382283,159.493301 174.692267,158.995186 174.987572,158.489301 C175.282877,157.982984 175.563071,157.467603 175.828155,156.945748 C176.358322,155.90031 176.827615,154.82552 177.230853,153.727853 C177.634091,152.630618 177.971706,151.511369 178.239811,150.379171 C178.315796,150.060187 178.387464,149.739909 178.453087,149.418335 C178.518279,149.097625 178.579153,148.77562 178.63312,148.453614 C178.68795,148.130314 178.737167,147.807446 178.780772,147.482851 C178.824377,147.159119 178.862369,146.835387 178.895613,146.51036 C178.920653,146.257418 178.942672,146.004907 178.961236,145.751964 C178.980232,145.499022 178.995775,145.245648 179.007431,144.993137 C179.019952,144.739763 179.028586,144.486389 179.033767,144.23431 C179.03938,143.980504 179.04197,143.727561 179.041107,143.474619 C179.043265,143.424117 179.042402,143.37232 179.044129,143.321386 C179.046287,143.226856 179.050605,143.13319 179.049309,143.034775 C179.047583,142.890175 179.04197,142.737374 179.034631,142.575076 C179.034199,142.567738 179.034199,142.560832 179.034199,142.552631 C179.025996,142.381269 179.015203,142.195662 179.004409,141.989769 C178.993184,141.784307 178.981528,141.558558 178.971166,141.305616 L178.937923,140.735848 L178.854598,139.587247 L178.519574,135.025218 C178.40387,133.441954 178.292483,131.862143 178.179369,130.281468 C178.075321,128.822517 177.968252,127.360975 177.865931,125.903319 C177.652656,122.871462 177.443265,119.843059 177.236034,116.818972 C177.028802,113.799633 176.824593,110.783748 176.621247,107.773042 C176.59707,107.414347 176.573325,107.057379 176.548716,106.699547 C176.370411,104.051852 176.191242,101.406748 176.012073,98.7655275 L175.411533,89.804199 L174.867982,80.8726538 C174.786817,79.5535545 174.70781,78.2370451 174.629234,76.9209673 C174.618873,76.7509002 174.608511,76.5816964 174.59815,76.4129242 C174.58822,76.2402672 174.57829,76.0676102 174.56836,75.8953849 C174.490648,74.5840552 174.414663,73.2731571 174.339542,71.9631223 C174.264421,70.6474762 174.191458,69.3326934 174.119358,68.0179105 C174.110292,67.8530231 174.101226,67.6872724 174.091296,67.522385 C174.010562,66.0431464 173.931555,64.5647711 173.855138,63.0859641 L173.372893,54.2584447 L173.369008,54.188087 L173.310724,53.1564616 C173.310724,53.142649 173.308997,53.1301314 173.308565,53.1171821 C173.30727,53.0817875 173.306407,53.0463928 173.303384,53.0114297 L173.303384,53.0097032 C173.302089,52.9920058 173.299931,52.9704237 173.298204,52.9509998 C173.296477,52.9337341 173.295182,52.9138785 173.293455,52.8966128 C173.293455,52.8953179 173.293455,52.8948863 173.293023,52.8935914 C173.291296,52.8771889 173.290864,52.863808 173.289137,52.8465423 C173.282661,52.7835225 173.275322,52.710575 173.265824,52.6190668 C173.265824,52.6156136 173.265392,52.6100023 173.264529,52.6056858 C173.255894,52.5159042 173.245532,52.41231 173.233444,52.2806591 L173.104356,50.6339432 L173.009375,50.0814409 L172.828047,49.0334131 L172.777103,48.755867 L172.680827,48.2348746 L172.468414,47.4639612 C172.348824,46.9377891 172.204194,46.422408 172.038409,45.9156598 C171.873055,45.4093432 171.686547,44.9129544 171.484496,44.4239036 C171.282014,43.9352843 171.063557,43.4548663 170.833012,42.9813546 C170.754437,42.8199203 170.668091,42.6640974 170.587788,42.5043897 C170.429774,42.194902 170.275646,41.8845511 170.110724,41.5793799 L169.440676,40.4666057 L169.305112,40.2412884 C169.233012,40.1333778 169.157459,40.0271938 169.080179,39.9227363 C169.024486,39.8471989 168.967929,39.7729564 168.911372,39.6982822 C168.888922,39.6689305 168.867335,39.6395788 168.844885,39.6102272 C168.807756,39.5614516 168.769764,39.5122443 168.732635,39.4639004 C168.69162,39.4095134 168.64931,39.3546948 168.607864,39.3007395 C168.530152,39.1971454 168.45244,39.0931195 168.377751,38.9877988 C168.338895,38.9364333 168.300902,38.883773 168.263773,38.8311126 C168.239165,38.7939913 168.214124,38.7577334 168.188652,38.7214754 C168.176995,38.705073 168.16577,38.6882389 168.154113,38.6709732 C168.11828,38.6183129 168.082014,38.5652208 168.044885,38.5138554 C168.007756,38.4616267 167.969764,38.4106928 167.930908,38.3623489 L167.411102,37.7740203 C167.401172,37.7632292 167.392106,37.7515749 167.381744,37.7407838 C167.304896,37.6579084 167.229775,37.5724432 167.155948,37.4856831 C167.072624,37.3872686 166.9893,37.2884225 166.905975,37.1895764 C166.821788,37.0911619 166.7376,36.9940424 166.649526,36.8990811 C166.562748,36.8045514 166.472948,36.7130432 166.378399,36.6267147 C166.017039,36.2567971 165.641,35.903282 165.252441,35.5653059 C164.863882,35.2277616 164.463666,34.9053247 164.05352,34.5962687 C163.643806,34.2867811 163.224162,33.9915376 162.797179,33.7079486 C162.573974,33.5603268 162.345156,33.4234962 162.11936,33.2823491 C161.911696,33.1524247 161.707487,33.0164574 161.497665,32.8917127 C161.047368,32.6534461 160.590164,32.4272655 160.127347,32.2144657 C160.122166,32.2114442 160.116985,32.209286 160.111804,32.2062645 C159.990488,32.1505827 159.865285,32.103102 159.743537,32.0495783 C159.393834,31.8950503 159.044994,31.7400907 158.688815,31.6006702 C158.208297,31.4129057 157.720871,31.2398171 157.226106,31.0822676 C157.033121,31.0214061 156.834956,30.9747887 156.640245,30.9186752 C156.334579,30.8306201 156.031934,30.7369537 155.721087,30.6614163 C155.70684,30.6566682 155.691729,30.6540784 155.67705,30.6501936 C155.56739,30.6169571 155.456435,30.5871738 155.343321,30.5634334 C155.216392,30.5353767 155.088168,30.512068 154.95908,30.4900542 C154.830855,30.4684721 154.701767,30.4490482 154.572247,30.4278977 C154.443591,30.4071789 154.314935,30.3855968 154.187142,30.3605615 C154.057191,30.3381161 153.927239,30.3135125 153.79772,30.2889089 C153.667768,30.2647369 153.537385,30.2414282 153.407434,30.2207094 C153.398799,30.2189828 153.390164,30.2185511 153.382393,30.2172562 C153.260645,30.1978323 153.138896,30.1805666 153.015853,30.1676173 C152.885038,30.1538048 152.753359,30.1447403 152.621681,30.1430137 L151.022545,30.0092046 C150.86928,30.0048881 150.70738,30.0022983 150.541595,29.9997084 C150.374946,29.9975502 150.203548,29.9958236 150.031287,29.9932338 C149.859026,29.9915072 149.685038,29.9897806 149.51364,29.9876224 C149.343969,29.9854642 149.175594,29.9820111 149.013263,29.9785579 C149.011967,29.9785579 149.011104,29.9785579 149.009377,29.9785579 L140.839275,29.8451804 C138.13145,29.8050377 135.431396,29.7605785 132.739114,29.7152561 C130.099071,29.6712285 127.466799,29.6259061 124.840572,29.5818786 C124.79524,29.5814469 124.749476,29.580152 124.705008,29.5797203 C122.040356,29.5352612 119.383044,29.4933919 116.730912,29.4549757 C114.08612,29.4178544 111.446509,29.384618 108.812511,29.3595827 C108.210244,29.3539713 107.607546,29.34836 107.005279,29.342317 C106.992759,29.3418854 106.98067,29.3418854 106.96815,29.3418854 C106.378404,29.336274 105.789089,29.3297994 105.199775,29.3237564 C104.599235,29.3172817 103.997832,29.3108071 103.397724,29.3047641 C103.397292,29.3047641 103.397292,29.3047641 103.397292,29.3047641 C103.39427,29.3047641 103.39168,29.3047641 103.388658,29.3047641 C102.791572,29.2982895 102.194055,29.2926781 101.597401,29.2874984 C101.072846,29.2827503 100.548723,29.2784339 100.024168,29.2741175 C99.5043624,29.2702327 98.9836933,29.2672112 98.4634559,29.2641897 C98.4604338,29.2641897 98.4569799,29.2641897 98.453526,29.2641897 C97.9306982,29.2620315 97.4083022,29.2603049 96.8854744,29.2585784 L96.8850426,29.2585784 C96.36351,29.2581467 95.8415457,29.2572834 95.3204448,29.2581467 L95.3200131,29.2581467 C95.2457551,29.2581467 95.1714972,29.2581467 95.0968075,29.2581467 C95.0225496,29.2581467 94.9474281,29.2581467 94.8736019,29.2581467 C94.7984805,29.2581467 94.7242225,29.2581467 94.6499646,29.2581467 C94.5757066,29.2585784 94.5010169,29.2585784 94.4263273,29.2585784 C94.3209846,29.2598733 94.2156419,29.2598733 94.110731,29.2603049 C94.0053883,29.2607366 93.9009091,29.2607366 93.7951347,29.2615999 C93.689792,29.2620315 93.5853128,29.2628948 93.4795384,29.2633264 C93.3750591,29.2637581 93.2697165,29.2646214 93.1643738,29.2654846 L85.4160744,29.2723909 L81.5723619,29.2758441 L81.0862313,29.2827503 L80.6247095,29.2883617 L80.2853679,29.3112387 L79.8018278,29.3440436 C79.6649686,29.3539713 79.5285412,29.3613093 79.3916821,29.3686472 C79.2543912,29.3759851 79.1175321,29.3828914 78.9802412,29.3902293 C78.8429503,29.3984305 78.7060912,29.4062001 78.5688003,29.4169911 C78.5562801,29.4182861 78.5446233,29.4191494 78.5329666,29.4200126 C78.4077642,29.4303721 78.2825618,29.4415948 78.1569277,29.4567022 C77.6850444,29.5188588 77.2122975,29.5974177 76.7399824,29.6807247 C76.664861,29.6945372 76.5901713,29.7031701 76.5150499,29.7161193 C75.968045,29.817987 75.4210402,29.9345304 74.8766258,30.0692029 C74.3326431,30.2043069 73.7895239,30.3553818 73.250722,30.5263122 C72.7119201,30.6981059 72.1765721,30.8884602 71.6451096,31.099965 C71.5112726,31.1491722 71.3787308,31.2035592 71.246189,31.2613993 C71.1140789,31.3192393 70.9832641,31.3805326 70.8524492,31.4422574 C70.7216343,31.5039823 70.5908194,31.5670021 70.4604363,31.627432 C70.3300531,31.6891569 70.1996699,31.7482919 70.0684233,31.8039738 L69.272309,32.1687116 C69.2084126,32.2019481 69.1440845,32.2360479 69.0806199,32.2714425 C69.0171552,32.3068372 68.9536906,32.3422319 68.8902259,32.3784899 C68.827193,32.4143162 68.7637284,32.4518691 68.7002637,32.4876954 C68.6363673,32.5235217 68.572471,32.5597797 68.5081428,32.5951744 C68.3812136,32.6685536 68.2542843,32.7406379 68.1264915,32.8131538 C67.9995622,32.8848064 67.8726329,32.9568907 67.7452719,33.0281117 C67.6187743,33.1006277 67.4922768,33.1735752 67.3670744,33.2473861 C67.2410086,33.3216286 67.1171014,33.397166 66.9940577,33.47443 L65.5222823,34.4771354 C64.5599511,35.1725113 63.6282728,35.9291805 62.7358822,36.7410999 C61.8439233,37.552156 60.9916837,38.4175991 60.1869347,39.3318178 C59.3826175,40.2460365 58.6257908,41.2090307 57.9250893,42.214326 C57.2235243,43.2191895 56.578948,44.2672174 55.9982681,45.3515031 C55.8411175,45.6139417 55.6956238,45.8832866 55.5579012,46.1573796 C55.4206103,46.4306092 55.2902271,46.7081553 55.1632978,46.9878596 C55.0363685,47.2675639 54.9128931,47.5485631 54.7881225,47.8291307 C54.6633519,48.1092666 54.5377178,48.3885393 54.4060394,48.6647904 C54.3512094,48.8059375 54.2981063,48.9496745 54.245435,49.093843 C54.1931954,49.2380116 54.1418192,49.3826118 54.0904431,49.527212 C54.0394987,49.6718122 53.9881226,49.8168441 53.9367464,49.960581 C53.885802,50.104318 53.8335624,50.2476232 53.7800276,50.3896336 L53.46659,51.2555083 L53.2304324,52.1330374 L52.7399845,53.9118358 L52.2495366,56.0022801 L51.2617332,60.177989 L49.9104111,66.1670278 L49.4899039,68.0304281 L47.4801901,76.9386646 L43.4119767,95.4863399 L40.0755496,110.698714 L39.7258464,112.299244 L39.5868286,112.935917 L39.2401476,114.520908 L38.2234181,119.177035 L37.2684263,123.421375 L36.786613,125.544624 L36.5003745,127.250043 C36.4792196,127.355796 36.4597917,127.461116 36.4407955,127.566437 C36.4217992,127.670895 36.4040982,127.776215 36.3868289,127.881536 C36.3695596,127.986857 36.3540173,128.092178 36.3380432,128.197067 C36.3233643,128.302387 36.3086854,128.406845 36.2944382,128.512166 C36.2357226,128.96798 36.1912542,129.4225 36.1588743,129.877451 C36.1260626,130.331538 36.1049077,130.785626 36.0923875,131.238851 C36.0794355,131.691644 36.0751182,132.144437 36.0751182,132.595071 C36.0755499,133.047001 36.0807307,133.497204 36.0872067,133.945249 C36.1385829,134.49214 36.1895273,135.036873 36.2486746,135.579879 Z M77.3763558,98.9524287 C77.912999,94.4741384 79.2401441,90.2328199 81.1812124,86.395087 C83.1227125,82.5556276 85.681158,79.1128476 88.6804022,76.2355191 C89.8072235,75.1546865 90.9975094,74.153276 92.2404667,73.239489 C93.4834239,72.3261336 94.7803477,71.5008333 96.1221717,70.7730842 C97.0162893,70.2874864 97.9298348,69.8454846 98.8606496,69.4496685 C100.261621,68.8535703 101.701016,68.3619295 103.170201,67.9825158 C103.782398,67.8245347 104.399775,67.6864091 105.021469,67.5685707 C106.886985,67.2146239 108.793083,67.0428303 110.721199,67.0726136 C114.85115,67.1364967 118.69918,68.1158933 122.121954,69.8372834 C122.981101,70.2697891 123.813049,70.7484805 124.616071,71.2716312 C126.221683,72.3166375 127.71116,73.5381856 129.065072,74.9125351 C129.742028,75.6005731 130.384878,76.3257324 130.991893,77.0871496 C133.429022,80.1449046 135.281154,83.7732909 136.399772,87.7918819 C136.811645,89.2737104 137.122492,90.8094942 137.327133,92.3871473 C137.408299,93.0138921 137.4709,93.6484065 137.517527,94.2876689 C137.594807,95.3434663 137.625028,96.4160977 137.606032,97.5025417 C137.606032,97.5107429 137.606464,97.5185125 137.606464,97.5258504 C137.586604,98.6204956 137.516663,99.729385 137.392325,100.851224 C136.884176,105.468071 135.531558,109.844062 133.522708,113.800065 C131.514289,117.754341 128.853523,121.281723 125.731235,124.204374 C124.618661,125.245064 123.429671,126.178707 122.209595,127.057099 C121.836147,127.326012 121.467016,127.603127 121.084501,127.856069 C119.215963,129.090998 117.25115,130.144637 115.20258,130.960873 C113.76707,131.531504 112.295727,131.994225 110.797184,132.338676 C110.298533,132.453061 109.795565,132.554929 109.29087,132.642552 C108.280616,132.818662 107.260433,132.940385 106.233342,133.006858 C105.205387,133.072468 104.170525,133.081964 103.130482,133.031462 C98.9897375,132.832906 95.1654529,131.713226 91.7962142,129.865796 C89.2796467,128.484972 87.016506,126.698836 85.0646443,124.585514 C84.4135921,123.881506 83.7970783,123.140376 83.2172619,122.365577 C80.9066307,119.280629 79.1766794,115.66217 78.1595181,111.695808 C77.1445155,107.740669 76.8392808,103.432877 77.3763558,98.9524287 Z" id="Shape" fill="#FFFFFF"></path>
                    <g id="Shape">
                        <path d="M212.880715,149.828395 C212.877693,149.554303 212.871649,149.278915 212.862582,149.004822 C212.853516,148.71778 212.841427,148.431601 212.831066,148.146285 C212.820704,147.859674 212.811206,147.57479 212.806025,147.29077 L212.800413,147.186744 L212.757671,146.43137 L212.720974,145.73254 L212.677369,145.006086 L212.638081,144.353443 L212.294423,138.868563 C212.067763,135.221616 211.835491,131.580712 211.598902,127.946714 C211.361881,124.318328 211.121838,120.696416 210.879636,117.081411 C210.637866,113.472448 210.393937,109.869529 210.15044,106.272653 C209.906943,102.682683 209.663446,99.0978922 209.422971,95.5204397 L208.857834,87.3106006 L208.686004,84.8195922 L207.887299,74.1817644 C207.758211,72.4163469 207.626533,70.6526559 207.493128,68.8902599 C207.359722,67.1291587 207.225454,65.3706475 207.088163,63.6121362 C206.951304,61.8557832 206.813149,60.100725 206.672405,58.3478251 C206.55152,56.841393 206.428908,55.3366875 206.304569,53.8328453 C206.284709,53.5876724 206.265281,53.3420678 206.244558,53.0973266 L205.39275,42.640357 L205.277046,41.3273008 C205.276614,41.3208261 205.275751,41.3130566 205.275319,41.3057186 C205.273592,41.2634177 205.270138,41.2189585 205.266253,41.1701829 C205.261072,41.1136378 205.254596,41.0527762 205.24812,40.990188 C205.241212,40.9271682 205.233873,40.8619902 205.226533,40.7959489 C205.226533,40.7924958 205.225238,40.788611 205.225238,40.7847262 C205.21833,40.7221381 205.210991,40.658255 205.204083,40.5960985 L205.10349,39.7785677 L205.000306,39.0033379 L204.676506,36.5593785 C204.625562,36.2965082 204.571164,36.0332063 204.515038,35.7711994 C204.458913,35.5091924 204.401061,35.2480488 204.342346,34.9864734 C204.284062,34.7257614 204.224483,34.4650494 204.164472,34.2039057 C204.105756,33.9431937 204.046177,33.6829133 203.987893,33.4222013 L203.806566,32.6461082 L203.623943,31.8704467 L203.138676,30.35754 C202.827397,29.3462018 202.483738,28.3499711 202.108563,27.3714377 C201.732524,26.3924726 201.325832,25.4307733 200.888487,24.4880662 C200.015525,22.6056736 199.021677,20.7996816 197.916442,19.0843346 C196.813366,17.3724407 195.60063,15.7503285 194.286437,14.233537 C192.975266,12.7201986 191.563502,11.3108861 190.061505,10.0215701 C189.691942,9.70344965 189.314176,9.39525696 188.933388,9.09267561 C188.892374,9.05987079 188.853518,9.02533939 188.812072,8.99253457 C188.389406,8.65930661 187.959832,8.3347115 187.524214,8.01918088 C187.088596,7.70365027 186.647366,7.3967525 186.200955,7.09848758 C185.754112,6.8006543 185.302088,6.51102223 184.845747,6.22959136 C184.621678,6.09189743 184.394155,5.95981484 184.167927,5.8251424 C184.010777,5.73190764 183.855785,5.63565138 183.696908,5.54414318 C183.461613,5.40860746 183.223729,5.27868309 182.98714,5.14789543 C182.83517,5.06329351 182.684064,4.97610174 182.53123,4.89322639 C182.140081,4.6817216 181.745909,4.47582816 181.350011,4.27511443 C180.954112,4.0744007 180.556055,3.87929832 180.155408,3.68894401 C179.258268,3.30219239 178.349903,2.94047603 177.431177,2.60552151 C177.124647,2.49329448 176.809914,2.40480778 176.500794,2.29905538 C175.885144,2.08927716 175.272084,1.87259266 174.647367,1.68957627 C173.709645,1.41462004 172.762424,1.17117371 171.805705,0.963122055 C170.848986,0.755933688 169.883633,0.583708358 168.908782,0.450762489 C168.686871,0.413209598 168.463234,0.383857912 168.238733,0.357959366 C168.21801,0.355801154 168.197718,0.35148473 168.176995,0.34975816 C167.932203,0.32299633 167.686116,0.30184585 167.440028,0.284148511 C167.193941,0.266019529 166.948717,0.250480401 166.70263,0.234509631 C166.456542,0.218107219 166.21175,0.200841521 165.967389,0.179691042 C165.938032,0.17753283 165.908674,0.174942975 165.879748,0.172784763 C165.699715,0.158972206 165.520115,0.144296363 165.33447,0.130483805 C165.119467,0.114513035 164.897557,0.0989739075 164.661831,0.086456277 C164.4274,0.0743702889 164.179154,0.0653057979 163.90889,0.0605577311 C163.907163,0.0605577311 163.905436,0.0605577311 163.903709,0.0605577311 L163.903277,0.0605577311 C163.631718,0.0566729492 163.339003,0.0571045917 163.017794,0.0653057979 L160.05827,0.125304096 C159.838086,0.136095157 159.625242,0.148612787 159.417147,0.162425345 C159.209052,0.176669545 159.004843,0.19177703 158.80236,0.2077478 C158.60031,0.223286928 158.399122,0.238826055 158.195777,0.253501898 C158.193618,0.253501898 158.191027,0.25393354 158.188869,0.25393354 C157.988545,0.268609383 157.786063,0.282421941 157.579695,0.294939571 L147.905869,1.01491915 C145.079318,1.22253916 142.26356,1.43404395 139.451688,1.64684367 C139.073922,1.67533207 138.693566,1.70295718 138.316232,1.73144558 C138.123247,1.74612143 137.932422,1.76079727 137.740301,1.77504147 C134.756599,2.00079046 131.779373,2.2269711 128.812509,2.45099352 C125.663453,2.6888285 122.523896,2.92493691 119.392974,3.15500232 C118.977216,3.18521729 118.564048,3.21327405 118.14829,3.24348902 C115.445645,3.44074961 112.746887,3.63585199 110.058058,3.82188988 C108.511593,3.92505242 106.966423,4.02994153 105.423844,4.13569393 C104.666585,4.18792266 103.910622,4.23928811 103.153795,4.29065356 C102.371928,4.34460886 101.589198,4.39856417 100.809057,4.45122454 C100.171821,4.49395715 99.5380375,4.53366825 98.9016642,4.57467428 C98.0058197,4.63337765 97.1095434,4.69423923 96.2158576,4.74948946 C95.5617832,4.79006385 94.9107309,4.82459525 94.2583834,4.86257978 C93.3884428,4.91394523 92.5163436,4.96790054 91.6485617,5.01408628 L82.5821837,5.53162555 L78.071013,5.79363251 L76.9428965,5.85492573 L75.6489949,5.97103755 C75.6299987,5.97276412 75.6118659,5.97449069 75.5933014,5.9766489 C75.395568,5.99736773 75.1978346,6.01679164 75.0013965,6.03492063 C74.7863938,6.05563946 74.5713911,6.07506337 74.3568201,6.09578221 C74.2497505,6.10614163 74.1426809,6.11822762 74.0351796,6.12945032 C73.92811,6.14024138 73.8206086,6.1506008 73.713539,6.16268679 C73.5581154,6.18038413 73.4018283,6.20196625 73.2455412,6.22354837 C73.1868256,6.23218122 73.1281101,6.23779257 73.0693945,6.24685706 C72.8716611,6.27923024 72.6747912,6.32627927 72.476626,6.3612423 C71.8147804,6.47951233 71.1529348,6.59907728 70.4928162,6.74626735 C70.1586554,6.82050985 69.827085,6.91676611 69.4937877,6.99920982 C68.9726868,7.12740762 68.4502907,7.24697257 67.9313485,7.39459429 C67.4719854,7.52451866 67.0173713,7.68120486 66.5601668,7.82623672 C66.1716077,7.94968645 65.78089,8.05975527 65.3944896,8.19399607 C64.5539068,8.48621799 63.7189366,8.80563339 62.8900106,9.15094734 C62.8438152,9.16907632 62.7984833,9.19152173 62.752288,9.21051399 C62.5916836,9.27785021 62.4306474,9.34604972 62.2713382,9.41942893 C62.0666971,9.51309534 61.8624877,9.61150981 61.6587101,9.71035593 C61.4549325,9.81006533 61.2520183,9.91063802 61.0482407,10.0099158 C60.8453265,10.1096252 60.6411171,10.207608 60.4360443,10.3017061 L59.9926552,10.5196855 L59.2116515,10.9034156 C59.1127848,10.9547811 59.0139181,11.0087364 58.9154832,11.0648499 C58.8166165,11.1209634 58.7181815,11.1775086 58.6197465,11.2362119 C58.5208798,11.294052 58.4224449,11.3527554 58.3235782,11.4105955 C58.2247115,11.4684356 58.1258448,11.5262756 58.0261146,11.5815259 C57.8305399,11.6997959 57.6349652,11.816771 57.438527,11.9333145 C57.2429523,12.0498579 57.0465141,12.1659697 56.8509394,12.2833765 C56.7266005,12.357619 56.6022616,12.4331564 56.4779227,12.5073989 C56.4071186,12.5509948 56.335451,12.5932957 56.2646469,12.6360283 C56.0695039,12.7551616 55.8752244,12.8755899 55.6809449,12.997313 L53.4048522,14.5844623 C52.7576855,15.0704916 52.1187217,15.5750816 51.4853705,16.0883045 C51.3955702,16.1608204 51.302316,16.227725 51.2129474,16.3011042 C50.492818,16.8907278 49.7834818,17.4980487 49.0901198,18.127815 C48.3967577,18.7571497 47.718938,19.4067715 47.0605463,20.0805653 C46.4021545,20.7539275 45.7636225,21.4514617 45.1488357,22.1748944 C45.098323,22.2310079 45.049969,22.2845316 44.9998881,22.3397818 C44.9683716,22.3747449 44.9364234,22.4105712 44.9053387,22.4451026 C44.8246048,22.5344526 44.745166,22.6216443 44.666159,22.7088361 C44.587152,22.7964595 44.508145,22.8832197 44.4304332,22.9708431 C44.3518579,23.0584665 44.2741461,23.1460899 44.196866,23.2363032 L43.3148369,24.3663431 C43.1723653,24.5545392 43.0264398,24.7414403 42.8800825,24.9274782 C42.8364776,24.9822968 42.7924409,25.0379787 42.7492676,25.0932289 C42.6456519,25.2240166 42.5416044,25.3552359 42.4379887,25.4868868 C42.290768,25.6746513 42.1444107,25.8619841 42.0015073,26.0523384 C41.8577405,26.243556 41.7178592,26.4360685 41.5814318,26.6328975 L39.9961108,29.0289446 C39.8570931,29.2257735 39.7262782,29.4264873 39.6002123,29.6302225 C39.47501,29.834821 39.3549884,30.0415777 39.2371255,30.2491978 C39.1248751,30.4464583 39.0147834,30.6454455 38.9038282,30.844001 C38.8973522,30.8547921 38.8917397,30.8651515 38.8856954,30.8759426 C38.8805146,30.8850071 38.8753338,30.8940715 38.870153,30.9027044 C38.7579026,31.1034181 38.6447888,31.3028369 38.5264941,31.5013924 C38.3892033,31.7267098 38.255798,31.9537537 38.1258466,32.1838191 C37.9958952,32.4143162 37.8702611,32.6461082 37.7463539,32.8791951 C37.6725277,33.0199105 37.6008601,33.1619209 37.5287608,33.3034996 C37.4812703,33.397166 37.4320528,33.4904008 37.384994,33.5844988 C37.2671311,33.8214705 37.1514268,34.0584422 37.0378812,34.2967088 L31.3813248,34.3005936 L25.722178,34.3044784 L24.020721,47.449717 L22.803236,56.8573638 L22.803236,56.8577954 L22.8036677,56.8577954 L29.8119779,56.9337645 L29.0521291,59.6945495 L25.9760365,70.8796998 L25.8603323,71.3005512 L25.7631925,71.6471601 L23.1335112,80.9939453 L17.5391242,80.8635893 L13.8534256,80.7776924 L10.8779267,103.602081 L16.7028587,103.806679 L16.2124109,105.552241 L15.6844023,107.430749 L14.9504574,110.043049 L12.1960054,119.762342 L10.8494324,124.642923 L10.1841329,127.080408 L9.95661001,128.058078 L3.03119239,127.726145 L0.000431732287,150.840597 L0.000863464575,150.840597 L7.68915204,151.301591 L9.01068457,151.381013 C9.0525626,151.612805 9.0965993,151.843734 9.14106772,152.074231 C9.18683135,152.30516 9.23389017,152.534794 9.28310765,152.764427 C9.33232513,152.993198 9.38370127,153.2224 9.43766781,153.450307 C9.44068993,153.462825 9.44414379,153.475342 9.44673418,153.488723 C9.48084103,153.632892 9.51710655,153.776629 9.55294033,153.919934 C9.57064135,153.990292 9.58661544,154.061944 9.60517993,154.132302 C9.63022041,154.244529 9.65569261,154.357188 9.68202828,154.468552 C9.70793222,154.579915 9.73426789,154.691711 9.76103529,154.803506 C9.78780269,154.91487 9.81543356,155.025802 9.84349616,155.136734 C9.87155875,155.248098 9.89962135,155.35903 9.92854742,155.46953 C10.1487309,156.316845 10.3965452,157.151209 10.6681048,157.974783 C10.9392327,158.798357 11.2336741,159.61114 11.5479752,160.413131 C11.8618446,161.215986 12.1955737,162.008482 12.5439816,162.790618 C12.8919578,163.574912 13.2550447,164.347984 13.6293566,165.112854 C13.7454926,165.322201 13.8633555,165.531116 13.9816501,165.739167 C14.0420927,165.847078 14.1042621,165.954125 14.1651364,166.061604 C14.2229885,166.162177 14.2799771,166.262749 14.3378293,166.363754 C14.4574191,166.571374 14.577009,166.779425 14.6965988,166.987045 C14.8161886,167.194234 14.9353468,167.401854 15.0545049,167.609474 L15.7871546,168.832748 L16.6260104,169.983507 L16.7278992,170.122928 L18.2998365,172.27855 C18.4513745,172.457682 18.6046395,172.633792 18.7596314,172.80947 C18.9146232,172.984285 19.0709103,173.158237 19.2280609,173.331758 C19.3847797,173.504846 19.5427937,173.677935 19.6999443,173.851023 C19.7979475,173.958502 19.8946555,174.065981 19.9917953,174.174324 C20.0513744,174.240796 20.1113851,174.306406 20.1709642,174.372879 C20.4736085,174.73589 20.7909318,175.079909 21.1181848,175.410547 C21.1181848,175.410547 21.1181848,175.410547 21.1186166,175.410979 C21.193738,175.486517 21.2736085,175.556874 21.3495933,175.631548 C21.6051789,175.882764 21.8620596,176.131822 22.1262797,176.372678 C22.4699386,176.684324 22.8192101,176.99079 23.1697767,177.296825 C23.5203433,177.602859 23.8730686,177.908894 24.2219083,178.220971 C24.3907156,178.379384 24.5681576,178.525711 24.7499168,178.66729 C24.9325396,178.808005 25.1194797,178.941814 25.3081467,179.073897 C25.4031278,179.14037 25.4994041,179.206411 25.5952487,179.272884 C25.6889346,179.33763 25.7834839,179.402808 25.8767381,179.467986 C25.9730144,179.534891 26.0667003,179.60568 26.1616814,179.674311 C26.2545039,179.741216 26.3481898,179.805962 26.4384218,179.875025 C26.6322696,180.002791 26.8226636,180.134874 27.0126258,180.267388 C27.0583894,180.29933 27.104153,180.33084 27.1499166,180.362781 C27.2936835,180.463354 27.4370186,180.56479 27.5812172,180.664068 C27.7716111,180.795718 27.9628685,180.924348 28.1567163,181.048661 C28.3514276,181.172111 28.5487292,181.291244 28.7503482,181.400881 L31.1766837,182.726023 C31.2328089,182.754512 31.2880706,182.783432 31.3437641,182.812352 C31.3994575,182.84084 31.455151,182.870192 31.5112762,182.899975 C31.5177522,182.903428 31.5242282,182.906882 31.5307042,182.910335 C31.5799216,182.936233 31.6291391,182.9617 31.6783566,182.987599 C31.7305962,183.015655 31.7824041,183.043281 31.8346437,183.070474 C31.8385293,183.072201 31.8419831,183.073927 31.845437,183.075654 C31.8916323,183.100257 31.937396,183.124861 31.9840231,183.14817 C32.0302184,183.172342 32.075982,183.19565 32.1226091,183.219822 C32.1454909,183.231045 32.1683727,183.242699 32.1912546,183.253922 C32.2145681,183.266008 32.2383134,183.278094 32.2616269,183.289317 C32.3078223,183.313489 32.3544494,183.335503 32.4006447,183.357948 L33.6820261,183.865128 L36.2516967,184.871286 C36.4692898,184.943802 36.6886098,185.010707 36.9096567,185.072432 C37.1311354,185.134588 37.3534775,185.193292 37.5766831,185.250268 C37.7998887,185.306814 38.023526,185.361632 38.2467316,185.417746 C38.4703689,185.472564 38.6931428,185.529109 38.9141897,185.588244 L40.2504012,185.933558 L41.4985392,186.216716 L43.0108974,186.506348 L43.7077133,186.639725 L48.1247664,187.505168 L57.054717,189.175193 L59.515591,189.634892 L75.1645913,192.554953 L151.263883,206.560455 C151.615313,206.62736 151.967607,206.689085 152.320332,206.747356 C152.355302,206.752968 152.388977,206.759874 152.423516,206.765485 C152.811211,206.828937 153.201066,206.887209 153.590488,206.940301 C153.981206,206.993393 154.373219,207.041737 154.7648,207.084037 C155.157676,207.127633 155.551848,207.164755 155.946883,207.197991 C157.636251,207.337412 159.341594,207.382734 161.053844,207.333527 C162.768253,207.284751 164.489138,207.141446 166.205274,206.902748 C167.064421,206.783183 167.923137,206.640741 168.77883,206.474558 C169.634523,206.307513 170.488922,206.117158 171.338139,205.903064 C172.189515,205.689832 173.036574,205.451134 173.878884,205.189127 C174.721625,204.927552 175.558322,204.642236 176.388975,204.333612 C178.446179,203.579101 180.461938,202.683443 182.423729,201.654407 C184.388111,200.624508 186.297231,199.462095 188.137706,198.177959 C188.823728,197.698836 189.489891,197.186908 190.155191,196.67498 C191.277695,195.812559 192.380339,194.920354 193.440242,193.968582 C194.28471,193.208891 195.108455,192.422007 195.909319,191.608793 C196.710182,190.795579 197.488164,189.956466 198.241537,189.092318 C198.655568,188.620964 199.045422,188.124575 199.446501,187.638546 C199.77764,187.236255 200.122594,186.846482 200.444235,186.434695 C201.153571,185.524793 201.837867,184.592014 202.494963,183.636789 C203.152491,182.682859 203.781957,181.706052 204.382928,180.70939 C204.983036,179.712296 205.55465,178.695346 206.093883,177.660268 C206.636139,176.622599 207.148174,175.568529 207.62826,174.498919 C208.108346,173.430604 208.556916,172.347181 208.973106,171.252104 C209.388433,170.156164 209.772674,169.047706 210.122809,167.929752 C210.2601,167.493794 210.367601,167.049634 210.494531,166.610653 C210.692264,165.92391 210.901654,165.240189 211.075211,164.547402 C211.363608,163.412183 211.617035,162.267467 211.835491,161.118435 C212.053516,159.969834 212.23657,158.816486 212.385086,157.659684 C212.534034,156.503314 212.648443,155.345649 212.728313,154.188416 C212.807752,153.031182 212.854811,151.874812 212.867331,150.722759 C212.877693,150.444781 212.881147,150.165508 212.87942,149.886667 C212.878988,149.879329 212.87942,149.871991 212.87942,149.863359 L212.87942,149.862927 C212.881147,149.852567 212.880715,149.840913 212.880715,149.828395 Z M179.045856,143.322249 C179.044129,143.373183 179.045424,143.425412 179.042833,143.475482 C179.043265,143.728425 179.041107,143.980935 179.035494,144.235173 C179.030313,144.487252 179.021679,144.740626 179.009158,144.994 C178.99707,145.246943 178.981528,145.500317 178.962963,145.752828 C178.943967,146.00577 178.92238,146.258281 178.89734,146.511223 C178.864096,146.83625 178.825672,147.159982 178.782499,147.483714 C178.738894,147.807877 178.689676,148.131177 178.634846,148.454478 C178.580448,148.776483 178.520006,149.098488 178.454814,149.419198 C178.389191,149.740772 178.317523,150.061051 178.241538,150.380035 C177.973433,151.512664 177.635818,152.631913 177.23258,153.728716 C176.829342,154.826383 176.360049,155.901173 175.829882,156.946611 C175.564798,157.468898 175.284604,157.984279 174.989299,158.490164 C174.693994,158.995617 174.38401,159.494164 174.059779,159.98192 C173.735548,160.469676 173.396639,160.947505 173.044345,161.415405 C172.692483,161.88201 172.326806,162.33912 171.947745,162.784143 C171.193077,163.681096 170.389623,164.528842 169.542133,165.321769 C168.695506,166.114696 167.806569,166.851941 166.881367,167.528325 C165.95746,168.204277 164.997719,168.819368 164.009915,169.36669 C163.023839,169.914444 162.009268,170.394862 160.974406,170.801901 C160.942889,170.814419 160.911373,170.826505 160.879856,170.838591 C160.839273,170.854562 160.799122,170.870532 160.758971,170.88564 C160.687304,170.913697 160.616068,170.940458 160.543968,170.96722 C160.472301,170.993982 160.400202,171.021176 160.328102,171.046642 C160.256435,171.072973 160.184335,171.098871 160.112236,171.123906 C159.337277,171.398863 158.552819,171.634108 157.762317,171.82921 C156.972247,172.024744 156.175269,172.180567 155.374406,172.295816 C154.574838,172.410633 153.770952,172.48617 152.966203,172.520701 C152.161886,172.55437 151.356274,172.548327 150.55282,172.500846 C150.445318,172.49394 150.358109,172.487897 150.273057,172.481422 C150.264423,172.48099 150.255356,172.481422 150.246722,172.481422 C150.188438,172.476674 150.130586,172.472357 150.072734,172.467609 C150.01445,172.463725 149.957029,172.458545 149.898745,172.453365 C149.846074,172.448617 149.793403,172.444301 149.741595,172.439553 C149.736414,172.438258 149.730802,172.437826 149.725621,172.437826 C149.667769,172.432215 149.609917,172.426603 149.552496,172.42056 C149.436792,172.409338 149.321519,172.396388 149.205815,172.383439 C149.090111,172.369627 148.974838,172.355382 148.859134,172.339843 C148.744293,172.325167 148.628589,172.308765 148.512885,172.291931 C148.398476,172.274665 148.282771,172.256968 148.167931,172.238839 L83.7012338,161.436555 L62.2096005,157.874642 L53.3698819,156.409648 C53.3046903,156.394972 53.239067,156.382886 53.1738755,156.369505 C53.1190455,156.358714 53.0650789,156.347059 53.0106807,156.336268 C52.8906591,156.313391 52.7702058,156.290946 52.6501842,156.267206 C52.5305944,156.243897 52.4110045,156.219293 52.2927099,156.191668 C52.1744152,156.164043 52.0565523,156.133828 51.940848,156.098865 L51.3947067,155.906784 L51.1218519,155.810528 L50.9564984,155.752256 L50.5679394,155.616289 L49.8728504,155.388813 C49.8188839,155.36421 49.7649173,155.339174 49.7113825,155.313276 C49.657416,155.286946 49.6043129,155.260615 49.5507781,155.233854 C49.5244424,155.220473 49.4981068,155.206229 49.4717711,155.193279 C49.4441402,155.179467 49.4169411,155.165654 49.3901737,155.152273 C49.3370706,155.125511 49.2831041,155.097886 49.230001,155.071556 L49.1544479,155.03573 L47.9209887,154.437042 C47.8622731,154.41028 47.8061479,154.375749 47.7487275,154.343807 C47.6999418,154.317477 47.6498608,154.293305 47.6015068,154.265248 C47.5648096,154.242803 47.5298393,154.217767 47.4940055,154.19489 C47.427087,154.152158 47.3606002,154.110288 47.2949769,154.065829 C47.2263315,154.019643 47.157686,153.973026 47.0890406,153.92684 C47.0557972,153.904395 47.0234173,153.881518 46.9901739,153.860367 C46.8882851,153.793031 46.7846693,153.727853 46.6788949,153.667423 C46.6542862,153.651021 46.6283822,153.634618 46.6037735,153.618216 C46.5286521,153.566851 46.4535307,153.515485 46.3762506,153.468004 C46.2972436,153.419229 46.2182366,153.370885 46.1392296,153.322109 C46.1150526,153.307002 46.0904438,153.292758 46.0666985,153.27765 C45.9635145,153.213767 45.8620574,153.148589 45.7636225,153.078231 C45.6647558,153.006579 45.5684795,152.931041 45.4782474,152.847734 C45.2921708,152.6863 45.1017769,152.53134 44.9109512,152.378539 C44.7201255,152.225738 44.5275729,152.073799 44.3389059,151.91884 C44.2508325,151.846324 44.1666447,151.768197 44.0802983,151.693954 C43.9805681,151.608057 43.8795428,151.525182 43.7832665,151.434969 C43.6036658,151.266628 43.4296777,151.089655 43.2664829,150.898005 C43.1835903,150.80995 43.0989708,150.724054 43.0143513,150.63902 C43.0121926,150.635998 43.0091705,150.633409 43.0070118,150.630387 L43.0057166,150.629955 C42.9189384,150.542332 42.8312968,150.454709 42.7436551,150.367517 C42.6577404,150.280757 42.5713939,150.193565 42.4863427,150.105078 C42.4846158,150.103352 42.4828888,150.101625 42.4815936,150.10033 C42.3948154,150.010117 42.308469,149.917745 42.2234177,149.822784 L41.3012376,148.636631 L40.8276272,148.047439 L40.4192085,147.399544 C40.394168,147.359401 40.3686958,147.319258 40.3436553,147.279547 C40.3013456,147.212211 40.2594675,147.145306 40.216726,147.077538 C40.1485123,146.970491 40.0807304,146.863012 40.0120849,146.756828 C39.9844541,146.714095 39.9572549,146.672226 39.9291923,146.630357 C39.8873143,146.566474 39.845868,146.501727 39.8031265,146.437413 C39.7327542,146.331229 39.6623818,146.225044 39.5915777,146.120587 C39.3502393,145.663478 39.1110597,145.202484 38.8800829,144.73631 C38.6495378,144.270568 38.4263323,143.798782 38.2178056,143.318796 C38.0084154,142.840105 37.8132724,142.353212 37.6366939,141.856823 C37.4605471,141.360434 37.3029648,140.854549 37.170423,140.33701 C37.0063648,139.828967 36.8690739,139.312723 36.7520744,138.788709 C36.635075,138.264695 36.5392304,137.734206 36.457633,137.198538 C36.3760356,136.663733 36.3082536,136.122885 36.2486746,135.58031 C36.1895273,135.037736 36.1390146,134.493003 36.0897971,133.947407 C36.0833211,133.498931 36.0785721,133.048728 36.0777086,132.59723 C36.0777086,132.146595 36.0815942,131.694234 36.0949779,131.241009 C36.1074981,130.788216 36.128653,130.333697 36.1614647,129.879609 C36.1942763,129.425089 36.238313,128.970138 36.2970286,128.514324 C36.3112758,128.409003 36.3255229,128.304546 36.3406336,128.199225 C36.3566077,128.093904 36.37215,127.988583 36.3894193,127.883694 C36.4066886,127.778374 36.4243896,127.673053 36.4433859,127.568595 C36.4623821,127.463275 36.48181,127.357954 36.5029649,127.252201 L36.7892034,125.546782 L37.2710166,123.423533 L38.2260085,119.179193 L39.242738,114.523066 L39.589419,112.938075 L39.7284368,112.301402 L40.07814,110.700872 L43.4145671,95.4884981 L47.4827804,76.9408229 L49.4924942,68.0325864 L49.9130015,66.169186 L51.2643236,60.1801472 L52.2516953,56.0044384 L52.7425749,53.9139941 L53.2330228,52.1339007 L53.4691803,51.2576665 L53.782618,50.3904969 C53.8365845,50.2497815 53.8883924,50.1060445 53.9393368,49.9627392 C53.9907129,49.8185707 54.0420891,49.6739705 54.0930335,49.5293702 C54.1439779,49.38477 54.1953541,49.2393065 54.2480254,49.095138 C54.3006967,48.951401 54.3537998,48.8080957 54.4086298,48.6669487 C54.5403081,48.3906975 54.6659422,48.1114249 54.7907129,47.8312889 C54.9154835,47.5502897 55.0389589,47.2697221 55.1658882,46.9900178 C55.2928175,46.7103135 55.4232007,46.4327674 55.5604915,46.1595378 C55.6982141,45.8854448 55.8437079,45.6161 56.0008585,45.3536614 C56.5815384,44.2693756 57.2261147,43.2209161 57.9268162,42.2164842 C58.6283812,41.2103257 59.3852079,40.247763 60.1895251,39.333976 C60.9942741,38.4193257 61.8469454,37.5538826 62.7384726,36.7432581 C63.6308632,35.9317704 64.5621097,35.1751012 65.5248727,34.4792936 L66.9966481,33.4765882 C67.1196918,33.3993242 67.243599,33.3237868 67.3696648,33.2495443 C67.4948672,33.1757334 67.6213647,33.1032175 67.7478623,33.0302699 C67.8747916,32.9586173 68.0017209,32.886533 68.1290819,32.8144487 C68.2564429,32.7423644 68.3838039,32.6702801 68.5107332,32.5969009 C68.5754931,32.5615063 68.6389577,32.5252483 68.7028541,32.4889903 C68.7663188,32.453164 68.8297834,32.4164744 68.8928163,32.3802164 C68.956281,32.3443901 69.0197456,32.3085638 69.0832103,32.2731691 C69.1466749,32.2377744 69.2101395,32.203243 69.2744677,32.1704382 L70.0714455,31.8057004 C70.2022603,31.7495868 70.3330752,31.6908835 70.4634584,31.6291586 C70.5938415,31.568297 70.7242247,31.5057089 70.8554713,31.443984 C70.9858544,31.3822591 71.1171011,31.3209659 71.2483477,31.2631258 C71.3804578,31.2052857 71.513863,31.1508988 71.6477,31.1016916 C72.1791625,30.8901868 72.7145105,30.6994008 73.2533124,30.5280388 C73.7921143,30.3571084 74.3352335,30.2060335 74.8792162,30.0709294 C75.4236306,29.9366886 75.9702037,29.8197135 76.5176402,29.7178459 C76.5927617,29.704465 76.6674513,29.6962638 76.7425728,29.6824512 C77.2148879,29.5991442 77.6876347,29.5205853 78.1595181,29.4584288 C78.2847205,29.4433213 78.4099229,29.4320986 78.535557,29.4217392 C78.5476455,29.4213076 78.5588705,29.4200126 78.5713907,29.4187177 C78.7086816,29.4079267 78.8455407,29.3997254 78.9828316,29.3919559 C79.1201225,29.384618 79.2569816,29.3777117 79.393409,29.3703738 C79.5306999,29.3630358 79.667559,29.3556979 79.8035547,29.3457701 L80.2875266,29.3129653 L80.6268682,29.2900883 L81.08839,29.2844769 L81.5745205,29.2775706 L85.4178014,29.2741175 L93.1665324,29.2672112 C93.2718751,29.2659163 93.3772178,29.2654846 93.481697,29.265053 C93.5874714,29.2646214 93.6923824,29.2637581 93.7972933,29.2633264 C93.902636,29.2628948 94.0079787,29.2628948 94.1128896,29.2620315 C94.2182323,29.2615999 94.323575,29.2615999 94.4284859,29.2603049 C94.5036073,29.2603049 94.5778653,29.2603049 94.6521233,29.2598733 C94.7263812,29.2598733 94.8006392,29.2598733 94.8757606,29.2598733 C94.9495868,29.2598733 95.0247082,29.2598733 95.0989662,29.2598733 C95.1732241,29.2598733 95.2479138,29.2598733 95.3221718,29.2598733 L95.3226035,29.2598733 C95.8437044,29.2594417 96.3656687,29.2598733 96.8872013,29.2603049 L96.887633,29.2603049 C97.4104608,29.2620315 97.9328569,29.2637581 98.4556847,29.2659163 C98.4591386,29.2659163 98.4625924,29.2659163 98.4656145,29.2659163 C98.9854202,29.2689378 99.5060894,29.2715276 100.026327,29.2758441 C100.550881,29.2797288 101.075004,29.2844769 101.599559,29.2883617 C102.196213,29.293973 102.793299,29.2995844 103.390816,29.306059 C103.393839,29.306059 103.396429,29.306059 103.399451,29.306059 C103.399451,29.306059 103.399451,29.306059 103.399883,29.306059 C103.999991,29.3116704 104.601394,29.3185767 105.201933,29.3250513 C105.791248,29.3315259 106.380563,29.3375689 106.970309,29.3431803 C106.982829,29.3431803 106.994918,29.3431803 107.007438,29.3436119 C107.609704,29.3492233 108.212403,29.3548346 108.814669,29.3608776 C111.4491,29.3859129 114.088711,29.4191494 116.733071,29.4562706 C119.385203,29.4946868 122.042515,29.5365561 124.707166,29.5810153 C124.751635,29.5814469 124.797398,29.5827418 124.84273,29.5831735 C127.468958,29.627201 130.10123,29.6725235 132.741273,29.716551 C135.433555,29.7618734 138.133609,29.8063326 140.841434,29.8464754 L149.011536,29.9798529 C149.013263,29.9798529 149.014558,29.9798529 149.015421,29.9798529 C149.178616,29.983306 149.346128,29.9867592 149.515799,29.9884857 C149.687628,29.9915072 149.861185,29.9932338 150.033446,29.9949604 C150.205707,29.9971186 150.377105,29.9988451 150.543753,30.001435 C150.709539,30.0044565 150.871438,30.0066147 151.024703,30.0109311 L152.62384,30.1447403 C152.755518,30.1464669 152.886765,30.1555313 153.018011,30.1689123 C153.140623,30.1827248 153.262803,30.1999905 153.384552,30.2194144 C153.392755,30.2207094 153.400958,30.221141 153.409592,30.2228676 C153.539544,30.2435864 153.669927,30.2668951 153.799878,30.2910671 C153.92983,30.3156707 154.059781,30.3402743 154.189301,30.3627197 C154.316662,30.387755 154.44575,30.4097687 154.574406,30.4300559 C154.703494,30.4512064 154.833014,30.4706303 154.961238,30.4922124 C155.089894,30.5137946 155.218551,30.5375349 155.34548,30.5647284 C155.458162,30.589332 155.569117,30.6191153 155.679209,30.6523518 C155.693888,30.6562366 155.708999,30.6592581 155.723246,30.6635745 C156.034525,30.7391119 156.337169,30.8327783 156.642404,30.9208334 C156.837115,30.9769469 157.03528,31.0235643 157.228264,31.0844259 C157.72303,31.2415437 158.210455,31.415064 158.690973,31.6028284 C159.047584,31.7422489 159.396424,31.8972086 159.745695,32.0517365 C159.867444,32.1056918 159.992646,32.1527409 160.113963,32.2084227 C160.119144,32.2114442 160.124325,32.2136025 160.129505,32.216624 C160.592322,32.4294237 161.049527,32.6551727 161.499824,32.8938709 C161.709646,33.0186156 161.913855,33.154583 162.121518,33.2845073 C162.347314,33.4256544 162.576132,33.5624851 162.799338,33.7101068 C163.226321,33.9936958 163.645965,34.2889393 164.055679,34.5984269 C164.465825,34.9070512 164.866472,35.2299198 165.254599,35.5674641 C165.643158,35.9054402 166.018766,36.2585237 166.380557,36.6288729 C166.475107,36.7152014 166.564907,36.8067096 166.652117,36.9012393 C166.739758,36.9962006 166.823946,37.0933201 166.907702,37.1917346 C166.991027,37.2901491 167.074351,37.3894269 167.157675,37.4874097 C167.231502,37.5750331 167.307055,37.659635 167.383471,37.742942 C167.393833,37.7537331 167.402899,37.7653874 167.412829,37.7761785 L167.932635,38.3645071 C167.971491,38.4132827 168.009483,38.4642165 168.046612,38.5160136 C168.083741,38.567379 168.120007,38.6204711 168.15584,38.6731314 C168.167065,38.6903971 168.178722,38.7067996 168.190379,38.7236336 C168.215419,38.7603232 168.240892,38.7961495 168.2655,38.8328391 C168.302629,38.8859312 168.340622,38.9385915 168.379478,38.989957 C168.453736,39.0944145 168.531016,39.1988719 168.609591,39.3020345 C168.650606,39.3564214 168.692915,39.41124 168.734362,39.4656269 C168.771491,39.5144025 168.809483,39.5636098 168.846612,39.6119537 C168.869062,39.6413054 168.890649,39.6706571 168.913099,39.7000088 C168.969656,39.7742513 169.026213,39.8489254 169.081906,39.9244629 C169.158755,40.0289203 169.233876,40.1351044 169.306839,40.2425833 L169.442403,40.4683323 L170.112451,41.5811065 C170.277373,41.8858461 170.431501,42.1966286 170.589515,42.5061162 C170.670249,42.6658239 170.756596,42.8216469 170.834739,42.9830811 C171.065284,43.4565929 171.283741,43.9370109 171.486223,44.4256301 C171.688274,44.914681 171.874782,45.4110698 172.040136,45.9173864 C172.205921,46.4237029 172.350983,46.9395157 172.471005,47.4656878 L172.683417,48.2366012 L172.77883,48.7575936 L172.829774,49.0351397 L173.011102,50.0831675 L173.106083,50.6356698 L173.266255,52.6074124 C173.266687,52.6112972 173.267551,52.6173402 173.267551,52.6207933 C173.277481,52.7123015 173.28482,52.7856807 173.290864,52.8482689 C173.292591,52.8655346 173.293023,52.8784839 173.29475,52.8953179 C173.296477,52.9151735 173.298204,52.9341657 173.299931,52.9527264 C173.301658,52.9721503 173.303816,52.9937324 173.305111,53.0114297 L173.305111,53.0131563 C173.305111,53.0144512 173.305543,53.0153145 173.305543,53.0179044 C173.307702,53.0481193 173.308997,53.083514 173.310292,53.1193403 C173.310724,53.1322896 173.312451,53.1452389 173.312451,53.1586198 L173.370735,54.1902452 L173.37462,54.2606029 L173.856865,63.0881223 C173.933714,64.5673609 174.012289,66.0457362 174.093023,67.5245432 C174.102953,67.6894306 174.112019,67.8551813 174.121085,68.0200687 C174.193185,69.3348516 174.266579,70.6500661 174.341269,71.9652805 C174.41639,73.2748837 174.492375,74.5857817 174.570087,75.8975431 C174.580017,76.0697684 174.589947,76.2424254 174.599877,76.4150824 C174.610238,76.5838546 174.6206,76.7530584 174.630961,76.9231255 C174.709537,78.2392033 174.788112,79.5557127 174.869709,80.874812 L175.41326,89.8063572 L176.0138,98.7676857 C176.192969,101.408906 176.371706,104.054442 176.550443,106.701705 C176.575052,107.059537 176.599229,107.416505 176.622974,107.7752 C176.826752,110.785906 177.030961,113.801792 177.237761,116.82113 C177.444992,119.845217 177.654382,122.873621 177.867658,125.905477 C177.969979,127.363565 178.077048,128.824675 178.181096,130.283626 C178.29421,131.864301 178.406028,133.444112 178.521301,135.027377 L178.856325,139.589405 L178.939649,140.738006 L178.972893,141.307774 C178.983254,141.560716 178.994479,141.786465 179.006136,141.991927 C179.01693,142.197821 179.027723,142.382995 179.035926,142.554789 C179.035926,142.56299 179.035926,142.569465 179.036358,142.577234 C179.036789,142.588025 179.037653,142.598385 179.038084,142.609176 C179.044992,142.753776 179.050173,142.898808 179.0519,143.043408 C179.052332,143.13578 179.048878,143.229014 179.045856,143.322249 Z" fill="#C5171D"></path>
                        <path d="M221.922484,154.787104 C221.920326,154.504378 221.912554,154.222084 221.902625,153.940653 C221.892695,153.652316 221.881038,153.363979 221.869813,153.076505 C221.858588,152.788168 221.848658,152.499399 221.843046,152.21063 L221.790806,151.356841 L221.753245,150.652833 L221.666899,149.265965 L221.309856,143.746122 C221.07413,140.073708 220.833224,136.409064 220.588,132.750894 C220.342776,129.099631 220.093235,125.455274 219.841966,121.817392 C219.591562,118.185552 219.338567,114.561051 219.085571,110.941297 C218.833872,107.327587 218.58174,103.720351 218.332199,100.117863 L217.568896,89.3518377 L216.743424,78.6479687 C216.609155,76.8721917 216.473591,75.0977097 216.335437,73.3249542 C216.197714,71.553062 216.058696,69.7828964 215.917088,68.0144574 C215.775912,66.2477449 215.632577,64.4818957 215.487946,62.7182047 C215.342452,60.955377 215.195664,59.1942759 215.046284,57.4344697 L214.166414,46.9235449 L214.047256,45.602719 C214.045097,45.5552384 214.040348,45.5021464 214.036031,45.4447379 C214.030418,45.3868978 214.024374,45.3256046 214.017034,45.2617215 C214.010127,45.1978384 214.002787,45.1313655 213.994584,45.063166 C213.987245,44.9949665 213.979905,44.9254721 213.972998,44.8559776 L213.869382,44.0332672 L213.432469,40.8045818 C213.380229,40.5369635 213.325399,40.2710717 213.268842,40.0056116 C213.211422,39.7401515 213.153138,39.476418 213.093127,39.2126845 C213.033548,38.9498142 212.973106,38.6860807 212.912231,38.4240738 C212.851789,38.1616352 212.790915,37.8991966 212.732199,37.6371896 L212.362205,36.0759389 L211.869598,34.5539677 C211.237974,32.518342 210.474239,30.5435779 209.588325,28.6452145 C208.703705,26.7503042 207.697769,24.931363 206.579151,23.2043616 C206.021352,22.34194 205.435492,21.5023955 204.822864,20.6878862 C204.210235,19.8729453 203.571703,19.082608 202.907699,18.3186009 C202.244558,17.5554571 201.555945,16.8195068 200.844451,16.1116132 C200.132092,15.4041512 199.395989,14.7238828 198.637003,14.0738293 C198.637003,14.0738293 198.636572,14.0733976 198.635708,14.0733976 C198.635708,14.0733976 198.635708,14.0733976 198.63614,14.0733976 C197.878018,13.4237758 197.096583,12.8048005 196.294856,12.2164719 C195.492697,11.6277116 194.670247,11.0695979 193.83096,10.539541 C192.992104,10.0103474 192.136842,9.50877892 191.268628,9.03483553 C190.835601,8.79915876 190.390485,8.58938054 189.951845,8.3662214 C189.510615,8.14263062 189.07586,7.90565892 188.629881,7.69458578 C188.319465,7.56034498 188.007323,7.42783075 187.694317,7.30006459 C187.381311,7.17186679 187.067442,7.04625884 186.752277,6.92367239 C186.487625,6.82137314 186.22211,6.72252702 185.955299,6.62411255 C185.904355,6.60512028 185.85341,6.58526473 185.802466,6.56627246 C185.761451,6.55159662 185.719573,6.53778406 185.678127,6.52267657 C185.401387,6.42296717 185.123783,6.32498434 184.845315,6.23002301 C185.301656,6.51145387 185.75368,6.8006543 186.200523,7.09891922 C186.646934,7.39761578 187.088596,7.70408191 187.523783,8.01961253 C187.958969,8.33514314 188.388542,8.65973825 188.81164,8.99296621 C188.852655,9.02577103 188.89151,9.06030243 188.932957,9.09310725 C189.314176,9.3956886 189.69151,9.70388129 190.061073,10.0220018 C191.562638,11.3113177 192.974834,12.7206302 194.286005,14.2339686 C195.600198,15.7507601 196.812934,17.3728724 197.91601,19.0847663 C199.021245,20.8001133 200.015093,22.6061052 200.888056,24.4884979 C201.325832,25.4312049 201.732524,26.3924726 202.108131,27.3718693 C202.483306,28.3504027 202.827397,29.3466334 203.138244,30.3579716 L203.623511,31.8708784 L203.806134,32.6465398 L203.987893,33.4226329 C204.045745,33.6833449 204.105325,33.9436253 204.16404,34.2043374 C204.224051,34.4650494 204.28363,34.7257614 204.342346,34.9869051 C204.400629,35.2484804 204.458482,35.5096241 204.515038,35.771631 C204.571164,36.033638 204.624698,36.2965082 204.676506,36.5598101 L204.999874,39.0037695 L205.103058,39.7789994 L205.203651,40.5965301 C205.210559,40.6586866 205.217899,40.7230014 205.224806,40.7851579 C205.224806,40.7890426 205.226102,40.7933591 205.226102,40.7959489 C205.233441,40.8628535 205.24078,40.9280315 205.247688,40.9910513 C205.254596,41.0540711 205.26064,41.114501 205.265821,41.1719095 C205.269706,41.2198218 205.27316,41.2647126 205.274887,41.3070136 C205.275319,41.3143515 205.276182,41.3225527 205.276614,41.3285957 L205.392318,42.641652 L206.244126,53.0986215 C206.264849,53.3433628 206.284277,53.5889673 206.304137,53.8341402 C206.428476,55.3379824 206.551088,56.842688 206.671973,58.34912 C206.812718,60.10202 206.951304,61.8570781 207.088595,63.6134311 C207.225454,65.3715108 207.359722,67.1304537 207.493128,68.8915548 C207.626533,70.6543825 207.758211,72.4176418 207.887299,74.1830594 L208.686004,84.8208871 L208.857834,87.3118956 L209.422971,95.5217346 C209.663878,99.0991871 209.907375,102.683977 210.15044,106.273948 C210.393937,109.870824 210.637866,113.473743 210.879636,117.082706 C211.121406,120.698143 211.361881,124.319623 211.598902,127.948009 C211.835923,131.582007 212.068195,135.223342 212.294423,138.869857 L212.638081,144.354738 L212.677369,145.007381 L212.720974,145.733835 L212.757671,146.432664 L212.800413,147.188039 L212.806025,147.292065 C212.811638,147.576517 212.820704,147.860969 212.831929,148.146717 C212.842291,148.433327 212.853516,148.719074 212.863014,149.006548 C212.87208,149.280641 212.878556,149.556029 212.881147,149.830122 C212.881147,149.84264 212.881578,149.854294 212.881578,149.865948 L212.881578,149.86638 C212.881578,149.875013 212.881147,149.882351 212.881578,149.889689 C212.883305,150.168961 212.879852,150.447802 212.86949,150.72578 C212.85697,151.877834 212.809911,153.034204 212.730472,154.191437 C212.650602,155.348671 212.535761,156.506336 212.387245,157.662706 C212.238729,158.819076 212.055243,159.972856 211.83765,161.121456 C211.619193,162.270489 211.365766,163.414773 211.077369,164.550424 C210.904245,165.24321 210.694854,165.9265 210.496689,166.613675 C210.36976,167.052223 210.262259,167.496815 210.124968,167.932774 C209.774833,169.050728 209.390591,170.159186 208.975265,171.255126 C208.558643,172.350203 208.110505,173.433625 207.63085,174.50194 C207.150332,175.57155 206.63873,176.625621 206.096474,177.663289 C205.556377,178.698368 204.984763,179.715317 204.384655,180.712411 C203.784116,181.708642 203.154218,182.685449 202.49669,183.63981 C201.839162,184.595035 201.155298,185.527814 200.445962,186.437717 C200.124321,186.849504 199.779367,187.239708 199.448228,187.641567 C199.047149,188.127597 198.657727,188.623986 198.243264,189.095339 C197.489891,189.959487 196.711909,190.7986 195.911046,191.611815 C195.110182,192.425029 194.286437,193.212345 193.441969,193.971604 C192.382498,194.923375 191.279422,195.81558 190.156918,196.678002 C189.491618,197.18993 188.825024,197.701858 188.139433,198.180981 C186.298958,199.465117 184.39027,200.627098 182.425456,201.657429 C180.463664,202.686464 178.447906,203.582122 176.390702,204.336633 C175.560049,204.645258 174.72292,204.931005 173.880611,205.192149 C173.038733,205.454156 172.191242,205.692422 171.339866,205.906085 C170.490217,206.119748 169.63625,206.310534 168.780557,206.47758 C167.924864,206.643762 167.066148,206.786204 166.207001,206.905769 C164.490865,207.144036 162.76998,207.287773 161.055571,207.336548 C159.343321,207.385756 157.637978,207.340433 155.94861,207.201013 C155.554007,207.167776 155.159835,207.130655 154.766527,207.087059 C154.374514,207.044758 153.982933,206.996846 153.592215,206.943322 C153.202793,206.89023 152.812938,206.831958 152.425243,206.768507 C152.390704,206.762895 152.357029,206.755989 152.322059,206.750378 C151.968902,206.692106 151.616608,206.630381 151.26561,206.563477 L75.1663182,192.557975 L59.517318,189.637914 L57.0564439,189.178214 L48.1264933,187.50819 L43.7094403,186.642747 L43.0126243,186.509369 L41.5002661,186.219737 C41.4527756,186.208946 41.4074437,186.199882 41.3629753,186.191249 C41.3189386,186.182184 41.2749019,186.173552 41.22957,186.164919 C41.1842381,186.156286 41.1380427,186.14679 41.0888253,186.13643 C41.0396078,186.126502 40.9869364,186.11528 40.9299478,186.101036 L40.2521281,185.937011 L38.9159167,185.591698 C38.694438,185.532994 38.4720959,185.476017 38.2484585,185.421199 C38.025253,185.365085 37.8016156,185.310267 37.57841,185.253721 C37.3552044,185.196313 37.1328623,185.138041 36.9113837,185.075885 C36.6907685,185.01416 36.4710167,184.947255 36.2534236,184.874739 L33.6837531,183.868581 L32.4023716,183.361401 C32.3561763,183.338956 32.3095492,183.316942 32.2633538,183.29277 C32.2400403,183.281547 32.216295,183.269461 32.1929815,183.257375 C32.1700997,183.246153 32.1472179,183.234498 32.124336,183.223275 C32.0781407,183.199104 32.0323771,183.175795 31.98575,183.151623 C31.9395546,183.128314 31.893791,183.103711 31.8471639,183.079107 L31.8484591,183.080402 C32.0073366,183.217232 32.1718266,183.345862 32.3393387,183.471038 C32.4079842,183.522404 32.4787883,183.571179 32.5491606,183.621681 C32.6493225,183.694197 32.7486209,183.767577 32.8505098,183.837934 C32.9247677,183.890595 33.0003209,183.94196 33.075874,183.994189 C33.1730138,184.061093 33.2705853,184.12843 33.367725,184.196198 C33.5257391,184.306698 33.6815944,184.418925 33.8361546,184.533742 C33.84997,184.544101 33.8642172,184.553597 33.8784643,184.56482 C34.0740391,184.69345 34.2661599,184.826827 34.4578491,184.961931 C34.6495382,185.097035 34.8399321,185.232571 35.0316213,185.36638 C35.2237421,185.499758 35.415863,185.630977 35.6123012,185.757017 C35.6533158,185.783347 35.696489,185.806224 35.7375036,185.832122 C35.8937907,185.929242 36.0500777,186.027225 36.2115456,186.114848 L38.6611946,187.443444 C38.7643786,187.496536 38.8671309,187.550491 38.9703149,187.604015 C39.0726355,187.658401 39.174956,187.712788 39.2781401,187.766312 C39.3808923,187.820699 39.4840764,187.874223 39.5872604,187.927746 C39.6559058,187.962709 39.7245512,187.996809 39.7931967,188.031341 C39.828167,188.048606 39.8622738,188.066304 39.8968124,188.082706 L40.7999964,188.440969 L41.1902824,188.595497 L42.0718797,188.942106 L43.7836982,189.614173 C43.8178051,189.625396 43.8536388,189.635324 43.8877457,189.646115 C44.0729588,189.706976 44.2590355,189.765248 44.4472707,189.820067 C44.5383662,189.845965 44.6303252,189.869274 44.7214207,189.894309 C44.8539625,189.930136 44.9869361,189.96812 45.1203414,190.00222 C45.3452739,190.060923 45.5706381,190.118332 45.7955707,190.175308 C46.0209349,190.233149 46.2458674,190.290989 46.4695048,190.350124 L47.1015608,190.510263 L47.8182364,190.691553 L48.3250901,190.815003 L48.5025321,190.857735 C48.5288678,190.865073 48.5517496,190.870253 48.5763583,190.877159 C48.6048527,190.884497 48.6350739,190.89313 48.6622731,190.899604 C48.668749,190.900899 48.6734981,190.901763 48.6799741,190.903489 C48.681701,190.903489 48.6834279,190.903921 48.6851549,190.904784 C48.7015607,190.908669 48.7171031,190.91169 48.7330772,190.915144 C48.7525051,190.919028 48.7732283,190.923776 48.7917927,190.927661 C48.8047447,190.930683 48.8181284,190.932841 48.8310804,190.934999 C48.8323756,190.935431 48.8328073,190.935431 48.8328073,190.935431 C48.834966,190.935862 48.8366929,190.935862 48.8384198,190.936726 C48.8509401,190.938452 48.8643238,190.941905 48.876844,190.943632 C48.8859104,190.945359 48.8958402,190.947085 48.9049066,190.948812 C48.9131095,190.950107 48.920449,190.951833 48.9277884,190.952697 C48.9433308,190.955718 48.9593049,190.957876 48.975279,190.961329 C49.0067954,190.966509 49.0391753,190.97212 49.071987,190.977732 C49.0650793,190.976437 49.0581716,190.975574 49.0508321,190.974279 C49.0598985,190.976005 49.0685331,190.9773 49.0775995,190.979027 L49.3914689,191.040752 L51.3057699,191.418439 L55.762974,192.289925 L57.0024774,192.525602 L64.7710682,194.000524 L83.042842,197.44244 L159.845426,211.705201 C160.234848,211.780307 160.626429,211.850665 161.019306,211.91498 C161.412182,211.980158 161.806354,212.040156 162.20182,212.094543 C162.597287,212.149361 162.993617,212.198569 163.391675,212.242596 C163.7893,212.287055 164.187789,212.325903 164.588005,212.360003 C165.439813,212.432519 166.295506,212.481294 167.154221,212.505898 C168.012937,212.530933 168.874243,212.532228 169.737707,212.509783 C170.601604,212.487337 171.467659,212.441152 172.333714,212.371226 C173.199769,212.3013 174.065824,212.208065 174.931015,212.09109 C176.663989,211.855845 178.392213,211.52607 180.104895,211.10047 C180.963179,210.887239 181.817145,210.650267 182.665499,210.389555 C183.514285,210.12798 184.358321,209.843959 185.195019,209.534472 C186.23204,209.156353 187.259131,208.743271 188.273702,208.294363 C189.289136,207.84675 190.29205,207.363742 191.280717,206.847929 C192.271543,206.331253 193.247689,205.781772 194.207862,205.199487 C195.168898,204.618496 196.113528,204.0047 197.040889,203.36069 C197.969977,202.716248 198.8805,202.040727 199.771596,201.335855 C200.662691,200.631846 201.53479,199.897191 202.385303,199.136637 C204.087623,197.611644 205.704893,195.976583 207.222863,194.240517 C207.986166,193.375505 208.726155,192.485027 209.44024,191.57124 C210.154757,190.657453 210.844234,189.720357 211.505648,188.761248 C212.167062,187.80257 212.801276,186.821015 213.405701,185.820468 C214.009695,184.819058 214.584762,183.796928 215.12745,182.75667 C215.673159,181.716412 216.187353,180.658888 216.669598,179.585825 C217.151843,178.512762 217.602139,177.425023 218.019624,176.324335 C218.437973,175.222783 218.822646,174.109146 219.175372,172.985149 C219.526802,171.861152 219.84542,170.727227 220.1295,169.584238 C220.419192,168.442112 220.672619,167.291785 220.891076,166.135847 C221.108669,164.98034 221.291723,163.820085 221.439808,162.65724 C221.58746,161.493964 221.700574,160.329393 221.779581,159.164821 C221.858156,158.000682 221.902625,156.8387 221.913418,155.678877 C221.924211,155.388382 221.927233,155.098318 221.924211,154.809549 C221.922916,154.800485 221.922916,154.793578 221.922484,154.787104 Z" fill="#9B1E1B"></path>
                        <path d="M137.6056,97.503405 C137.624596,96.4165294 137.593943,95.3443296 137.517095,94.2885322 C137.5158,94.2691083 137.512778,94.250116 137.511483,94.2306921 C137.464856,93.6108536 137.405276,92.9953315 137.326701,92.3880106 C137.12206,90.8103575 136.811213,89.2750053 136.39934,87.7927452 C135.280722,83.7741542 133.42859,80.1457679 130.991462,77.0880129 C130.384446,76.3265957 129.741597,75.6014364 129.06464,74.9133984 C127.710728,73.5390489 126.221252,72.3175008 124.615639,71.2724944 C123.812617,70.7489122 122.980669,70.2702207 122.121522,69.8381466 C118.698748,68.1171883 114.850287,67.1373599 110.720767,67.0739085 C108.793083,67.0436935 106.886553,67.2150556 105.021038,67.5690024 C104.399343,67.6868408 103.781966,67.825398 103.16977,67.9829475 C101.700585,68.3623612 100.261189,68.8540019 98.8602179,69.4501001 C97.929403,69.8459162 97.0158575,70.2879181 96.12174,70.7735158 C94.7803477,71.5012649 93.4834239,72.3265653 92.240035,73.2399206 C90.9970777,74.153276 89.8072235,75.1546865 88.6804022,76.2359508 C85.6802946,79.1141425 83.1222808,82.5560592 81.1812124,86.3955187 C79.2401441,90.2332515 77.9125673,94.4745701 77.375924,98.9528603 C76.8388491,103.432877 77.1449473,107.7411 78.1586547,111.697103 C79.1758159,115.663465 80.9057672,119.281924 83.2163984,122.366872 C83.7957831,123.141239 84.4127286,123.882369 85.0637809,124.586809 C87.0156425,126.700131 89.2787832,128.486267 91.7953507,129.867091 C95.1650212,131.714521 98.9893058,132.834201 103.129618,133.032757 C104.169662,133.083259 105.204524,133.073763 106.232478,133.008153 C107.260001,132.94168 108.279753,132.819957 109.290006,132.643847 C109.794702,132.556224 110.297238,132.454356 110.79632,132.339971 C112.295295,131.99552 113.766639,131.532799 115.201717,130.962168 C117.103066,130.204204 118.928862,129.235598 120.676082,128.11376 C120.811214,128.027 120.949369,127.946282 121.084069,127.857364 C121.466584,127.604422 121.835715,127.327307 122.209163,127.058394 C123.429239,126.180002 124.61823,125.246359 125.730804,124.205669 C128.853092,121.283018 131.513858,117.755636 133.522276,113.80136 C135.530695,109.845357 136.883744,105.469366 137.391893,100.852519 C137.516232,99.7311116 137.585741,98.6217905 137.606032,97.5271453 C137.606464,97.5193758 137.6056,97.5111746 137.6056,97.503405 Z M125.844349,99.3016274 L125.844349,99.302059 C125.821036,99.6965802 125.820172,100.085058 125.775704,100.484328 C125.641435,101.683862 125.395779,102.848433 125.087523,103.986243 C125.028807,104.202927 124.986497,104.426518 124.920874,104.641044 C124.905332,104.691978 124.883745,104.740754 124.868203,104.792119 C124.470145,106.075392 123.972358,107.314637 123.375704,108.490431 C123.066152,109.100342 122.731991,109.692556 122.374517,110.267935 C121.336632,111.93796 120.098424,113.450866 118.714291,114.776872 C118.670254,114.819173 118.630103,114.867085 118.586066,114.908954 C118.580022,114.913702 118.574841,114.920177 118.569229,114.92622 C118.570524,114.924925 118.571819,114.924062 118.573114,114.922767 C118.571819,114.924062 118.570092,114.925788 118.568365,114.927515 C118.568365,114.927515 118.567933,114.927515 118.567933,114.927515 C118.567502,114.92881 118.566638,114.929242 118.566638,114.929242 C118.565775,114.930537 118.565343,114.930537 118.565343,114.930537 C118.134906,115.335417 117.686768,115.715262 117.229131,116.079569 C117.2287,116.08 117.227836,116.080864 117.227405,116.080864 C116.490006,116.670919 115.715478,117.198386 114.917205,117.68053 C114.916342,117.680962 114.915046,117.681825 114.914183,117.682257 C114.794161,117.754341 114.672413,117.823404 114.551096,117.893762 C114.549801,117.894193 114.548937,117.895057 114.548074,117.895488 C114.178079,118.108288 113.80679,118.314613 113.426434,118.503241 C113.347858,118.543384 113.268419,118.580937 113.189412,118.619784 C112.817259,118.804096 112.441652,118.980206 112.058274,119.134734 C109.689359,120.089959 107.156817,120.567355 104.576785,120.459013 C104.31127,120.448222 104.048345,120.430956 103.787147,120.407647 C103.52638,120.38477 103.266909,120.35585 103.01046,120.320887 C102.75358,120.285924 102.499721,120.24535 102.247158,120.199164 C101.995458,120.152978 101.745485,120.10075 101.498534,120.042909 L101.498102,120.042909 C99.3472119,119.540909 97.3793761,118.621079 95.6567643,117.363273 C94.797617,116.735665 93.999344,116.025613 93.2701482,115.240887 C92.5413841,114.456593 91.880402,113.599351 91.2966999,112.67909 C90.1314545,110.842019 89.2705803,108.753302 88.7749516,106.496243 C88.2806182,104.241775 88.1515302,101.817239 88.4481303,99.3033539 C88.5305911,98.6040932 88.6445685,97.9117387 88.7874719,97.2319019 C89.2174772,95.1910965 89.9117027,93.2478423 90.8235213,91.4470301 C92.0392794,89.0449399 93.6431649,86.893634 95.5237907,85.0980015 C97.4065752,83.3002108 99.5678271,81.8580934 101.897454,80.8786968 C103.648129,80.1427464 105.494216,79.6670765 107.388657,79.4991675 C108.020282,79.4434857 108.657519,79.4214719 109.297778,79.4352845 C109.84176,79.4465072 110.377108,79.4844917 110.90339,79.5457849 C111.429672,79.6075098 111.947319,79.6938383 112.455468,79.8039071 C113.472629,80.0227498 114.450934,80.3365539 115.383908,80.7353915 C116.316881,81.1342291 117.204954,81.6189635 118.040788,82.1813936 C118.876622,82.744687 119.660216,83.3852444 120.383368,84.0940012 C121.370739,85.0617436 122.247156,86.1572521 122.994916,87.3593762 C123.74354,88.563227 124.363508,89.8732617 124.836254,91.2683301 C124.83755,91.2717832 124.838413,91.275668 124.839277,91.2791211 C125.017582,91.8057249 125.161781,92.3495944 125.290437,92.9020967 C125.375488,93.246979 125.451473,93.5935879 125.519255,93.9466714 C125.533502,94.0209139 125.542137,94.0977462 125.55552,94.1724204 C125.555952,94.1737153 125.555952,94.1754419 125.556384,94.1763051 C125.646184,94.6748522 125.744619,95.169946 125.799017,95.6827372 C125.799017,95.6840322 125.799017,95.6848954 125.799449,95.6861904 L125.799881,95.6879169 C125.922925,96.856373 125.918176,98.0705832 125.844349,99.3016274 Z" fill="#C5171D"></path>
                        <path d="M91.2971316,112.678226 C91.8812654,113.598488 92.5418158,114.45573 93.2705799,115.240024 C93.9997758,116.02475 94.7980488,116.735234 95.657196,117.36241 C97.3798078,118.620216 99.3476436,119.540478 101.498534,120.042046 C100.525409,119.053153 99.6649668,117.940811 98.9340441,116.726601 C98.203553,115.514117 97.6017182,114.199766 97.1458089,112.804698 C96.6898996,111.411787 96.3790524,109.93816 96.2292413,108.407124 C96.0807254,106.877815 96.0923822,105.28894 96.2819126,103.663374 C96.6108926,100.846476 97.4428408,98.1793571 98.6646431,95.7677708 C99.887309,93.3557529 101.500261,91.1962458 103.393839,89.3962969 C105.289575,87.5928948 107.467664,86.1481876 109.815425,85.1687909 C112.167934,84.1880993 114.692704,83.6731499 117.277917,83.7335798 C117.54516,83.7400544 117.80938,83.7525721 118.072736,83.770701 C118.336093,83.78883 118.596859,83.813002 118.855899,83.843217 C119.114506,83.8734319 119.371387,83.9096899 119.626541,83.9506959 C119.881263,83.9925653 120.133395,84.0400459 120.383368,84.0927063 C119.660216,83.3839494 118.876622,82.7433921 118.040788,82.1800987 C117.204954,81.6181002 116.317313,81.1329342 115.383908,80.7340965 C114.450934,80.3348273 113.472629,80.0214549 112.455468,79.8021805 C111.947319,79.6925434 111.429672,79.6062149 110.90339,79.5440584 C110.377108,79.4827651 109.84176,79.4452122 109.297778,79.4335579 C108.657519,79.4197453 108.020282,79.4421907 107.388657,79.497441 C105.493784,79.6666448 103.647697,80.1410198 101.897454,80.8769702 C99.5678271,81.8559352 97.4065752,83.2984842 95.5237907,85.096275 C93.6435966,86.8923391 92.0392794,89.0432134 90.8235213,91.4457351 C89.9117027,93.2461157 89.2179089,95.1898016 88.7874719,97.230607 C88.6445685,97.9108755 88.5305911,98.6027983 88.4481303,99.302059 C88.1510985,101.815945 88.2806182,104.24048 88.7749516,106.494949 C89.2705803,108.752438 90.1318862,110.841156 91.2971316,112.678226 Z" fill="#9B1E1B"></path>
                    </g>
                </g>
            </g>
        </g>
    </g>
</svg>